<mxfile host="drawio-plugin" modified="2022-12-16T22:46:13.992Z" agent="5.0 (Windows NT 6.2; Win64; x64) AppleWebKit/537.36 (KHTML, like Gecko) Chrome/89.0.4389.114 Safari/537.36" etag="2Bx7Po3fTTATuGB7p2ox" version="15.5.4" type="embed"><diagram id="6pBEL2TMQI_WQjXP-D0V" name="1 oldal"><mxGraphModel dx="4212" dy="2407" grid="1" gridSize="10" guides="1" tooltips="1" connect="1" arrows="1" fold="1" page="1" pageScale="1" pageWidth="827" pageHeight="1169" math="0" shadow="0"><root><mxCell id="0"/><mxCell id="1" parent="0"/><mxCell id="_nUWH11KYutNcOeP03kL-2" value="" style="endArrow=none;html=1;fontSize=20;fontColor=#66CC00;exitX=1;exitY=1;exitDx=0;exitDy=0;entryX=0;entryY=0;entryDx=0;entryDy=0;startArrow=none;" parent="1" source="_nUWH11KYutNcOeP03kL-13" target="_nUWH11KYutNcOeP03kL-7" edge="1"><mxGeometry x="-0.4319" y="-14" width="50" height="50" relative="1" as="geometry"><mxPoint x="-1551.5735931287836" y="1762.9042712474775" as="sourcePoint"/><mxPoint x="-1314" y="1954.62" as="targetPoint"/><mxPoint as="offset"/></mxGeometry></mxCell><mxCell id="_nUWH11KYutNcOeP03kL-3" value="Employee" style="ellipse;whiteSpace=wrap;html=1;fontSize=20;strokeColor=#FF0000;" parent="1" vertex="1"><mxGeometry x="-1654" y="1696.12" width="120" height="81.5" as="geometry"/></mxCell><mxCell id="_nUWH11KYutNcOeP03kL-4" value="" style="endArrow=none;html=1;entryX=0.5;entryY=0;entryDx=0;entryDy=0;exitX=0.5;exitY=1;exitDx=0;exitDy=0;fillColor=#0050ef;fontSize=20;fontColor=#66CC00;strokeColor=#000000;startArrow=none;" parent="1" source="_nUWH11KYutNcOeP03kL-9" target="_nUWH11KYutNcOeP03kL-5" edge="1"><mxGeometry x="0.1636" y="20" width="50" height="50" relative="1" as="geometry"><mxPoint x="-1394" y="1944.17" as="sourcePoint"/><mxPoint x="-1352" y="1946.87" as="targetPoint"/><mxPoint as="offset"/></mxGeometry></mxCell><mxCell id="_nUWH11KYutNcOeP03kL-5" value="Day X Shift" style="ellipse;whiteSpace=wrap;html=1;fontSize=20;strokeColor=#FF0000;" parent="1" vertex="1"><mxGeometry x="-1654" y="1954.62" width="120" height="80" as="geometry"/></mxCell><mxCell id="_nUWH11KYutNcOeP03kL-6" value="" style="endArrow=none;html=1;fillColor=#0050ef;fontSize=20;exitX=1;exitY=0.5;exitDx=0;exitDy=0;entryX=0;entryY=0.5;entryDx=0;entryDy=0;startArrow=none;strokeColor=#FF0000;" parent="1" source="_nUWH11KYutNcOeP03kL-11" target="_nUWH11KYutNcOeP03kL-7" edge="1"><mxGeometry x="0.8" y="18" width="50" height="50" relative="1" as="geometry"><mxPoint x="-1504" y="1994.62" as="sourcePoint"/><mxPoint x="-1274" y="2014.62" as="targetPoint"/><mxPoint as="offset"/></mxGeometry></mxCell><mxCell id="_nUWH11KYutNcOeP03kL-7" value="Day X ON" style="ellipse;whiteSpace=wrap;html=1;fontSize=20;strokeColor=#FF0000;" parent="1" vertex="1"><mxGeometry x="-1242" y="1954.62" width="120" height="80" as="geometry"/></mxCell><mxCell id="_nUWH11KYutNcOeP03kL-8" value="" style="ellipse;whiteSpace=wrap;html=1;aspect=fixed;fontColor=#000000;fontSize=28;" parent="1" vertex="1"><mxGeometry x="-1507" y="1882.62" width="43" height="43" as="geometry"/></mxCell><mxCell id="_nUWH11KYutNcOeP03kL-9" value="" style="ellipse;whiteSpace=wrap;html=1;aspect=fixed;fontSize=21;strokeColor=#000000;" parent="1" vertex="1"><mxGeometry x="-1604" y="1856.12" width="20" height="20" as="geometry"/></mxCell><mxCell id="_nUWH11KYutNcOeP03kL-10" value="" style="endArrow=none;html=1;entryX=0.5;entryY=0;entryDx=0;entryDy=0;exitX=0.5;exitY=1;exitDx=0;exitDy=0;fillColor=#0050ef;fontSize=20;fontColor=#66CC00;strokeColor=#000000;" parent="1" source="_nUWH11KYutNcOeP03kL-3" target="_nUWH11KYutNcOeP03kL-9" edge="1"><mxGeometry x="0.1636" y="20" width="50" height="50" relative="1" as="geometry"><mxPoint x="-1594" y="1774.62" as="sourcePoint"/><mxPoint x="-1594" y="1954.62" as="targetPoint"/><mxPoint as="offset"/></mxGeometry></mxCell><mxCell id="_nUWH11KYutNcOeP03kL-11" value="" style="ellipse;whiteSpace=wrap;html=1;aspect=fixed;fontSize=21;strokeColor=#000000;" parent="1" vertex="1"><mxGeometry x="-1398" y="1984.62" width="20" height="20" as="geometry"/></mxCell><mxCell id="_nUWH11KYutNcOeP03kL-12" value="" style="endArrow=none;html=1;fillColor=#0050ef;fontSize=20;exitX=1;exitY=0.5;exitDx=0;exitDy=0;entryX=0;entryY=0.5;entryDx=0;entryDy=0;strokeColor=#FF0000;" parent="1" source="_nUWH11KYutNcOeP03kL-5" target="_nUWH11KYutNcOeP03kL-11" edge="1"><mxGeometry x="0.8" y="18" width="50" height="50" relative="1" as="geometry"><mxPoint x="-1534" y="1994.62" as="sourcePoint"/><mxPoint x="-1244" y="1994.62" as="targetPoint"/><mxPoint as="offset"/></mxGeometry></mxCell><mxCell id="_nUWH11KYutNcOeP03kL-13" value="" style="ellipse;whiteSpace=wrap;html=1;aspect=fixed;fontSize=21;strokeColor=#000000;" parent="1" vertex="1"><mxGeometry x="-1398" y="1852.12" width="20" height="20" as="geometry"/></mxCell><mxCell id="_nUWH11KYutNcOeP03kL-14" value="" style="endArrow=none;html=1;fontSize=20;fontColor=#66CC00;entryX=0;entryY=0;entryDx=0;entryDy=0;exitX=1;exitY=1;exitDx=0;exitDy=0;" parent="1" source="_nUWH11KYutNcOeP03kL-3" target="_nUWH11KYutNcOeP03kL-13" edge="1"><mxGeometry x="-0.4319" y="-14" width="50" height="50" relative="1" as="geometry"><mxPoint x="-1535.5" y="1773.12" as="sourcePoint"/><mxPoint x="-1224.4264068711927" y="1966.3357287525378" as="targetPoint"/><mxPoint as="offset"/></mxGeometry></mxCell><mxCell id="_nUWH11KYutNcOeP03kL-15" value="" style="endArrow=none;html=1;strokeColor=#000000;entryX=1;entryY=0.5;entryDx=0;entryDy=0;exitX=0;exitY=0.5;exitDx=0;exitDy=0;" parent="1" source="_nUWH11KYutNcOeP03kL-8" target="_nUWH11KYutNcOeP03kL-9" edge="1"><mxGeometry width="50" height="50" relative="1" as="geometry"><mxPoint x="-1664" y="1954.62" as="sourcePoint"/><mxPoint x="-1614" y="1904.62" as="targetPoint"/></mxGeometry></mxCell><mxCell id="_nUWH11KYutNcOeP03kL-16" value="1:DEL ; 1:DEL" style="endArrow=none;html=1;strokeColor=#000000;entryX=0;entryY=1;entryDx=0;entryDy=0;exitX=1;exitY=0;exitDx=0;exitDy=0;fontSize=20;" parent="1" source="_nUWH11KYutNcOeP03kL-8" target="_nUWH11KYutNcOeP03kL-13" edge="1"><mxGeometry x="1" y="114" width="50" height="50" relative="1" as="geometry"><mxPoint x="-1664" y="1954.62" as="sourcePoint"/><mxPoint x="-1614" y="1904.62" as="targetPoint"/><mxPoint x="123" y="46" as="offset"/></mxGeometry></mxCell><mxCell id="_nUWH11KYutNcOeP03kL-17" value="" style="endArrow=none;html=1;entryX=1;entryY=1;entryDx=0;entryDy=0;exitX=0;exitY=0;exitDx=0;exitDy=0;strokeColor=#000000;" parent="1" source="_nUWH11KYutNcOeP03kL-11" target="_nUWH11KYutNcOeP03kL-8" edge="1"><mxGeometry width="50" height="50" relative="1" as="geometry"><mxPoint x="-1664" y="1954.62" as="sourcePoint"/><mxPoint x="-1614" y="1904.62" as="targetPoint"/></mxGeometry></mxCell><mxCell id="_nUWH11KYutNcOeP03kL-19" value="" style="curved=1;endArrow=classic;html=1;fontSize=18;strokeColor=#000000;entryX=0;entryY=0.5;entryDx=0;entryDy=0;" parent="1" edge="1"><mxGeometry width="50" height="50" relative="1" as="geometry"><mxPoint x="-1421" y="1874.62" as="sourcePoint"/><mxPoint x="-1370" y="1802.8300000000008" as="targetPoint"/><Array as="points"><mxPoint x="-1541" y="1784.8900000000003"/></Array></mxGeometry></mxCell><mxCell id="_nUWH11KYutNcOeP03kL-20" value="Employee" style="ellipse;whiteSpace=wrap;html=1;fontSize=20;strokeColor=#FF0000;" parent="1" vertex="1"><mxGeometry x="-1639" y="850" width="120" height="80" as="geometry"/></mxCell><mxCell id="_nUWH11KYutNcOeP03kL-21" value="" style="endArrow=none;html=1;entryX=0.5;entryY=0;entryDx=0;entryDy=0;fillColor=#60a917;fontSize=20;fontColor=#FF0000;exitX=0.5;exitY=1;exitDx=0;exitDy=0;startArrow=none;" parent="1" source="_nUWH11KYutNcOeP03kL-23" target="_nUWH11KYutNcOeP03kL-22" edge="1"><mxGeometry x="0.5182" y="3" width="50" height="50" relative="1" as="geometry"><mxPoint x="-1539" y="940" as="sourcePoint"/><mxPoint x="-1344" y="987.25" as="targetPoint"/><mxPoint as="offset"/></mxGeometry></mxCell><mxCell id="_nUWH11KYutNcOeP03kL-22" value="&amp;nbsp; _ day X ON,&amp;nbsp; &amp;nbsp;[_] day X OFF&amp;nbsp;" style="ellipse;whiteSpace=wrap;html=1;fontSize=20;strokeColor=#FF0000;" parent="1" vertex="1"><mxGeometry x="-1648.5" y="1075" width="139" height="110" as="geometry"/></mxCell><mxCell id="_nUWH11KYutNcOeP03kL-23" value="" style="ellipse;whiteSpace=wrap;html=1;aspect=fixed;fontSize=21;strokeColor=#000000;" parent="1" vertex="1"><mxGeometry x="-1589" y="1000" width="20" height="20" as="geometry"/></mxCell><mxCell id="_nUWH11KYutNcOeP03kL-24" value="" style="endArrow=none;html=1;entryX=0.5;entryY=0;entryDx=0;entryDy=0;fillColor=#60a917;fontSize=20;fontColor=#FF0000;exitX=0.5;exitY=1;exitDx=0;exitDy=0;" parent="1" source="_nUWH11KYutNcOeP03kL-20" target="_nUWH11KYutNcOeP03kL-23" edge="1"><mxGeometry x="0.5182" y="3" width="50" height="50" relative="1" as="geometry"><mxPoint x="-1579" y="930" as="sourcePoint"/><mxPoint x="-1579" y="1090" as="targetPoint"/><mxPoint as="offset"/></mxGeometry></mxCell><mxCell id="_nUWH11KYutNcOeP03kL-25" value="1:DEL ; 1:DEL" style="text;html=1;strokeColor=none;fillColor=none;align=center;verticalAlign=middle;whiteSpace=wrap;rounded=0;fontSize=20;" parent="1" vertex="1"><mxGeometry x="-1569" y="960" width="130" height="20" as="geometry"/></mxCell><mxCell id="_nUWH11KYutNcOeP03kL-27" value="_ day X Shift" style="ellipse;whiteSpace=wrap;html=1;fontSize=20;strokeColor=#FF0000;" parent="1" vertex="1"><mxGeometry x="-1144.2500000000002" y="-842.98" width="140" height="80" as="geometry"/></mxCell><mxCell id="_nUWH11KYutNcOeP03kL-28" value="" style="endArrow=none;html=1;entryX=0.5;entryY=0;entryDx=0;entryDy=0;fillColor=#60a917;fontSize=20;fontColor=#FF0000;exitX=0.5;exitY=1;exitDx=0;exitDy=0;startArrow=none;strokeColor=#FF0000;" parent="1" source="_nUWH11KYutNcOeP03kL-30" target="_nUWH11KYutNcOeP03kL-29" edge="1"><mxGeometry x="0.5182" y="3" width="50" height="50" relative="1" as="geometry"><mxPoint x="-1034.25" y="-752.98" as="sourcePoint"/><mxPoint x="-839.25" y="-705.73" as="targetPoint"/><mxPoint as="offset"/></mxGeometry></mxCell><mxCell id="_nUWH11KYutNcOeP03kL-29" value="[_] day X ON" style="ellipse;whiteSpace=wrap;html=1;fontSize=20;strokeColor=#FF0000;" parent="1" vertex="1"><mxGeometry x="-1139.2500000000002" y="-602.98" width="130" height="80" as="geometry"/></mxCell><mxCell id="_nUWH11KYutNcOeP03kL-30" value="" style="ellipse;whiteSpace=wrap;html=1;aspect=fixed;fontSize=21;strokeColor=#000000;" parent="1" vertex="1"><mxGeometry x="-1084.2500000000002" y="-692.98" width="20" height="20" as="geometry"/></mxCell><mxCell id="_nUWH11KYutNcOeP03kL-31" value="" style="endArrow=none;html=1;entryX=0.5;entryY=0;entryDx=0;entryDy=0;fillColor=#60a917;fontSize=20;fontColor=#FF0000;exitX=0.5;exitY=1;exitDx=0;exitDy=0;strokeColor=#FF0000;" parent="1" source="_nUWH11KYutNcOeP03kL-27" target="_nUWH11KYutNcOeP03kL-30" edge="1"><mxGeometry x="0.5182" y="3" width="50" height="50" relative="1" as="geometry"><mxPoint x="-1074.2500000000002" y="-762.98" as="sourcePoint"/><mxPoint x="-1074.2500000000002" y="-602.98" as="targetPoint"/><mxPoint as="offset"/></mxGeometry></mxCell><mxCell id="_nUWH11KYutNcOeP03kL-96" value="Employee" style="ellipse;whiteSpace=wrap;html=1;fontSize=20;strokeColor=#FF0000;" parent="1" vertex="1"><mxGeometry x="-1160.25" y="860" width="140" height="80" as="geometry"/></mxCell><mxCell id="_nUWH11KYutNcOeP03kL-97" value="" style="endArrow=none;html=1;entryX=0.5;entryY=0;entryDx=0;entryDy=0;fillColor=#60a917;fontSize=20;fontColor=#FF0000;exitX=0.5;exitY=1;exitDx=0;exitDy=0;startArrow=none;strokeColor=#000000;" parent="1" source="_nUWH11KYutNcOeP03kL-99" target="_nUWH11KYutNcOeP03kL-98" edge="1"><mxGeometry x="0.5182" y="3" width="50" height="50" relative="1" as="geometry"><mxPoint x="-1050.25" y="950" as="sourcePoint"/><mxPoint x="-855.25" y="997.25" as="targetPoint"/><mxPoint as="offset"/></mxGeometry></mxCell><mxCell id="_nUWH11KYutNcOeP03kL-98" value="_ day X Shift,&lt;br&gt;[_+1] day X {4} shift" style="ellipse;whiteSpace=wrap;html=1;fontSize=20;strokeColor=#FF0000;" parent="1" vertex="1"><mxGeometry x="-1196" y="1095" width="211.5" height="90" as="geometry"/></mxCell><mxCell id="_nUWH11KYutNcOeP03kL-99" value="" style="ellipse;whiteSpace=wrap;html=1;aspect=fixed;fontSize=21;strokeColor=#000000;" parent="1" vertex="1"><mxGeometry x="-1100.25" y="1010" width="20" height="20" as="geometry"/></mxCell><mxCell id="_nUWH11KYutNcOeP03kL-100" value="" style="endArrow=none;html=1;entryX=0.5;entryY=0;entryDx=0;entryDy=0;fillColor=#60a917;fontSize=20;fontColor=#FF0000;exitX=0.5;exitY=1;exitDx=0;exitDy=0;strokeColor=#000000;" parent="1" source="_nUWH11KYutNcOeP03kL-96" target="_nUWH11KYutNcOeP03kL-99" edge="1"><mxGeometry x="0.5182" y="3" width="50" height="50" relative="1" as="geometry"><mxPoint x="-1090.25" y="940" as="sourcePoint"/><mxPoint x="-1090.25" y="1100" as="targetPoint"/><mxPoint as="offset"/></mxGeometry></mxCell><mxCell id="dinq52yC8a6YhpRBenlH-1" value="Employee" style="ellipse;whiteSpace=wrap;html=1;fontSize=20;strokeColor=#FF0000;" parent="1" vertex="1"><mxGeometry x="-893.5" y="860" width="140" height="80" as="geometry"/></mxCell><mxCell id="dinq52yC8a6YhpRBenlH-2" value="" style="endArrow=none;html=1;entryX=0.5;entryY=0;entryDx=0;entryDy=0;fillColor=#60a917;fontSize=20;fontColor=#FF0000;exitX=0.5;exitY=1;exitDx=0;exitDy=0;startArrow=none;strokeColor=#000000;" parent="1" source="dinq52yC8a6YhpRBenlH-4" target="dinq52yC8a6YhpRBenlH-3" edge="1"><mxGeometry x="0.5182" y="3" width="50" height="50" relative="1" as="geometry"><mxPoint x="-783.5" y="950" as="sourcePoint"/><mxPoint x="-588.5" y="997.25" as="targetPoint"/><mxPoint as="offset"/></mxGeometry></mxCell><mxCell id="dinq52yC8a6YhpRBenlH-3" value="Day X {5.0} shift" style="ellipse;whiteSpace=wrap;html=1;fontSize=20;strokeColor=#FF0000;" parent="1" vertex="1"><mxGeometry x="-915.5" y="1100" width="184" height="80" as="geometry"/></mxCell><mxCell id="dinq52yC8a6YhpRBenlH-4" value="" style="ellipse;whiteSpace=wrap;html=1;aspect=fixed;fontSize=21;strokeColor=#000000;" parent="1" vertex="1"><mxGeometry x="-833.5" y="1010" width="20" height="20" as="geometry"/></mxCell><mxCell id="dinq52yC8a6YhpRBenlH-5" value="&amp;nbsp;; {5.1}:DEL" style="endArrow=none;html=1;entryX=0.5;entryY=0;entryDx=0;entryDy=0;fillColor=#60a917;fontSize=20;fontColor=#000000;exitX=0.5;exitY=1;exitDx=0;exitDy=0;strokeColor=#000000;" parent="1" source="dinq52yC8a6YhpRBenlH-1" target="dinq52yC8a6YhpRBenlH-4" edge="1"><mxGeometry x="-0.0983" y="58" width="50" height="50" relative="1" as="geometry"><mxPoint x="-823.5" y="940" as="sourcePoint"/><mxPoint x="-823.5" y="1100" as="targetPoint"/><mxPoint as="offset"/></mxGeometry></mxCell><mxCell id="dinq52yC8a6YhpRBenlH-6" value="Employee" style="ellipse;whiteSpace=wrap;html=1;fontSize=20;strokeColor=#FF0000;" parent="1" vertex="1"><mxGeometry x="447.76" y="865" width="140" height="80" as="geometry"/></mxCell><mxCell id="dinq52yC8a6YhpRBenlH-7" value="" style="endArrow=none;html=1;entryX=0.5;entryY=0;entryDx=0;entryDy=0;fillColor=#60a917;fontSize=20;fontColor=#FF0000;exitX=0.5;exitY=1;exitDx=0;exitDy=0;startArrow=none;strokeColor=#000000;" parent="1" source="dinq52yC8a6YhpRBenlH-9" target="dinq52yC8a6YhpRBenlH-8" edge="1"><mxGeometry x="0.5182" y="3" width="50" height="50" relative="1" as="geometry"><mxPoint x="557.76" y="955" as="sourcePoint"/><mxPoint x="752.76" y="1002.25" as="targetPoint"/><mxPoint as="offset"/></mxGeometry></mxCell><mxCell id="dinq52yC8a6YhpRBenlH-8" value="Day X Interval" style="ellipse;whiteSpace=wrap;html=1;fontSize=20;strokeColor=#FF0000;" parent="1" vertex="1"><mxGeometry x="425.76" y="1105" width="184" height="80" as="geometry"/></mxCell><mxCell id="dinq52yC8a6YhpRBenlH-9" value="" style="ellipse;whiteSpace=wrap;html=1;aspect=fixed;fontSize=21;strokeColor=#000000;" parent="1" vertex="1"><mxGeometry x="507.76" y="1015" width="20" height="20" as="geometry"/></mxCell><mxCell id="dinq52yC8a6YhpRBenlH-10" value="{9.0}:DEL ; {9.1}:DEL" style="endArrow=none;html=1;entryX=0.5;entryY=0;entryDx=0;entryDy=0;fillColor=#60a917;fontSize=20;fontColor=#000000;exitX=0.5;exitY=1;exitDx=0;exitDy=0;strokeColor=#000000;" parent="1" source="dinq52yC8a6YhpRBenlH-6" target="dinq52yC8a6YhpRBenlH-9" edge="1"><mxGeometry x="-0.2411" y="98" width="50" height="50" relative="1" as="geometry"><mxPoint x="517.76" y="945" as="sourcePoint"/><mxPoint x="517.76" y="1105" as="targetPoint"/><mxPoint y="-1" as="offset"/></mxGeometry></mxCell><mxCell id="dinq52yC8a6YhpRBenlH-11" value="_ day X Shift" style="ellipse;whiteSpace=wrap;html=1;fontSize=20;strokeColor=#FF0000;" parent="1" vertex="1"><mxGeometry x="-1350.1300000000003" y="-843.99" width="140" height="80" as="geometry"/></mxCell><mxCell id="dinq52yC8a6YhpRBenlH-12" value="" style="endArrow=none;html=1;entryX=0.5;entryY=0;entryDx=0;entryDy=0;fillColor=#60a917;fontSize=20;fontColor=#FF0000;exitX=0.5;exitY=1;exitDx=0;exitDy=0;startArrow=none;strokeColor=#FF0000;" parent="1" source="dinq52yC8a6YhpRBenlH-14" target="dinq52yC8a6YhpRBenlH-13" edge="1"><mxGeometry x="0.5182" y="3" width="50" height="50" relative="1" as="geometry"><mxPoint x="-1240.1300000000003" y="-753.99" as="sourcePoint"/><mxPoint x="-1045.13" y="-706.74" as="targetPoint"/><mxPoint as="offset"/></mxGeometry></mxCell><mxCell id="dinq52yC8a6YhpRBenlH-13" value="[_] day X {0} interval" style="ellipse;whiteSpace=wrap;html=1;fontSize=20;strokeColor=#FF0000;" parent="1" vertex="1"><mxGeometry x="-1387.0000000000002" y="-603.99" width="213.75" height="80" as="geometry"/></mxCell><mxCell id="dinq52yC8a6YhpRBenlH-14" value="" style="ellipse;whiteSpace=wrap;html=1;aspect=fixed;fontSize=21;strokeColor=#000000;" parent="1" vertex="1"><mxGeometry x="-1290.1300000000003" y="-693.99" width="20" height="20" as="geometry"/></mxCell><mxCell id="dinq52yC8a6YhpRBenlH-15" value="" style="endArrow=none;html=1;entryX=0.5;entryY=0;entryDx=0;entryDy=0;fillColor=#60a917;fontSize=20;fontColor=#FF0000;exitX=0.5;exitY=1;exitDx=0;exitDy=0;strokeColor=#FF0000;" parent="1" source="dinq52yC8a6YhpRBenlH-11" target="dinq52yC8a6YhpRBenlH-14" edge="1"><mxGeometry x="0.5182" y="3" width="50" height="50" relative="1" as="geometry"><mxPoint x="-1280.1300000000003" y="-763.99" as="sourcePoint"/><mxPoint x="-1280.1300000000003" y="-603.99" as="targetPoint"/><mxPoint as="offset"/></mxGeometry></mxCell><mxCell id="dinq52yC8a6YhpRBenlH-16" value="" style="endArrow=none;html=1;fontSize=20;fontColor=#66CC00;exitX=1;exitY=1;exitDx=0;exitDy=0;entryX=0;entryY=0;entryDx=0;entryDy=0;startArrow=none;" parent="1" source="dinq52yC8a6YhpRBenlH-27" target="dinq52yC8a6YhpRBenlH-21" edge="1"><mxGeometry x="-0.4319" y="-14" width="50" height="50" relative="1" as="geometry"><mxPoint x="-940.5735931287836" y="1763.6542712474775" as="sourcePoint"/><mxPoint x="-703" y="1955.37" as="targetPoint"/><mxPoint as="offset"/></mxGeometry></mxCell><mxCell id="dinq52yC8a6YhpRBenlH-17" value="Employee" style="ellipse;whiteSpace=wrap;html=1;fontSize=20;strokeColor=#FF0000;" parent="1" vertex="1"><mxGeometry x="-1043" y="1696.87" width="120" height="81.5" as="geometry"/></mxCell><mxCell id="dinq52yC8a6YhpRBenlH-18" value="" style="endArrow=none;html=1;entryX=0.5;entryY=0;entryDx=0;entryDy=0;exitX=0.5;exitY=1;exitDx=0;exitDy=0;fillColor=#0050ef;fontSize=20;fontColor=#66CC00;strokeColor=#000000;startArrow=none;" parent="1" source="dinq52yC8a6YhpRBenlH-23" target="dinq52yC8a6YhpRBenlH-19" edge="1"><mxGeometry x="0.1636" y="20" width="50" height="50" relative="1" as="geometry"><mxPoint x="-783" y="1944.92" as="sourcePoint"/><mxPoint x="-741" y="1947.62" as="targetPoint"/><mxPoint as="offset"/></mxGeometry></mxCell><mxCell id="dinq52yC8a6YhpRBenlH-19" value="Day X Shift" style="ellipse;whiteSpace=wrap;html=1;fontSize=20;strokeColor=#FF0000;" parent="1" vertex="1"><mxGeometry x="-1043" y="1955.37" width="120" height="80" as="geometry"/></mxCell><mxCell id="dinq52yC8a6YhpRBenlH-20" value="" style="endArrow=none;html=1;fillColor=#0050ef;fontSize=20;exitX=1;exitY=0.5;exitDx=0;exitDy=0;entryX=0;entryY=0.5;entryDx=0;entryDy=0;startArrow=none;strokeColor=#FF0000;" parent="1" source="dinq52yC8a6YhpRBenlH-25" target="dinq52yC8a6YhpRBenlH-21" edge="1"><mxGeometry x="0.8" y="18" width="50" height="50" relative="1" as="geometry"><mxPoint x="-893" y="1995.37" as="sourcePoint"/><mxPoint x="-663" y="2015.37" as="targetPoint"/><mxPoint as="offset"/></mxGeometry></mxCell><mxCell id="dinq52yC8a6YhpRBenlH-21" value="Day X Interval" style="ellipse;whiteSpace=wrap;html=1;fontSize=20;strokeColor=#FF0000;" parent="1" vertex="1"><mxGeometry x="-631" y="1955.37" width="158" height="80" as="geometry"/></mxCell><mxCell id="dinq52yC8a6YhpRBenlH-22" value="" style="ellipse;whiteSpace=wrap;html=1;aspect=fixed;fontColor=#000000;fontSize=28;" parent="1" vertex="1"><mxGeometry x="-896" y="1883.37" width="43" height="43" as="geometry"/></mxCell><mxCell id="dinq52yC8a6YhpRBenlH-23" value="" style="ellipse;whiteSpace=wrap;html=1;aspect=fixed;fontSize=21;strokeColor=#000000;" parent="1" vertex="1"><mxGeometry x="-993" y="1856.87" width="20" height="20" as="geometry"/></mxCell><mxCell id="dinq52yC8a6YhpRBenlH-24" value="" style="endArrow=none;html=1;entryX=0.5;entryY=0;entryDx=0;entryDy=0;exitX=0.5;exitY=1;exitDx=0;exitDy=0;fillColor=#0050ef;fontSize=20;fontColor=#66CC00;strokeColor=#000000;" parent="1" source="dinq52yC8a6YhpRBenlH-17" target="dinq52yC8a6YhpRBenlH-23" edge="1"><mxGeometry x="0.1636" y="20" width="50" height="50" relative="1" as="geometry"><mxPoint x="-983" y="1775.37" as="sourcePoint"/><mxPoint x="-983" y="1955.37" as="targetPoint"/><mxPoint as="offset"/></mxGeometry></mxCell><mxCell id="dinq52yC8a6YhpRBenlH-25" value="" style="ellipse;whiteSpace=wrap;html=1;aspect=fixed;fontSize=21;strokeColor=#000000;" parent="1" vertex="1"><mxGeometry x="-787" y="1985.37" width="20" height="20" as="geometry"/></mxCell><mxCell id="dinq52yC8a6YhpRBenlH-26" value="" style="endArrow=none;html=1;fillColor=#0050ef;fontSize=20;exitX=1;exitY=0.5;exitDx=0;exitDy=0;entryX=0;entryY=0.5;entryDx=0;entryDy=0;strokeColor=#FF0000;" parent="1" source="dinq52yC8a6YhpRBenlH-19" target="dinq52yC8a6YhpRBenlH-25" edge="1"><mxGeometry x="0.8" y="18" width="50" height="50" relative="1" as="geometry"><mxPoint x="-923" y="1995.37" as="sourcePoint"/><mxPoint x="-633" y="1995.37" as="targetPoint"/><mxPoint as="offset"/></mxGeometry></mxCell><mxCell id="dinq52yC8a6YhpRBenlH-27" value="" style="ellipse;whiteSpace=wrap;html=1;aspect=fixed;fontSize=21;strokeColor=#000000;" parent="1" vertex="1"><mxGeometry x="-787" y="1852.87" width="20" height="20" as="geometry"/></mxCell><mxCell id="dinq52yC8a6YhpRBenlH-28" value="" style="endArrow=none;html=1;fontSize=20;fontColor=#66CC00;entryX=0;entryY=0;entryDx=0;entryDy=0;exitX=1;exitY=1;exitDx=0;exitDy=0;" parent="1" source="dinq52yC8a6YhpRBenlH-17" target="dinq52yC8a6YhpRBenlH-27" edge="1"><mxGeometry x="-0.4319" y="-14" width="50" height="50" relative="1" as="geometry"><mxPoint x="-924.5" y="1773.87" as="sourcePoint"/><mxPoint x="-613.4264068711927" y="1967.0857287525378" as="targetPoint"/><mxPoint as="offset"/></mxGeometry></mxCell><mxCell id="dinq52yC8a6YhpRBenlH-29" value="" style="endArrow=none;html=1;strokeColor=#000000;entryX=1;entryY=0.5;entryDx=0;entryDy=0;exitX=0;exitY=0.5;exitDx=0;exitDy=0;" parent="1" source="dinq52yC8a6YhpRBenlH-22" target="dinq52yC8a6YhpRBenlH-23" edge="1"><mxGeometry width="50" height="50" relative="1" as="geometry"><mxPoint x="-1053" y="1955.37" as="sourcePoint"/><mxPoint x="-1003" y="1905.37" as="targetPoint"/></mxGeometry></mxCell><mxCell id="dinq52yC8a6YhpRBenlH-30" value="1:DEL ; 1:DEL" style="endArrow=none;html=1;strokeColor=#000000;entryX=0;entryY=1;entryDx=0;entryDy=0;exitX=1;exitY=0;exitDx=0;exitDy=0;fontSize=20;" parent="1" source="dinq52yC8a6YhpRBenlH-22" target="dinq52yC8a6YhpRBenlH-27" edge="1"><mxGeometry x="1" y="114" width="50" height="50" relative="1" as="geometry"><mxPoint x="-1053" y="1955.37" as="sourcePoint"/><mxPoint x="-1003" y="1905.37" as="targetPoint"/><mxPoint x="123" y="46" as="offset"/></mxGeometry></mxCell><mxCell id="dinq52yC8a6YhpRBenlH-31" value="" style="endArrow=none;html=1;entryX=1;entryY=1;entryDx=0;entryDy=0;exitX=0;exitY=0;exitDx=0;exitDy=0;strokeColor=#000000;" parent="1" source="dinq52yC8a6YhpRBenlH-25" target="dinq52yC8a6YhpRBenlH-22" edge="1"><mxGeometry width="50" height="50" relative="1" as="geometry"><mxPoint x="-1053" y="1955.37" as="sourcePoint"/><mxPoint x="-1003" y="1905.37" as="targetPoint"/></mxGeometry></mxCell><mxCell id="dinq52yC8a6YhpRBenlH-32" value="" style="curved=1;endArrow=classic;html=1;fontSize=18;strokeColor=#000000;entryX=0;entryY=0.5;entryDx=0;entryDy=0;" parent="1" edge="1"><mxGeometry width="50" height="50" relative="1" as="geometry"><mxPoint x="-810" y="1875.37" as="sourcePoint"/><mxPoint x="-759" y="1803.5800000000008" as="targetPoint"/><Array as="points"><mxPoint x="-930" y="1785.6400000000003"/></Array></mxGeometry></mxCell><mxCell id="dinq52yC8a6YhpRBenlH-38" value="Employee" style="ellipse;whiteSpace=wrap;html=1;fontSize=20;strokeColor=#FF0000;" parent="1" vertex="1"><mxGeometry x="-1409" y="853.2799999999999" width="140" height="80" as="geometry"/></mxCell><mxCell id="dinq52yC8a6YhpRBenlH-39" value="" style="endArrow=none;html=1;entryX=0.5;entryY=0;entryDx=0;entryDy=0;fillColor=#60a917;fontSize=20;fontColor=#FF0000;exitX=0.5;exitY=1;exitDx=0;exitDy=0;startArrow=none;strokeColor=#FF0000;" parent="1" source="dinq52yC8a6YhpRBenlH-41" target="dinq52yC8a6YhpRBenlH-40" edge="1"><mxGeometry x="0.5182" y="3" width="50" height="50" relative="1" as="geometry"><mxPoint x="-1299" y="943.2799999999999" as="sourcePoint"/><mxPoint x="-1104" y="990.5299999999999" as="targetPoint"/><mxPoint as="offset"/></mxGeometry></mxCell><mxCell id="dinq52yC8a6YhpRBenlH-40" value="{3} day X OFF" style="ellipse;whiteSpace=wrap;html=1;fontSize=20;strokeColor=#FF0000;" parent="1" vertex="1"><mxGeometry x="-1424" y="1093.2799999999997" width="170" height="80" as="geometry"/></mxCell><mxCell id="dinq52yC8a6YhpRBenlH-41" value="" style="ellipse;whiteSpace=wrap;html=1;aspect=fixed;fontSize=21;strokeColor=#000000;" parent="1" vertex="1"><mxGeometry x="-1349" y="1003.2799999999999" width="20" height="20" as="geometry"/></mxCell><mxCell id="dinq52yC8a6YhpRBenlH-42" value="" style="endArrow=none;html=1;entryX=0.5;entryY=0;entryDx=0;entryDy=0;fillColor=#60a917;fontSize=20;fontColor=#000000;exitX=0.5;exitY=1;exitDx=0;exitDy=0;strokeColor=#FF0000;" parent="1" source="dinq52yC8a6YhpRBenlH-38" target="dinq52yC8a6YhpRBenlH-41" edge="1"><mxGeometry x="-0.1429" y="78" width="50" height="50" relative="1" as="geometry"><mxPoint x="-1339" y="933.2799999999999" as="sourcePoint"/><mxPoint x="-1339" y="1093.2799999999997" as="targetPoint"/><mxPoint as="offset"/></mxGeometry></mxCell><mxCell id="dinq52yC8a6YhpRBenlH-43" value="Day X ON" style="ellipse;whiteSpace=wrap;html=1;fontSize=20;strokeColor=#FF0000;" parent="1" vertex="1"><mxGeometry x="-954.25" y="-842.98" width="140" height="80" as="geometry"/></mxCell><mxCell id="dinq52yC8a6YhpRBenlH-44" value="" style="endArrow=none;html=1;entryX=0.5;entryY=0;entryDx=0;entryDy=0;fillColor=#60a917;fontSize=20;fontColor=#FF0000;exitX=0.5;exitY=1;exitDx=0;exitDy=0;startArrow=none;strokeColor=#FF0000;" parent="1" source="dinq52yC8a6YhpRBenlH-46" target="dinq52yC8a6YhpRBenlH-45" edge="1"><mxGeometry x="0.5182" y="3" width="50" height="50" relative="1" as="geometry"><mxPoint x="-844.25" y="-752.98" as="sourcePoint"/><mxPoint x="-649.25" y="-705.73" as="targetPoint"/><mxPoint as="offset"/></mxGeometry></mxCell><mxCell id="dinq52yC8a6YhpRBenlH-45" value="{1} weekend" style="ellipse;whiteSpace=wrap;html=1;fontSize=20;strokeColor=#FF0000;" parent="1" vertex="1"><mxGeometry x="-969.2499999999999" y="-602.98" width="170" height="80" as="geometry"/></mxCell><mxCell id="dinq52yC8a6YhpRBenlH-46" value="" style="ellipse;whiteSpace=wrap;html=1;aspect=fixed;fontSize=21;strokeColor=#000000;" parent="1" vertex="1"><mxGeometry x="-894.25" y="-692.98" width="20" height="20" as="geometry"/></mxCell><mxCell id="dinq52yC8a6YhpRBenlH-47" value="" style="endArrow=none;html=1;entryX=0.5;entryY=0;entryDx=0;entryDy=0;fillColor=#60a917;fontSize=20;fontColor=#000000;exitX=0.5;exitY=1;exitDx=0;exitDy=0;strokeColor=#FF0000;" parent="1" source="dinq52yC8a6YhpRBenlH-43" target="dinq52yC8a6YhpRBenlH-46" edge="1"><mxGeometry x="-0.1429" y="78" width="50" height="50" relative="1" as="geometry"><mxPoint x="-884.25" y="-762.98" as="sourcePoint"/><mxPoint x="-884.25" y="-602.98" as="targetPoint"/><mxPoint as="offset"/></mxGeometry></mxCell><mxCell id="dinq52yC8a6YhpRBenlH-48" value="Employee" style="ellipse;whiteSpace=wrap;html=1;fontSize=20;strokeColor=#FF0000;" parent="1" vertex="1"><mxGeometry x="-1654" y="1271.69" width="140" height="80" as="geometry"/></mxCell><mxCell id="dinq52yC8a6YhpRBenlH-49" value="" style="endArrow=none;html=1;entryX=0.5;entryY=0;entryDx=0;entryDy=0;fillColor=#60a917;fontSize=20;fontColor=#FF0000;exitX=0.5;exitY=1;exitDx=0;exitDy=0;startArrow=none;strokeColor=#000000;" parent="1" source="dinq52yC8a6YhpRBenlH-51" target="dinq52yC8a6YhpRBenlH-50" edge="1"><mxGeometry x="0.5182" y="3" width="50" height="50" relative="1" as="geometry"><mxPoint x="-1544" y="1361.69" as="sourcePoint"/><mxPoint x="-1349" y="1408.94" as="targetPoint"/><mxPoint as="offset"/></mxGeometry></mxCell><mxCell id="dinq52yC8a6YhpRBenlH-50" value="Weekend" style="ellipse;whiteSpace=wrap;html=1;fontSize=20;strokeColor=#FF0000;" parent="1" vertex="1"><mxGeometry x="-1654" y="1511.69" width="140" height="80" as="geometry"/></mxCell><mxCell id="dinq52yC8a6YhpRBenlH-51" value="" style="ellipse;whiteSpace=wrap;html=1;aspect=fixed;fontSize=21;strokeColor=#000000;" parent="1" vertex="1"><mxGeometry x="-1594" y="1421.69" width="20" height="20" as="geometry"/></mxCell><mxCell id="dinq52yC8a6YhpRBenlH-52" value="&amp;nbsp;; {10}:DEL" style="endArrow=none;html=1;entryX=0.5;entryY=0;entryDx=0;entryDy=0;fillColor=#60a917;fontSize=20;fontColor=#000000;exitX=0.5;exitY=1;exitDx=0;exitDy=0;strokeColor=#000000;" parent="1" source="dinq52yC8a6YhpRBenlH-48" target="dinq52yC8a6YhpRBenlH-51" edge="1"><mxGeometry x="-0.1911" y="54" width="50" height="50" relative="1" as="geometry"><mxPoint x="-1584" y="1351.69" as="sourcePoint"/><mxPoint x="-1584" y="1511.69" as="targetPoint"/><mxPoint as="offset"/></mxGeometry></mxCell><mxCell id="dinq52yC8a6YhpRBenlH-53" value="" style="endArrow=none;html=1;fontSize=20;fontColor=#66CC00;exitX=1;exitY=1;exitDx=0;exitDy=0;entryX=0;entryY=0;entryDx=0;entryDy=0;startArrow=none;" parent="1" source="dinq52yC8a6YhpRBenlH-64" target="dinq52yC8a6YhpRBenlH-58" edge="1"><mxGeometry x="-0.4319" y="-14" width="50" height="50" relative="1" as="geometry"><mxPoint x="-296.8235931287836" y="1762.9042712474777" as="sourcePoint"/><mxPoint x="-59.25" y="1954.6200000000001" as="targetPoint"/><mxPoint as="offset"/></mxGeometry></mxCell><mxCell id="dinq52yC8a6YhpRBenlH-54" value="Employee" style="ellipse;whiteSpace=wrap;html=1;fontSize=20;strokeColor=#FF0000;" parent="1" vertex="1"><mxGeometry x="-399.25" y="1696.1200000000001" width="120" height="81.5" as="geometry"/></mxCell><mxCell id="dinq52yC8a6YhpRBenlH-55" value="" style="endArrow=none;html=1;entryX=0.5;entryY=0;entryDx=0;entryDy=0;exitX=0.5;exitY=1;exitDx=0;exitDy=0;fillColor=#0050ef;fontSize=20;fontColor=#66CC00;strokeColor=#000000;startArrow=none;" parent="1" source="dinq52yC8a6YhpRBenlH-60" target="dinq52yC8a6YhpRBenlH-56" edge="1"><mxGeometry x="0.1636" y="20" width="50" height="50" relative="1" as="geometry"><mxPoint x="-139.25" y="1944.1700000000003" as="sourcePoint"/><mxPoint x="-97.25" y="1946.8700000000001" as="targetPoint"/><mxPoint as="offset"/></mxGeometry></mxCell><mxCell id="dinq52yC8a6YhpRBenlH-56" value="Day X ON" style="ellipse;whiteSpace=wrap;html=1;fontSize=20;strokeColor=#FF0000;" parent="1" vertex="1"><mxGeometry x="-399.25" y="1954.6200000000001" width="120" height="80" as="geometry"/></mxCell><mxCell id="dinq52yC8a6YhpRBenlH-57" value="" style="endArrow=none;html=1;fillColor=#0050ef;fontSize=20;exitX=1;exitY=0.5;exitDx=0;exitDy=0;entryX=0;entryY=0.5;entryDx=0;entryDy=0;startArrow=none;strokeColor=#FF0000;" parent="1" source="dinq52yC8a6YhpRBenlH-62" target="dinq52yC8a6YhpRBenlH-58" edge="1"><mxGeometry x="0.8" y="18" width="50" height="50" relative="1" as="geometry"><mxPoint x="-249.25" y="1994.6200000000001" as="sourcePoint"/><mxPoint x="-19.25" y="2014.6200000000001" as="targetPoint"/><mxPoint as="offset"/></mxGeometry></mxCell><mxCell id="dinq52yC8a6YhpRBenlH-58" value="Weekend" style="ellipse;whiteSpace=wrap;html=1;fontSize=20;strokeColor=#FF0000;" parent="1" vertex="1"><mxGeometry x="12.75" y="1954.6200000000001" width="158" height="80" as="geometry"/></mxCell><mxCell id="dinq52yC8a6YhpRBenlH-59" value="" style="ellipse;whiteSpace=wrap;html=1;aspect=fixed;fontColor=#000000;fontSize=28;" parent="1" vertex="1"><mxGeometry x="-252.25" y="1882.6200000000001" width="43" height="43" as="geometry"/></mxCell><mxCell id="dinq52yC8a6YhpRBenlH-60" value="" style="ellipse;whiteSpace=wrap;html=1;aspect=fixed;fontSize=21;strokeColor=#000000;" parent="1" vertex="1"><mxGeometry x="-349.25" y="1856.1200000000001" width="20" height="20" as="geometry"/></mxCell><mxCell id="dinq52yC8a6YhpRBenlH-61" value="" style="endArrow=none;html=1;entryX=0.5;entryY=0;entryDx=0;entryDy=0;exitX=0.5;exitY=1;exitDx=0;exitDy=0;fillColor=#0050ef;fontSize=20;fontColor=#66CC00;strokeColor=#000000;" parent="1" source="dinq52yC8a6YhpRBenlH-54" target="dinq52yC8a6YhpRBenlH-60" edge="1"><mxGeometry x="0.1636" y="20" width="50" height="50" relative="1" as="geometry"><mxPoint x="-339.25" y="1774.6200000000001" as="sourcePoint"/><mxPoint x="-339.25" y="1954.6200000000001" as="targetPoint"/><mxPoint as="offset"/></mxGeometry></mxCell><mxCell id="dinq52yC8a6YhpRBenlH-62" value="" style="ellipse;whiteSpace=wrap;html=1;aspect=fixed;fontSize=21;strokeColor=#000000;" parent="1" vertex="1"><mxGeometry x="-143.25" y="1984.6200000000001" width="20" height="20" as="geometry"/></mxCell><mxCell id="dinq52yC8a6YhpRBenlH-63" value="" style="endArrow=none;html=1;fillColor=#0050ef;fontSize=20;exitX=1;exitY=0.5;exitDx=0;exitDy=0;entryX=0;entryY=0.5;entryDx=0;entryDy=0;strokeColor=#FF0000;" parent="1" source="dinq52yC8a6YhpRBenlH-56" target="dinq52yC8a6YhpRBenlH-62" edge="1"><mxGeometry x="0.8" y="18" width="50" height="50" relative="1" as="geometry"><mxPoint x="-279.25" y="1994.6200000000001" as="sourcePoint"/><mxPoint x="10.75" y="1994.6200000000001" as="targetPoint"/><mxPoint as="offset"/></mxGeometry></mxCell><mxCell id="dinq52yC8a6YhpRBenlH-64" value="" style="ellipse;whiteSpace=wrap;html=1;aspect=fixed;fontSize=21;strokeColor=#000000;" parent="1" vertex="1"><mxGeometry x="-143.25" y="1852.1200000000001" width="20" height="20" as="geometry"/></mxCell><mxCell id="dinq52yC8a6YhpRBenlH-65" value="" style="endArrow=none;html=1;fontSize=20;fontColor=#66CC00;entryX=0;entryY=0;entryDx=0;entryDy=0;exitX=1;exitY=1;exitDx=0;exitDy=0;" parent="1" source="dinq52yC8a6YhpRBenlH-54" target="dinq52yC8a6YhpRBenlH-64" edge="1"><mxGeometry x="-0.4319" y="-14" width="50" height="50" relative="1" as="geometry"><mxPoint x="-280.75" y="1773.1200000000001" as="sourcePoint"/><mxPoint x="30.32359312880726" y="1966.335728752538" as="targetPoint"/><mxPoint as="offset"/></mxGeometry></mxCell><mxCell id="dinq52yC8a6YhpRBenlH-66" value="" style="endArrow=none;html=1;strokeColor=#000000;entryX=1;entryY=0.5;entryDx=0;entryDy=0;exitX=0;exitY=0.5;exitDx=0;exitDy=0;" parent="1" source="dinq52yC8a6YhpRBenlH-59" target="dinq52yC8a6YhpRBenlH-60" edge="1"><mxGeometry width="50" height="50" relative="1" as="geometry"><mxPoint x="-409.25" y="1954.6200000000001" as="sourcePoint"/><mxPoint x="-359.25" y="1904.6200000000001" as="targetPoint"/></mxGeometry></mxCell><mxCell id="dinq52yC8a6YhpRBenlH-67" value="1:DEL ;" style="endArrow=none;html=1;strokeColor=#000000;entryX=0;entryY=1;entryDx=0;entryDy=0;exitX=1;exitY=0;exitDx=0;exitDy=0;fontSize=20;" parent="1" source="dinq52yC8a6YhpRBenlH-59" target="dinq52yC8a6YhpRBenlH-64" edge="1"><mxGeometry x="1" y="91" width="50" height="50" relative="1" as="geometry"><mxPoint x="-409.25" y="1954.6200000000001" as="sourcePoint"/><mxPoint x="-359.25" y="1904.6200000000001" as="targetPoint"/><mxPoint x="89" y="25" as="offset"/></mxGeometry></mxCell><mxCell id="dinq52yC8a6YhpRBenlH-68" value="" style="endArrow=none;html=1;entryX=1;entryY=1;entryDx=0;entryDy=0;exitX=0;exitY=0;exitDx=0;exitDy=0;strokeColor=#000000;" parent="1" source="dinq52yC8a6YhpRBenlH-62" target="dinq52yC8a6YhpRBenlH-59" edge="1"><mxGeometry width="50" height="50" relative="1" as="geometry"><mxPoint x="-409.25" y="1954.6200000000001" as="sourcePoint"/><mxPoint x="-359.25" y="1904.6200000000001" as="targetPoint"/></mxGeometry></mxCell><mxCell id="dinq52yC8a6YhpRBenlH-69" value="" style="curved=1;endArrow=classic;html=1;fontSize=18;strokeColor=#000000;entryX=0;entryY=0.5;entryDx=0;entryDy=0;" parent="1" edge="1"><mxGeometry width="50" height="50" relative="1" as="geometry"><mxPoint x="-166.25" y="1874.6200000000001" as="sourcePoint"/><mxPoint x="-115.25" y="1802.830000000001" as="targetPoint"/><Array as="points"><mxPoint x="-286.25" y="1784.8900000000006"/></Array></mxGeometry></mxCell><mxCell id="dinq52yC8a6YhpRBenlH-70" value="Employee" style="ellipse;whiteSpace=wrap;html=1;fontSize=20;strokeColor=#FF0000;" parent="1" vertex="1"><mxGeometry x="-358.75" y="864.9999999999999" width="140" height="80" as="geometry"/></mxCell><mxCell id="dinq52yC8a6YhpRBenlH-71" value="" style="endArrow=none;html=1;entryX=0.5;entryY=0;entryDx=0;entryDy=0;fillColor=#60a917;fontSize=20;fontColor=#FF0000;exitX=0.5;exitY=1;exitDx=0;exitDy=0;startArrow=none;strokeColor=#000000;" parent="1" source="dinq52yC8a6YhpRBenlH-73" target="dinq52yC8a6YhpRBenlH-72" edge="1"><mxGeometry x="0.5182" y="3" width="50" height="50" relative="1" as="geometry"><mxPoint x="-248.75" y="955" as="sourcePoint"/><mxPoint x="-53.75" y="1002.25" as="targetPoint"/><mxPoint as="offset"/></mxGeometry></mxCell><mxCell id="dinq52yC8a6YhpRBenlH-72" value="{7.0} day X {7.1.0} shift" style="ellipse;whiteSpace=wrap;html=1;fontSize=20;strokeColor=#FF0000;" parent="1" vertex="1"><mxGeometry x="-399.25" y="1100" width="221" height="80" as="geometry"/></mxCell><mxCell id="dinq52yC8a6YhpRBenlH-73" value="" style="ellipse;whiteSpace=wrap;html=1;aspect=fixed;fontSize=21;strokeColor=#000000;" parent="1" vertex="1"><mxGeometry x="-298.75" y="1015" width="20" height="20" as="geometry"/></mxCell><mxCell id="dinq52yC8a6YhpRBenlH-74" value="&amp;nbsp;; 0:{7.1.1}p" style="endArrow=none;html=1;entryX=0.5;entryY=0;entryDx=0;entryDy=0;fillColor=#60a917;fontSize=20;fontColor=#000000;exitX=0.5;exitY=1;exitDx=0;exitDy=0;strokeColor=#000000;" parent="1" source="dinq52yC8a6YhpRBenlH-70" target="dinq52yC8a6YhpRBenlH-73" edge="1"><mxGeometry x="-0.1429" y="68" width="50" height="50" relative="1" as="geometry"><mxPoint x="-288.75" y="945" as="sourcePoint"/><mxPoint x="-288.75" y="1105" as="targetPoint"/><mxPoint y="1" as="offset"/></mxGeometry></mxCell><mxCell id="dinq52yC8a6YhpRBenlH-77" style="rounded=0;orthogonalLoop=1;jettySize=auto;html=1;exitX=0.5;exitY=1;exitDx=0;exitDy=0;strokeColor=#000000;fontColor=#000000;endArrow=none;endFill=0;" parent="1" source="dinq52yC8a6YhpRBenlH-75" target="dinq52yC8a6YhpRBenlH-76" edge="1"><mxGeometry relative="1" as="geometry"/></mxCell><mxCell id="dinq52yC8a6YhpRBenlH-79" style="orthogonalLoop=1;jettySize=auto;html=1;exitX=1;exitY=1;exitDx=0;exitDy=0;strokeColor=#000000;fontColor=#000000;endArrow=none;endFill=0;rounded=0;entryX=0;entryY=0;entryDx=0;entryDy=0;" parent="1" source="dinq52yC8a6YhpRBenlH-75" target="dinq52yC8a6YhpRBenlH-78" edge="1"><mxGeometry relative="1" as="geometry"/></mxCell><mxCell id="re8SCE5bhB2q5R2LFKZo-196" style="edgeStyle=none;rounded=0;orthogonalLoop=1;jettySize=auto;html=1;exitX=1;exitY=0.5;exitDx=0;exitDy=0;entryX=0;entryY=0.5;entryDx=0;entryDy=0;strokeColor=#000000;fontSize=20;fontColor=#000000;endArrow=none;endFill=0;" parent="1" source="dinq52yC8a6YhpRBenlH-75" target="re8SCE5bhB2q5R2LFKZo-195" edge="1"><mxGeometry relative="1" as="geometry"/></mxCell><mxCell id="dinq52yC8a6YhpRBenlH-75" value="Employee" style="ellipse;whiteSpace=wrap;html=1;fontSize=20;strokeColor=#FF0000;" parent="1" vertex="1"><mxGeometry x="-906.25" y="270" width="120" height="80" as="geometry"/></mxCell><mxCell id="dinq52yC8a6YhpRBenlH-76" value="Day X Shift" style="ellipse;whiteSpace=wrap;html=1;fontSize=20;strokeColor=#FF0000;" parent="1" vertex="1"><mxGeometry x="-912.75" y="590" width="120" height="80" as="geometry"/></mxCell><mxCell id="dinq52yC8a6YhpRBenlH-80" style="edgeStyle=none;rounded=0;orthogonalLoop=1;jettySize=auto;html=1;exitX=0;exitY=1;exitDx=0;exitDy=0;strokeColor=#FF0000;fontColor=#000000;endArrow=none;endFill=0;entryX=1;entryY=0.5;entryDx=0;entryDy=0;" parent="1" source="dinq52yC8a6YhpRBenlH-78" target="dinq52yC8a6YhpRBenlH-76" edge="1"><mxGeometry relative="1" as="geometry"/></mxCell><mxCell id="re8SCE5bhB2q5R2LFKZo-194" style="edgeStyle=none;rounded=0;orthogonalLoop=1;jettySize=auto;html=1;exitX=0;exitY=0.5;exitDx=0;exitDy=0;entryX=1;entryY=0.5;entryDx=0;entryDy=0;strokeColor=#FF0000;fontSize=20;fontColor=#000000;endArrow=none;endFill=0;" parent="1" source="dinq52yC8a6YhpRBenlH-78" target="tU_cHO0D26eTxfwIEn8V-1" edge="1"><mxGeometry relative="1" as="geometry"/></mxCell><mxCell id="dinq52yC8a6YhpRBenlH-78" value="Day X ON" style="ellipse;whiteSpace=wrap;html=1;fontSize=20;strokeColor=#FF0000;" parent="1" vertex="1"><mxGeometry x="-645.75" y="560" width="120" height="80" as="geometry"/></mxCell><mxCell id="dinq52yC8a6YhpRBenlH-86" style="edgeStyle=none;rounded=0;orthogonalLoop=1;jettySize=auto;html=1;exitX=0.5;exitY=1;exitDx=0;exitDy=0;entryX=0.5;entryY=0;entryDx=0;entryDy=0;strokeColor=#000000;fontColor=#000000;endArrow=none;endFill=0;" parent="1" source="dinq52yC8a6YhpRBenlH-81" target="dinq52yC8a6YhpRBenlH-84" edge="1"><mxGeometry relative="1" as="geometry"/></mxCell><mxCell id="dinq52yC8a6YhpRBenlH-81" value="Employee" style="ellipse;whiteSpace=wrap;html=1;fontSize=20;strokeColor=#FF0000;" parent="1" vertex="1"><mxGeometry x="-97.25" y="857.4999999999999" width="140" height="80" as="geometry"/></mxCell><mxCell id="dinq52yC8a6YhpRBenlH-82" value="{8.0}:({8.0}-{E})*{8.1}p ; {8.0}:({E}-{8.0})*{8.2}p" style="endArrow=none;html=1;entryX=0.5;entryY=0;entryDx=0;entryDy=0;fillColor=#60a917;fontSize=20;fontColor=#000000;exitX=0.5;exitY=1;exitDx=0;exitDy=0;startArrow=none;strokeColor=#000000;" parent="1" source="dinq52yC8a6YhpRBenlH-84" target="dinq52yC8a6YhpRBenlH-83" edge="1"><mxGeometry x="-0.0269" y="210" width="50" height="50" relative="1" as="geometry"><mxPoint x="12.75" y="947.4999999999999" as="sourcePoint"/><mxPoint x="207.75" y="994.7499999999999" as="targetPoint"/><mxPoint as="offset"/></mxGeometry></mxCell><mxCell id="dinq52yC8a6YhpRBenlH-83" value="Day X Shift" style="ellipse;whiteSpace=wrap;html=1;fontSize=20;strokeColor=#FF0000;" parent="1" vertex="1"><mxGeometry x="-97.25" y="1097.5" width="140" height="80" as="geometry"/></mxCell><mxCell id="dinq52yC8a6YhpRBenlH-84" value="" style="ellipse;whiteSpace=wrap;html=1;aspect=fixed;fontSize=21;strokeColor=#000000;" parent="1" vertex="1"><mxGeometry x="-37.25" y="1007.4999999999999" width="20" height="20" as="geometry"/></mxCell><mxCell id="tU_cHO0D26eTxfwIEn8V-4" style="edgeStyle=none;rounded=0;orthogonalLoop=1;jettySize=auto;html=1;exitX=0.5;exitY=0;exitDx=0;exitDy=0;endArrow=none;endFill=0;strokeColor=#FF0000;entryX=0.5;entryY=1;entryDx=0;entryDy=0;" parent="1" source="tU_cHO0D26eTxfwIEn8V-1" target="tU_cHO0D26eTxfwIEn8V-6" edge="1"><mxGeometry relative="1" as="geometry"/></mxCell><mxCell id="38" style="edgeStyle=none;rounded=0;orthogonalLoop=1;jettySize=auto;html=1;exitX=0;exitY=0;exitDx=0;exitDy=0;endArrow=none;endFill=0;entryX=0.332;entryY=0.995;entryDx=0;entryDy=0;entryPerimeter=0;" parent="1" source="tU_cHO0D26eTxfwIEn8V-1" target="33" edge="1"><mxGeometry relative="1" as="geometry"><mxPoint x="-1257.25" y="120" as="targetPoint"/></mxGeometry></mxCell><mxCell id="tU_cHO0D26eTxfwIEn8V-1" value="END" style="ellipse;whiteSpace=wrap;html=1;fontSize=20;strokeColor=#FF0000;" parent="1" vertex="1"><mxGeometry x="-1133.25" y="480" width="120" height="80" as="geometry"/></mxCell><mxCell id="tU_cHO0D26eTxfwIEn8V-7" style="edgeStyle=none;rounded=0;orthogonalLoop=1;jettySize=auto;html=1;exitX=1;exitY=0.5;exitDx=0;exitDy=0;entryX=0;entryY=0.5;entryDx=0;entryDy=0;strokeColor=#000000;endArrow=none;endFill=0;" parent="1" source="tU_cHO0D26eTxfwIEn8V-6" target="dinq52yC8a6YhpRBenlH-75" edge="1"><mxGeometry relative="1" as="geometry"/></mxCell><mxCell id="tU_cHO0D26eTxfwIEn8V-6" value="Day X OFF" style="ellipse;whiteSpace=wrap;html=1;fontSize=20;strokeColor=#FF0000;" parent="1" vertex="1"><mxGeometry x="-1133.25" y="270" width="120" height="80" as="geometry"/></mxCell><mxCell id="re8SCE5bhB2q5R2LFKZo-1" value="" style="endArrow=none;html=1;fontSize=20;fontColor=#66CC00;exitX=1;exitY=1;exitDx=0;exitDy=0;startArrow=none;strokeColor=#000000;entryX=0;entryY=0;entryDx=0;entryDy=0;" parent="1" source="re8SCE5bhB2q5R2LFKZo-12" target="63" edge="1"><mxGeometry x="-0.4319" y="-14" width="50" height="50" relative="1" as="geometry"><mxPoint x="-169.5735931287836" y="2169.7842712474776" as="sourcePoint"/><mxPoint x="159" y="2330" as="targetPoint"/><mxPoint as="offset"/></mxGeometry></mxCell><mxCell id="re8SCE5bhB2q5R2LFKZo-2" value="Day X ON, Day X OFF" style="ellipse;whiteSpace=wrap;html=1;fontSize=20;strokeColor=#FF0000;" parent="1" vertex="1"><mxGeometry x="-281" y="2102.25" width="138" height="81.5" as="geometry"/></mxCell><mxCell id="re8SCE5bhB2q5R2LFKZo-3" value="" style="endArrow=none;html=1;entryX=0.5;entryY=0;entryDx=0;entryDy=0;exitX=0.5;exitY=1;exitDx=0;exitDy=0;fillColor=#0050ef;fontSize=20;fontColor=#66CC00;startArrow=none;" parent="1" source="re8SCE5bhB2q5R2LFKZo-8" target="re8SCE5bhB2q5R2LFKZo-4" edge="1"><mxGeometry x="0.1636" y="20" width="50" height="50" relative="1" as="geometry"><mxPoint x="-12" y="2351.05" as="sourcePoint"/><mxPoint x="30" y="2353.75" as="targetPoint"/><mxPoint as="offset"/></mxGeometry></mxCell><mxCell id="re8SCE5bhB2q5R2LFKZo-4" value="Employee" style="ellipse;whiteSpace=wrap;html=1;fontSize=20;strokeColor=#FF0000;" parent="1" vertex="1"><mxGeometry x="-272" y="2361.5000000000005" width="120" height="80" as="geometry"/></mxCell><mxCell id="re8SCE5bhB2q5R2LFKZo-5" value="" style="endArrow=none;html=1;fillColor=#0050ef;fontSize=20;exitX=1;exitY=0.5;exitDx=0;exitDy=0;startArrow=none;strokeColor=#FF0000;entryX=0;entryY=0.5;entryDx=0;entryDy=0;" parent="1" source="re8SCE5bhB2q5R2LFKZo-10" target="63" edge="1"><mxGeometry x="0.8" y="18" width="50" height="50" relative="1" as="geometry"><mxPoint x="-122" y="2401.5" as="sourcePoint"/><mxPoint x="100" y="2420" as="targetPoint"/><mxPoint as="offset"/></mxGeometry></mxCell><mxCell id="re8SCE5bhB2q5R2LFKZo-7" value="" style="ellipse;whiteSpace=wrap;html=1;aspect=fixed;fontColor=#000000;fontSize=28;" parent="1" vertex="1"><mxGeometry x="-125" y="2289.5" width="43" height="43" as="geometry"/></mxCell><mxCell id="re8SCE5bhB2q5R2LFKZo-8" value="" style="ellipse;whiteSpace=wrap;html=1;aspect=fixed;fontSize=21;strokeColor=#000000;" parent="1" vertex="1"><mxGeometry x="-222" y="2263" width="20" height="20" as="geometry"/></mxCell><mxCell id="re8SCE5bhB2q5R2LFKZo-9" value="" style="endArrow=none;html=1;entryX=0.5;entryY=0;entryDx=0;entryDy=0;exitX=0.5;exitY=1;exitDx=0;exitDy=0;fillColor=#0050ef;fontSize=20;fontColor=#66CC00;" parent="1" source="re8SCE5bhB2q5R2LFKZo-2" target="re8SCE5bhB2q5R2LFKZo-8" edge="1"><mxGeometry x="0.1636" y="20" width="50" height="50" relative="1" as="geometry"><mxPoint x="-212" y="2181.5" as="sourcePoint"/><mxPoint x="-212" y="2361.5" as="targetPoint"/><mxPoint as="offset"/></mxGeometry></mxCell><mxCell id="re8SCE5bhB2q5R2LFKZo-10" value="" style="ellipse;whiteSpace=wrap;html=1;aspect=fixed;fontSize=21;strokeColor=#000000;" parent="1" vertex="1"><mxGeometry x="-16" y="2391.5" width="20" height="20" as="geometry"/></mxCell><mxCell id="re8SCE5bhB2q5R2LFKZo-11" value="" style="endArrow=none;html=1;fillColor=#0050ef;fontSize=20;exitX=1;exitY=0.5;exitDx=0;exitDy=0;entryX=0;entryY=0.5;entryDx=0;entryDy=0;" parent="1" source="re8SCE5bhB2q5R2LFKZo-4" target="re8SCE5bhB2q5R2LFKZo-10" edge="1"><mxGeometry x="0.8" y="18" width="50" height="50" relative="1" as="geometry"><mxPoint x="-152" y="2401.5" as="sourcePoint"/><mxPoint x="138" y="2401.5" as="targetPoint"/><mxPoint as="offset"/></mxGeometry></mxCell><mxCell id="re8SCE5bhB2q5R2LFKZo-12" value="" style="ellipse;whiteSpace=wrap;html=1;aspect=fixed;fontSize=21;strokeColor=#000000;" parent="1" vertex="1"><mxGeometry x="-16" y="2259" width="20" height="20" as="geometry"/></mxCell><mxCell id="re8SCE5bhB2q5R2LFKZo-13" value="" style="endArrow=none;html=1;fontSize=20;fontColor=#66CC00;entryX=0;entryY=0;entryDx=0;entryDy=0;exitX=1;exitY=1;exitDx=0;exitDy=0;strokeColor=#000000;" parent="1" source="re8SCE5bhB2q5R2LFKZo-2" target="re8SCE5bhB2q5R2LFKZo-12" edge="1"><mxGeometry x="-0.4319" y="-14" width="50" height="50" relative="1" as="geometry"><mxPoint x="-153.5" y="2180" as="sourcePoint"/><mxPoint x="157.57359312880726" y="2373.215728752538" as="targetPoint"/><mxPoint as="offset"/></mxGeometry></mxCell><mxCell id="re8SCE5bhB2q5R2LFKZo-14" value="" style="endArrow=none;html=1;strokeColor=#000000;entryX=1;entryY=0.5;entryDx=0;entryDy=0;exitX=0;exitY=0.5;exitDx=0;exitDy=0;" parent="1" source="re8SCE5bhB2q5R2LFKZo-7" target="re8SCE5bhB2q5R2LFKZo-8" edge="1"><mxGeometry width="50" height="50" relative="1" as="geometry"><mxPoint x="-282" y="2361.5" as="sourcePoint"/><mxPoint x="-232" y="2311.5" as="targetPoint"/></mxGeometry></mxCell><mxCell id="re8SCE5bhB2q5R2LFKZo-15" value="" style="endArrow=none;html=1;strokeColor=#000000;entryX=0;entryY=1;entryDx=0;entryDy=0;exitX=1;exitY=0;exitDx=0;exitDy=0;fontColor=#FF0000;" parent="1" source="re8SCE5bhB2q5R2LFKZo-7" target="re8SCE5bhB2q5R2LFKZo-12" edge="1"><mxGeometry width="50" height="50" relative="1" as="geometry"><mxPoint x="-282" y="2361.5" as="sourcePoint"/><mxPoint x="-232" y="2311.5" as="targetPoint"/></mxGeometry></mxCell><mxCell id="re8SCE5bhB2q5R2LFKZo-16" value="" style="endArrow=none;html=1;entryX=1;entryY=1;entryDx=0;entryDy=0;exitX=0;exitY=0;exitDx=0;exitDy=0;fontSize=20;" parent="1" source="re8SCE5bhB2q5R2LFKZo-10" target="re8SCE5bhB2q5R2LFKZo-7" edge="1"><mxGeometry x="-0.5159" y="-35" width="50" height="50" relative="1" as="geometry"><mxPoint x="-282" y="2361.5" as="sourcePoint"/><mxPoint x="-232" y="2311.5" as="targetPoint"/><mxPoint as="offset"/></mxGeometry></mxCell><mxCell id="re8SCE5bhB2q5R2LFKZo-17" value="" style="curved=1;endArrow=classic;html=1;fontSize=18;strokeColor=#000000;entryX=1;entryY=0.5;entryDx=0;entryDy=0;" parent="1" target="re8SCE5bhB2q5R2LFKZo-18" edge="1"><mxGeometry width="50" height="50" relative="1" as="geometry"><mxPoint x="-163.99999999999955" y="2290.25" as="sourcePoint"/><mxPoint x="-258" y="2250.25" as="targetPoint"/><Array as="points"><mxPoint x="-104" y="2250.25"/><mxPoint x="-184" y="2210.25"/></Array></mxGeometry></mxCell><mxCell id="re8SCE5bhB2q5R2LFKZo-18" value="1:DEL ; 1:DEL" style="text;html=1;strokeColor=none;fillColor=none;align=center;verticalAlign=middle;whiteSpace=wrap;rounded=0;fontSize=20;" parent="1" vertex="1"><mxGeometry x="-418" y="2212.25" width="140" height="47.5" as="geometry"/></mxCell><mxCell id="re8SCE5bhB2q5R2LFKZo-20" value="" style="endArrow=none;html=1;fontSize=20;fontColor=#66CC00;exitX=1;exitY=1;exitDx=0;exitDy=0;startArrow=none;strokeColor=#000000;entryX=0;entryY=0;entryDx=0;entryDy=0;" parent="1" source="re8SCE5bhB2q5R2LFKZo-31" target="61" edge="1"><mxGeometry x="-0.4319" y="-14" width="50" height="50" relative="1" as="geometry"><mxPoint x="-1542.5735931287836" y="2174.7842712474776" as="sourcePoint"/><mxPoint x="-1240" y="2300" as="targetPoint"/><mxPoint as="offset"/></mxGeometry></mxCell><mxCell id="re8SCE5bhB2q5R2LFKZo-21" value="Day X ON, Day X OFF" style="ellipse;whiteSpace=wrap;html=1;fontSize=20;strokeColor=#FF0000;" parent="1" vertex="1"><mxGeometry x="-1654" y="2107.25" width="138" height="81.5" as="geometry"/></mxCell><mxCell id="re8SCE5bhB2q5R2LFKZo-22" value="" style="endArrow=none;html=1;entryX=0.5;entryY=0;entryDx=0;entryDy=0;exitX=0.5;exitY=1;exitDx=0;exitDy=0;fillColor=#0050ef;fontSize=20;fontColor=#66CC00;startArrow=none;strokeColor=#FF0000;" parent="1" source="re8SCE5bhB2q5R2LFKZo-27" target="re8SCE5bhB2q5R2LFKZo-23" edge="1"><mxGeometry x="0.1636" y="20" width="50" height="50" relative="1" as="geometry"><mxPoint x="-1385" y="2356.05" as="sourcePoint"/><mxPoint x="-1343" y="2358.75" as="targetPoint"/><mxPoint as="offset"/></mxGeometry></mxCell><mxCell id="re8SCE5bhB2q5R2LFKZo-23" value="EDGE" style="ellipse;whiteSpace=wrap;html=1;fontSize=20;strokeColor=#FF0000;" parent="1" vertex="1"><mxGeometry x="-1645" y="2366.5000000000005" width="120" height="80" as="geometry"/></mxCell><mxCell id="re8SCE5bhB2q5R2LFKZo-24" value="" style="endArrow=none;html=1;fillColor=#0050ef;fontSize=20;exitX=1;exitY=0.5;exitDx=0;exitDy=0;startArrow=none;strokeColor=#FF0000;entryX=0;entryY=0.5;entryDx=0;entryDy=0;" parent="1" source="re8SCE5bhB2q5R2LFKZo-29" target="61" edge="1"><mxGeometry x="0.8" y="18" width="50" height="50" relative="1" as="geometry"><mxPoint x="-1495" y="2406.5" as="sourcePoint"/><mxPoint x="-1280" y="2440" as="targetPoint"/><mxPoint as="offset"/></mxGeometry></mxCell><mxCell id="re8SCE5bhB2q5R2LFKZo-26" value="" style="ellipse;whiteSpace=wrap;html=1;aspect=fixed;fontColor=#000000;fontSize=28;" parent="1" vertex="1"><mxGeometry x="-1498" y="2294.5" width="43" height="43" as="geometry"/></mxCell><mxCell id="re8SCE5bhB2q5R2LFKZo-27" value="" style="ellipse;whiteSpace=wrap;html=1;aspect=fixed;fontSize=21;strokeColor=#000000;" parent="1" vertex="1"><mxGeometry x="-1595" y="2268" width="20" height="20" as="geometry"/></mxCell><mxCell id="re8SCE5bhB2q5R2LFKZo-28" value="" style="endArrow=none;html=1;entryX=0.5;entryY=0;entryDx=0;entryDy=0;exitX=0.5;exitY=1;exitDx=0;exitDy=0;fillColor=#0050ef;fontSize=20;fontColor=#66CC00;strokeColor=#FF0000;" parent="1" source="re8SCE5bhB2q5R2LFKZo-21" target="re8SCE5bhB2q5R2LFKZo-27" edge="1"><mxGeometry x="0.1636" y="20" width="50" height="50" relative="1" as="geometry"><mxPoint x="-1585" y="2186.5" as="sourcePoint"/><mxPoint x="-1585" y="2366.5" as="targetPoint"/><mxPoint as="offset"/></mxGeometry></mxCell><mxCell id="re8SCE5bhB2q5R2LFKZo-29" value="" style="ellipse;whiteSpace=wrap;html=1;aspect=fixed;fontSize=21;strokeColor=#000000;" parent="1" vertex="1"><mxGeometry x="-1389" y="2396.5" width="20" height="20" as="geometry"/></mxCell><mxCell id="re8SCE5bhB2q5R2LFKZo-30" value="" style="endArrow=none;html=1;fillColor=#0050ef;fontSize=20;exitX=1;exitY=0.5;exitDx=0;exitDy=0;entryX=0;entryY=0.5;entryDx=0;entryDy=0;" parent="1" source="re8SCE5bhB2q5R2LFKZo-23" target="re8SCE5bhB2q5R2LFKZo-29" edge="1"><mxGeometry x="0.8" y="18" width="50" height="50" relative="1" as="geometry"><mxPoint x="-1525" y="2406.5" as="sourcePoint"/><mxPoint x="-1235" y="2406.5" as="targetPoint"/><mxPoint as="offset"/></mxGeometry></mxCell><mxCell id="re8SCE5bhB2q5R2LFKZo-31" value="" style="ellipse;whiteSpace=wrap;html=1;aspect=fixed;fontSize=21;strokeColor=#000000;" parent="1" vertex="1"><mxGeometry x="-1389" y="2264" width="20" height="20" as="geometry"/></mxCell><mxCell id="re8SCE5bhB2q5R2LFKZo-32" value="" style="endArrow=none;html=1;fontSize=20;fontColor=#66CC00;entryX=0;entryY=0;entryDx=0;entryDy=0;exitX=1;exitY=1;exitDx=0;exitDy=0;strokeColor=#000000;" parent="1" source="re8SCE5bhB2q5R2LFKZo-21" target="re8SCE5bhB2q5R2LFKZo-31" edge="1"><mxGeometry x="-0.4319" y="-14" width="50" height="50" relative="1" as="geometry"><mxPoint x="-1526.5" y="2185" as="sourcePoint"/><mxPoint x="-1215.4264068711927" y="2378.215728752538" as="targetPoint"/><mxPoint as="offset"/></mxGeometry></mxCell><mxCell id="re8SCE5bhB2q5R2LFKZo-33" value="" style="endArrow=none;html=1;strokeColor=#000000;entryX=1;entryY=0.5;entryDx=0;entryDy=0;exitX=0;exitY=0.5;exitDx=0;exitDy=0;" parent="1" source="re8SCE5bhB2q5R2LFKZo-26" target="re8SCE5bhB2q5R2LFKZo-27" edge="1"><mxGeometry width="50" height="50" relative="1" as="geometry"><mxPoint x="-1655" y="2366.5" as="sourcePoint"/><mxPoint x="-1605" y="2316.5" as="targetPoint"/></mxGeometry></mxCell><mxCell id="re8SCE5bhB2q5R2LFKZo-34" value="2:DEL ; 2:DEL" style="endArrow=none;html=1;strokeColor=#000000;entryX=0;entryY=1;entryDx=0;entryDy=0;exitX=1;exitY=0;exitDx=0;exitDy=0;fontSize=20;" parent="1" source="re8SCE5bhB2q5R2LFKZo-26" target="re8SCE5bhB2q5R2LFKZo-31" edge="1"><mxGeometry x="1" y="-84" width="50" height="50" relative="1" as="geometry"><mxPoint x="-1655" y="2366.5" as="sourcePoint"/><mxPoint x="-1605" y="2316.5" as="targetPoint"/><mxPoint x="14" y="-5" as="offset"/></mxGeometry></mxCell><mxCell id="re8SCE5bhB2q5R2LFKZo-35" value="" style="endArrow=none;html=1;entryX=1;entryY=1;entryDx=0;entryDy=0;exitX=0;exitY=0;exitDx=0;exitDy=0;" parent="1" source="re8SCE5bhB2q5R2LFKZo-29" target="re8SCE5bhB2q5R2LFKZo-26" edge="1"><mxGeometry width="50" height="50" relative="1" as="geometry"><mxPoint x="-1655" y="2366.5" as="sourcePoint"/><mxPoint x="-1605" y="2316.5" as="targetPoint"/></mxGeometry></mxCell><mxCell id="re8SCE5bhB2q5R2LFKZo-47" value="" style="endArrow=none;html=1;entryX=0.5;entryY=0;entryDx=0;entryDy=0;fillColor=#60a917;fontSize=20;fontColor=#FF0000;exitX=0.5;exitY=1;exitDx=0;exitDy=0;startArrow=none;strokeColor=#000000;" parent="1" source="re8SCE5bhB2q5R2LFKZo-49" target="re8SCE5bhB2q5R2LFKZo-48" edge="1"><mxGeometry x="0.5182" y="3" width="50" height="50" relative="1" as="geometry"><mxPoint x="-677" y="-398.4499999999997" as="sourcePoint"/><mxPoint x="-482.0000000000001" y="-351.1999999999997" as="targetPoint"/><mxPoint as="offset"/></mxGeometry></mxCell><mxCell id="re8SCE5bhB2q5R2LFKZo-48" value="[_:_+{2}] day X ON" style="ellipse;whiteSpace=wrap;html=1;fontSize=20;strokeColor=#FF0000;" parent="1" vertex="1"><mxGeometry x="-823.3799999999999" y="-259.99999999999966" width="202.25" height="100" as="geometry"/></mxCell><mxCell id="re8SCE5bhB2q5R2LFKZo-49" value="" style="ellipse;whiteSpace=wrap;html=1;aspect=fixed;fontSize=21;strokeColor=#000000;" parent="1" vertex="1"><mxGeometry x="-732.25" y="-338.4499999999997" width="20" height="20" as="geometry"/></mxCell><mxCell id="re8SCE5bhB2q5R2LFKZo-50" value="" style="endArrow=none;html=1;entryX=0.5;entryY=0;entryDx=0;entryDy=0;fillColor=#60a917;fontSize=20;fontColor=#000000;strokeColor=#000000;" parent="1" source="47" target="re8SCE5bhB2q5R2LFKZo-49" edge="1"><mxGeometry x="-0.1429" y="45" width="50" height="50" relative="1" as="geometry"><mxPoint x="-717" y="-408.4499999999997" as="sourcePoint"/><mxPoint x="-717" y="-248.4499999999997" as="targetPoint"/><mxPoint y="1" as="offset"/></mxGeometry></mxCell><mxCell id="re8SCE5bhB2q5R2LFKZo-51" value="" style="endArrow=none;html=1;fontSize=20;fontColor=#66CC00;exitX=1;exitY=1;exitDx=0;exitDy=0;entryX=0;entryY=0;entryDx=0;entryDy=0;startArrow=none;strokeColor=#000000;" parent="1" source="re8SCE5bhB2q5R2LFKZo-62" target="re8SCE5bhB2q5R2LFKZo-56" edge="1"><mxGeometry x="-0.4319" y="-14" width="50" height="50" relative="1" as="geometry"><mxPoint x="-1542.5735931287836" y="2593.2842712474776" as="sourcePoint"/><mxPoint x="-1305" y="2785" as="targetPoint"/><mxPoint as="offset"/></mxGeometry></mxCell><mxCell id="re8SCE5bhB2q5R2LFKZo-52" value="Day X ON, EDGE" style="ellipse;whiteSpace=wrap;html=1;fontSize=20;strokeColor=#FF0000;" parent="1" vertex="1"><mxGeometry x="-1654" y="2525.75" width="138" height="81.5" as="geometry"/></mxCell><mxCell id="re8SCE5bhB2q5R2LFKZo-53" value="" style="endArrow=none;html=1;entryX=0.5;entryY=0;entryDx=0;entryDy=0;exitX=0.5;exitY=1;exitDx=0;exitDy=0;fillColor=#0050ef;fontSize=20;fontColor=#66CC00;startArrow=none;strokeColor=#FF0000;" parent="1" source="re8SCE5bhB2q5R2LFKZo-58" target="re8SCE5bhB2q5R2LFKZo-54" edge="1"><mxGeometry x="0.1636" y="20" width="50" height="50" relative="1" as="geometry"><mxPoint x="-1385" y="2774.55" as="sourcePoint"/><mxPoint x="-1343" y="2777.25" as="targetPoint"/><mxPoint as="offset"/></mxGeometry></mxCell><mxCell id="re8SCE5bhB2q5R2LFKZo-54" value="Day X ON" style="ellipse;whiteSpace=wrap;html=1;fontSize=20;strokeColor=#FF0000;" parent="1" vertex="1"><mxGeometry x="-1645" y="2785.0000000000005" width="120" height="80" as="geometry"/></mxCell><mxCell id="re8SCE5bhB2q5R2LFKZo-55" value="" style="endArrow=none;html=1;fillColor=#0050ef;fontSize=20;exitX=1;exitY=0.5;exitDx=0;exitDy=0;entryX=0;entryY=0.5;entryDx=0;entryDy=0;startArrow=none;strokeColor=#000000;" parent="1" source="re8SCE5bhB2q5R2LFKZo-60" target="re8SCE5bhB2q5R2LFKZo-56" edge="1"><mxGeometry x="0.8" y="18" width="50" height="50" relative="1" as="geometry"><mxPoint x="-1495" y="2825" as="sourcePoint"/><mxPoint x="-1265" y="2845" as="targetPoint"/><mxPoint as="offset"/></mxGeometry></mxCell><mxCell id="re8SCE5bhB2q5R2LFKZo-56" value="Emp_Cons_ON" style="ellipse;whiteSpace=wrap;html=1;fontSize=20;strokeColor=#000000;" parent="1" vertex="1"><mxGeometry x="-1238" y="2779.25" width="165" height="90" as="geometry"/></mxCell><mxCell id="re8SCE5bhB2q5R2LFKZo-57" value="" style="ellipse;whiteSpace=wrap;html=1;aspect=fixed;fontColor=#000000;fontSize=28;" parent="1" vertex="1"><mxGeometry x="-1498" y="2713" width="43" height="43" as="geometry"/></mxCell><mxCell id="re8SCE5bhB2q5R2LFKZo-58" value="" style="ellipse;whiteSpace=wrap;html=1;aspect=fixed;fontSize=21;strokeColor=#000000;" parent="1" vertex="1"><mxGeometry x="-1595" y="2686.5" width="20" height="20" as="geometry"/></mxCell><mxCell id="re8SCE5bhB2q5R2LFKZo-59" value="" style="endArrow=none;html=1;entryX=0.5;entryY=0;entryDx=0;entryDy=0;exitX=0.5;exitY=1;exitDx=0;exitDy=0;fillColor=#0050ef;fontSize=20;fontColor=#66CC00;strokeColor=#FF0000;" parent="1" source="re8SCE5bhB2q5R2LFKZo-52" target="re8SCE5bhB2q5R2LFKZo-58" edge="1"><mxGeometry x="0.1636" y="20" width="50" height="50" relative="1" as="geometry"><mxPoint x="-1585" y="2605" as="sourcePoint"/><mxPoint x="-1585" y="2785" as="targetPoint"/><mxPoint as="offset"/></mxGeometry></mxCell><mxCell id="re8SCE5bhB2q5R2LFKZo-60" value="" style="ellipse;whiteSpace=wrap;html=1;aspect=fixed;fontSize=21;strokeColor=#000000;" parent="1" vertex="1"><mxGeometry x="-1389" y="2815" width="20" height="20" as="geometry"/></mxCell><mxCell id="re8SCE5bhB2q5R2LFKZo-61" value="" style="endArrow=none;html=1;fillColor=#0050ef;fontSize=20;exitX=1;exitY=0.5;exitDx=0;exitDy=0;entryX=0;entryY=0.5;entryDx=0;entryDy=0;" parent="1" source="re8SCE5bhB2q5R2LFKZo-54" target="re8SCE5bhB2q5R2LFKZo-60" edge="1"><mxGeometry x="0.8" y="18" width="50" height="50" relative="1" as="geometry"><mxPoint x="-1525" y="2825" as="sourcePoint"/><mxPoint x="-1235" y="2825" as="targetPoint"/><mxPoint as="offset"/></mxGeometry></mxCell><mxCell id="re8SCE5bhB2q5R2LFKZo-62" value="" style="ellipse;whiteSpace=wrap;html=1;aspect=fixed;fontSize=21;strokeColor=#000000;" parent="1" vertex="1"><mxGeometry x="-1389" y="2682.5" width="20" height="20" as="geometry"/></mxCell><mxCell id="re8SCE5bhB2q5R2LFKZo-63" value="" style="endArrow=none;html=1;fontSize=20;fontColor=#66CC00;entryX=0;entryY=0;entryDx=0;entryDy=0;exitX=1;exitY=1;exitDx=0;exitDy=0;strokeColor=#000000;" parent="1" source="re8SCE5bhB2q5R2LFKZo-52" target="re8SCE5bhB2q5R2LFKZo-62" edge="1"><mxGeometry x="-0.4319" y="-14" width="50" height="50" relative="1" as="geometry"><mxPoint x="-1526.5" y="2603.5" as="sourcePoint"/><mxPoint x="-1215.4264068711927" y="2796.715728752538" as="targetPoint"/><mxPoint as="offset"/></mxGeometry></mxCell><mxCell id="re8SCE5bhB2q5R2LFKZo-64" value="" style="endArrow=none;html=1;strokeColor=#000000;entryX=1;entryY=0.5;entryDx=0;entryDy=0;exitX=0;exitY=0.5;exitDx=0;exitDy=0;" parent="1" source="re8SCE5bhB2q5R2LFKZo-57" target="re8SCE5bhB2q5R2LFKZo-58" edge="1"><mxGeometry width="50" height="50" relative="1" as="geometry"><mxPoint x="-1655" y="2785" as="sourcePoint"/><mxPoint x="-1605" y="2735" as="targetPoint"/></mxGeometry></mxCell><mxCell id="re8SCE5bhB2q5R2LFKZo-65" value="2:DEL ; 2:DEL" style="endArrow=none;html=1;strokeColor=#000000;entryX=0;entryY=1;entryDx=0;entryDy=0;exitX=1;exitY=0;exitDx=0;exitDy=0;fontSize=20;" parent="1" source="re8SCE5bhB2q5R2LFKZo-57" target="re8SCE5bhB2q5R2LFKZo-62" edge="1"><mxGeometry x="1" y="-84" width="50" height="50" relative="1" as="geometry"><mxPoint x="-1655" y="2785" as="sourcePoint"/><mxPoint x="-1605" y="2735" as="targetPoint"/><mxPoint x="14" y="-5" as="offset"/></mxGeometry></mxCell><mxCell id="re8SCE5bhB2q5R2LFKZo-66" value="" style="endArrow=none;html=1;entryX=1;entryY=1;entryDx=0;entryDy=0;exitX=0;exitY=0;exitDx=0;exitDy=0;" parent="1" source="re8SCE5bhB2q5R2LFKZo-60" target="re8SCE5bhB2q5R2LFKZo-57" edge="1"><mxGeometry width="50" height="50" relative="1" as="geometry"><mxPoint x="-1655" y="2785" as="sourcePoint"/><mxPoint x="-1605" y="2735" as="targetPoint"/></mxGeometry></mxCell><mxCell id="re8SCE5bhB2q5R2LFKZo-67" value="_ day X ON" style="ellipse;whiteSpace=wrap;html=1;fontSize=20;strokeColor=#FF0000;" parent="1" vertex="1"><mxGeometry x="-738.5" y="-845.2399999999998" width="140" height="80" as="geometry"/></mxCell><mxCell id="re8SCE5bhB2q5R2LFKZo-68" value="" style="endArrow=none;html=1;entryX=0.5;entryY=0;entryDx=0;entryDy=0;fillColor=#60a917;fontSize=20;fontColor=#FF0000;exitX=0.5;exitY=1;exitDx=0;exitDy=0;startArrow=none;strokeColor=#FF0000;" parent="1" source="re8SCE5bhB2q5R2LFKZo-70" target="re8SCE5bhB2q5R2LFKZo-69" edge="1"><mxGeometry x="0.5182" y="3" width="50" height="50" relative="1" as="geometry"><mxPoint x="-628.5" y="-755.2399999999998" as="sourcePoint"/><mxPoint x="-433.5" y="-707.9899999999998" as="targetPoint"/><mxPoint as="offset"/></mxGeometry></mxCell><mxCell id="re8SCE5bhB2q5R2LFKZo-69" value="[_-1, _+1] day X ON" style="ellipse;whiteSpace=wrap;html=1;fontSize=20;strokeColor=#FF0000;" parent="1" vertex="1"><mxGeometry x="-771.5" y="-606.49" width="207" height="82.5" as="geometry"/></mxCell><mxCell id="re8SCE5bhB2q5R2LFKZo-70" value="" style="ellipse;whiteSpace=wrap;html=1;aspect=fixed;fontSize=21;strokeColor=#000000;" parent="1" vertex="1"><mxGeometry x="-678.5" y="-695.2399999999998" width="20" height="20" as="geometry"/></mxCell><mxCell id="re8SCE5bhB2q5R2LFKZo-71" value="" style="endArrow=none;html=1;entryX=0.5;entryY=0;entryDx=0;entryDy=0;fillColor=#60a917;fontSize=20;fontColor=#FF0000;exitX=0.5;exitY=1;exitDx=0;exitDy=0;strokeColor=#FF0000;" parent="1" source="re8SCE5bhB2q5R2LFKZo-67" target="re8SCE5bhB2q5R2LFKZo-70" edge="1"><mxGeometry x="0.5182" y="3" width="50" height="50" relative="1" as="geometry"><mxPoint x="-668.5" y="-765.2399999999998" as="sourcePoint"/><mxPoint x="-668.5" y="-605.2399999999998" as="targetPoint"/><mxPoint as="offset"/></mxGeometry></mxCell><mxCell id="re8SCE5bhB2q5R2LFKZo-72" style="edgeStyle=orthogonalEdgeStyle;rounded=0;orthogonalLoop=1;jettySize=auto;html=1;entryX=1;entryY=1;entryDx=0;entryDy=0;strokeColor=#FF0000;fontSize=20;fontColor=#000000;endArrow=none;endFill=0;exitX=1;exitY=0;exitDx=0;exitDy=0;" parent="1" source="dinq52yC8a6YhpRBenlH-78" target="dinq52yC8a6YhpRBenlH-78" edge="1"><mxGeometry relative="1" as="geometry"><mxPoint x="-532.25" y="490" as="sourcePoint"/><Array as="points"><mxPoint x="-472.75" y="572"/><mxPoint x="-472.75" y="629"/></Array></mxGeometry></mxCell><mxCell id="re8SCE5bhB2q5R2LFKZo-73" value="" style="endArrow=none;html=1;fontSize=20;fontColor=#66CC00;exitX=1;exitY=1;exitDx=0;exitDy=0;entryX=0;entryY=0;entryDx=0;entryDy=0;startArrow=none;strokeColor=#000000;" parent="1" source="re8SCE5bhB2q5R2LFKZo-84" target="re8SCE5bhB2q5R2LFKZo-78" edge="1"><mxGeometry x="-0.4319" y="-14" width="50" height="50" relative="1" as="geometry"><mxPoint x="-901.5735931287836" y="2587.5342712474776" as="sourcePoint"/><mxPoint x="-664" y="2779.25" as="targetPoint"/><mxPoint as="offset"/></mxGeometry></mxCell><mxCell id="re8SCE5bhB2q5R2LFKZo-74" value="Day X OFF, EDGE" style="ellipse;whiteSpace=wrap;html=1;fontSize=20;strokeColor=#FF0000;" parent="1" vertex="1"><mxGeometry x="-1013" y="2520" width="138" height="81.5" as="geometry"/></mxCell><mxCell id="re8SCE5bhB2q5R2LFKZo-75" value="" style="endArrow=none;html=1;entryX=0.5;entryY=0;entryDx=0;entryDy=0;exitX=0.5;exitY=1;exitDx=0;exitDy=0;fillColor=#0050ef;fontSize=20;fontColor=#66CC00;startArrow=none;strokeColor=#FF0000;" parent="1" source="re8SCE5bhB2q5R2LFKZo-80" target="re8SCE5bhB2q5R2LFKZo-76" edge="1"><mxGeometry x="0.1636" y="20" width="50" height="50" relative="1" as="geometry"><mxPoint x="-744" y="2768.8" as="sourcePoint"/><mxPoint x="-702" y="2771.5" as="targetPoint"/><mxPoint as="offset"/></mxGeometry></mxCell><mxCell id="re8SCE5bhB2q5R2LFKZo-76" value="Day X OFF" style="ellipse;whiteSpace=wrap;html=1;fontSize=20;strokeColor=#FF0000;" parent="1" vertex="1"><mxGeometry x="-1004" y="2779.2500000000005" width="120" height="80" as="geometry"/></mxCell><mxCell id="re8SCE5bhB2q5R2LFKZo-77" value="" style="endArrow=none;html=1;fillColor=#0050ef;fontSize=20;exitX=1;exitY=0.5;exitDx=0;exitDy=0;entryX=0;entryY=0.5;entryDx=0;entryDy=0;startArrow=none;strokeColor=#000000;" parent="1" source="re8SCE5bhB2q5R2LFKZo-82" target="re8SCE5bhB2q5R2LFKZo-78" edge="1"><mxGeometry x="0.8" y="18" width="50" height="50" relative="1" as="geometry"><mxPoint x="-854" y="2819.25" as="sourcePoint"/><mxPoint x="-624" y="2839.25" as="targetPoint"/><mxPoint as="offset"/></mxGeometry></mxCell><mxCell id="re8SCE5bhB2q5R2LFKZo-78" value="Emp_Cons_OFF" style="ellipse;whiteSpace=wrap;html=1;fontSize=20;strokeColor=#000000;" parent="1" vertex="1"><mxGeometry x="-597" y="2773.5" width="165" height="90" as="geometry"/></mxCell><mxCell id="re8SCE5bhB2q5R2LFKZo-79" value="" style="ellipse;whiteSpace=wrap;html=1;aspect=fixed;fontColor=#000000;fontSize=28;" parent="1" vertex="1"><mxGeometry x="-857" y="2707.25" width="43" height="43" as="geometry"/></mxCell><mxCell id="re8SCE5bhB2q5R2LFKZo-80" value="" style="ellipse;whiteSpace=wrap;html=1;aspect=fixed;fontSize=21;strokeColor=#000000;" parent="1" vertex="1"><mxGeometry x="-954" y="2680.75" width="20" height="20" as="geometry"/></mxCell><mxCell id="re8SCE5bhB2q5R2LFKZo-81" value="" style="endArrow=none;html=1;entryX=0.5;entryY=0;entryDx=0;entryDy=0;exitX=0.5;exitY=1;exitDx=0;exitDy=0;fillColor=#0050ef;fontSize=20;fontColor=#66CC00;strokeColor=#FF0000;" parent="1" source="re8SCE5bhB2q5R2LFKZo-74" target="re8SCE5bhB2q5R2LFKZo-80" edge="1"><mxGeometry x="0.1636" y="20" width="50" height="50" relative="1" as="geometry"><mxPoint x="-944" y="2599.25" as="sourcePoint"/><mxPoint x="-944" y="2779.25" as="targetPoint"/><mxPoint as="offset"/></mxGeometry></mxCell><mxCell id="re8SCE5bhB2q5R2LFKZo-82" value="" style="ellipse;whiteSpace=wrap;html=1;aspect=fixed;fontSize=21;strokeColor=#000000;" parent="1" vertex="1"><mxGeometry x="-748" y="2809.25" width="20" height="20" as="geometry"/></mxCell><mxCell id="re8SCE5bhB2q5R2LFKZo-83" value="" style="endArrow=none;html=1;fillColor=#0050ef;fontSize=20;exitX=1;exitY=0.5;exitDx=0;exitDy=0;entryX=0;entryY=0.5;entryDx=0;entryDy=0;" parent="1" source="re8SCE5bhB2q5R2LFKZo-76" target="re8SCE5bhB2q5R2LFKZo-82" edge="1"><mxGeometry x="0.8" y="18" width="50" height="50" relative="1" as="geometry"><mxPoint x="-884" y="2819.25" as="sourcePoint"/><mxPoint x="-594" y="2819.25" as="targetPoint"/><mxPoint as="offset"/></mxGeometry></mxCell><mxCell id="re8SCE5bhB2q5R2LFKZo-84" value="" style="ellipse;whiteSpace=wrap;html=1;aspect=fixed;fontSize=21;strokeColor=#000000;" parent="1" vertex="1"><mxGeometry x="-748" y="2676.75" width="20" height="20" as="geometry"/></mxCell><mxCell id="re8SCE5bhB2q5R2LFKZo-85" value="" style="endArrow=none;html=1;fontSize=20;fontColor=#66CC00;entryX=0;entryY=0;entryDx=0;entryDy=0;exitX=1;exitY=1;exitDx=0;exitDy=0;strokeColor=#000000;" parent="1" source="re8SCE5bhB2q5R2LFKZo-74" target="re8SCE5bhB2q5R2LFKZo-84" edge="1"><mxGeometry x="-0.4319" y="-14" width="50" height="50" relative="1" as="geometry"><mxPoint x="-885.5" y="2597.75" as="sourcePoint"/><mxPoint x="-574.4264068711927" y="2790.965728752538" as="targetPoint"/><mxPoint as="offset"/></mxGeometry></mxCell><mxCell id="re8SCE5bhB2q5R2LFKZo-86" value="" style="endArrow=none;html=1;strokeColor=#000000;entryX=1;entryY=0.5;entryDx=0;entryDy=0;exitX=0;exitY=0.5;exitDx=0;exitDy=0;" parent="1" source="re8SCE5bhB2q5R2LFKZo-79" target="re8SCE5bhB2q5R2LFKZo-80" edge="1"><mxGeometry width="50" height="50" relative="1" as="geometry"><mxPoint x="-1014" y="2779.25" as="sourcePoint"/><mxPoint x="-964" y="2729.25" as="targetPoint"/></mxGeometry></mxCell><mxCell id="re8SCE5bhB2q5R2LFKZo-87" value="2:DEL ; 2:DEL" style="endArrow=none;html=1;strokeColor=#000000;entryX=0;entryY=1;entryDx=0;entryDy=0;exitX=1;exitY=0;exitDx=0;exitDy=0;fontSize=20;" parent="1" source="re8SCE5bhB2q5R2LFKZo-79" target="re8SCE5bhB2q5R2LFKZo-84" edge="1"><mxGeometry x="1" y="-84" width="50" height="50" relative="1" as="geometry"><mxPoint x="-1014" y="2779.25" as="sourcePoint"/><mxPoint x="-964" y="2729.25" as="targetPoint"/><mxPoint x="14" y="-5" as="offset"/></mxGeometry></mxCell><mxCell id="re8SCE5bhB2q5R2LFKZo-88" value="" style="endArrow=none;html=1;entryX=1;entryY=1;entryDx=0;entryDy=0;exitX=0;exitY=0;exitDx=0;exitDy=0;" parent="1" source="re8SCE5bhB2q5R2LFKZo-82" target="re8SCE5bhB2q5R2LFKZo-79" edge="1"><mxGeometry width="50" height="50" relative="1" as="geometry"><mxPoint x="-1014" y="2779.25" as="sourcePoint"/><mxPoint x="-964" y="2729.25" as="targetPoint"/></mxGeometry></mxCell><mxCell id="re8SCE5bhB2q5R2LFKZo-89" value="" style="endArrow=none;html=1;fontSize=20;fontColor=#66CC00;exitX=1;exitY=1;exitDx=0;exitDy=0;entryX=0;entryY=0;entryDx=0;entryDy=0;startArrow=none;strokeColor=#FF0000;" parent="1" source="re8SCE5bhB2q5R2LFKZo-100" target="62" edge="1"><mxGeometry x="-0.4319" y="-14" width="50" height="50" relative="1" as="geometry"><mxPoint x="-886.8235931287836" y="2174.9142712474777" as="sourcePoint"/><mxPoint x="-555.2727673068857" y="2373.973137046046" as="targetPoint"/><mxPoint as="offset"/></mxGeometry></mxCell><mxCell id="re8SCE5bhB2q5R2LFKZo-90" value="[_] day X ON, [_] day X OFF" style="ellipse;whiteSpace=wrap;html=1;fontSize=20;strokeColor=#FF0000;" parent="1" vertex="1"><mxGeometry x="-1003.75" y="2095.13" width="149" height="94.75" as="geometry"/></mxCell><mxCell id="re8SCE5bhB2q5R2LFKZo-91" value="" style="endArrow=none;html=1;entryX=0.5;entryY=0;entryDx=0;entryDy=0;exitX=0.5;exitY=1;exitDx=0;exitDy=0;fillColor=#0050ef;fontSize=20;fontColor=#66CC00;startArrow=none;strokeColor=#FF0000;" parent="1" source="re8SCE5bhB2q5R2LFKZo-96" target="re8SCE5bhB2q5R2LFKZo-92" edge="1"><mxGeometry x="0.1636" y="20" width="50" height="50" relative="1" as="geometry"><mxPoint x="-729.25" y="2356.1800000000003" as="sourcePoint"/><mxPoint x="-687.25" y="2358.88" as="targetPoint"/><mxPoint as="offset"/></mxGeometry></mxCell><mxCell id="re8SCE5bhB2q5R2LFKZo-92" value="EDGE" style="ellipse;whiteSpace=wrap;html=1;fontSize=20;strokeColor=#FF0000;" parent="1" vertex="1"><mxGeometry x="-989.25" y="2366.63" width="120" height="80" as="geometry"/></mxCell><mxCell id="re8SCE5bhB2q5R2LFKZo-93" value="" style="endArrow=none;html=1;fillColor=#0050ef;fontSize=20;exitX=1;exitY=0.5;exitDx=0;exitDy=0;entryX=0;entryY=0.5;entryDx=0;entryDy=0;startArrow=none;strokeColor=#FF0000;" parent="1" source="re8SCE5bhB2q5R2LFKZo-98" target="62" edge="1"><mxGeometry x="0.8" y="18" width="50" height="50" relative="1" as="geometry"><mxPoint x="-839.25" y="2406.63" as="sourcePoint"/><mxPoint x="-582.25" y="2405.88" as="targetPoint"/><mxPoint as="offset"/></mxGeometry></mxCell><mxCell id="re8SCE5bhB2q5R2LFKZo-105" style="rounded=0;orthogonalLoop=1;jettySize=auto;html=1;exitX=0.947;exitY=0.337;exitDx=0;exitDy=0;strokeColor=#FF0000;fontSize=20;fontColor=#000000;endArrow=none;endFill=0;entryX=0;entryY=1;entryDx=0;entryDy=0;exitPerimeter=0;" parent="1" source="re8SCE5bhB2q5R2LFKZo-95" target="re8SCE5bhB2q5R2LFKZo-100" edge="1"><mxGeometry relative="1" as="geometry"><mxPoint x="-739.25" y="2284.13" as="targetPoint"/></mxGeometry></mxCell><mxCell id="re8SCE5bhB2q5R2LFKZo-95" value="" style="ellipse;whiteSpace=wrap;html=1;aspect=fixed;fontColor=#000000;fontSize=28;" parent="1" vertex="1"><mxGeometry x="-842.25" y="2294.63" width="43" height="43" as="geometry"/></mxCell><mxCell id="re8SCE5bhB2q5R2LFKZo-96" value="" style="ellipse;whiteSpace=wrap;html=1;aspect=fixed;fontSize=21;strokeColor=#000000;" parent="1" vertex="1"><mxGeometry x="-939.25" y="2268.13" width="20" height="20" as="geometry"/></mxCell><mxCell id="re8SCE5bhB2q5R2LFKZo-97" value="" style="endArrow=none;html=1;entryX=0.5;entryY=0;entryDx=0;entryDy=0;exitX=0.5;exitY=1;exitDx=0;exitDy=0;fillColor=#0050ef;fontSize=20;fontColor=#66CC00;strokeColor=#FF0000;" parent="1" source="re8SCE5bhB2q5R2LFKZo-90" target="re8SCE5bhB2q5R2LFKZo-96" edge="1"><mxGeometry x="0.1636" y="20" width="50" height="50" relative="1" as="geometry"><mxPoint x="-929.25" y="2186.63" as="sourcePoint"/><mxPoint x="-929.25" y="2366.63" as="targetPoint"/><mxPoint as="offset"/></mxGeometry></mxCell><mxCell id="re8SCE5bhB2q5R2LFKZo-98" value="" style="ellipse;whiteSpace=wrap;html=1;aspect=fixed;fontSize=21;strokeColor=#000000;" parent="1" vertex="1"><mxGeometry x="-733.25" y="2396.63" width="20" height="20" as="geometry"/></mxCell><mxCell id="re8SCE5bhB2q5R2LFKZo-99" value="" style="endArrow=none;html=1;fillColor=#0050ef;fontSize=20;exitX=1;exitY=0.5;exitDx=0;exitDy=0;entryX=0;entryY=0.5;entryDx=0;entryDy=0;" parent="1" source="re8SCE5bhB2q5R2LFKZo-92" target="re8SCE5bhB2q5R2LFKZo-98" edge="1"><mxGeometry x="0.8" y="18" width="50" height="50" relative="1" as="geometry"><mxPoint x="-869.25" y="2406.63" as="sourcePoint"/><mxPoint x="-579.25" y="2406.63" as="targetPoint"/><mxPoint as="offset"/></mxGeometry></mxCell><mxCell id="re8SCE5bhB2q5R2LFKZo-100" value="" style="ellipse;whiteSpace=wrap;html=1;aspect=fixed;fontSize=21;strokeColor=#000000;" parent="1" vertex="1"><mxGeometry x="-733.25" y="2264.13" width="20" height="20" as="geometry"/></mxCell><mxCell id="re8SCE5bhB2q5R2LFKZo-101" value="" style="endArrow=none;html=1;fontSize=20;fontColor=#66CC00;entryX=0;entryY=0;entryDx=0;entryDy=0;exitX=1;exitY=1;exitDx=0;exitDy=0;strokeColor=#000000;" parent="1" source="re8SCE5bhB2q5R2LFKZo-90" target="re8SCE5bhB2q5R2LFKZo-100" edge="1"><mxGeometry x="-0.4319" y="-14" width="50" height="50" relative="1" as="geometry"><mxPoint x="-870.75" y="2185.13" as="sourcePoint"/><mxPoint x="-559.6764068711927" y="2378.345728752538" as="targetPoint"/><mxPoint as="offset"/></mxGeometry></mxCell><mxCell id="re8SCE5bhB2q5R2LFKZo-102" value="" style="endArrow=none;html=1;strokeColor=#000000;entryX=1;entryY=0.5;entryDx=0;entryDy=0;exitX=0;exitY=0.5;exitDx=0;exitDy=0;" parent="1" source="re8SCE5bhB2q5R2LFKZo-95" target="re8SCE5bhB2q5R2LFKZo-96" edge="1"><mxGeometry width="50" height="50" relative="1" as="geometry"><mxPoint x="-999.25" y="2366.63" as="sourcePoint"/><mxPoint x="-949.25" y="2316.63" as="targetPoint"/></mxGeometry></mxCell><mxCell id="re8SCE5bhB2q5R2LFKZo-104" value="" style="endArrow=none;html=1;entryX=1;entryY=1;entryDx=0;entryDy=0;exitX=0;exitY=0;exitDx=0;exitDy=0;strokeColor=#FF0000;" parent="1" source="re8SCE5bhB2q5R2LFKZo-98" target="re8SCE5bhB2q5R2LFKZo-95" edge="1"><mxGeometry width="50" height="50" relative="1" as="geometry"><mxPoint x="-999.25" y="2366.63" as="sourcePoint"/><mxPoint x="-949.25" y="2316.63" as="targetPoint"/></mxGeometry></mxCell><mxCell id="re8SCE5bhB2q5R2LFKZo-106" value="Emp_Cons_ON" style="ellipse;whiteSpace=wrap;html=1;fontSize=20;strokeColor=#000000;" parent="1" vertex="1"><mxGeometry x="-869.25" y="1276.0600000000002" width="190" height="80" as="geometry"/></mxCell><mxCell id="re8SCE5bhB2q5R2LFKZo-107" value="" style="endArrow=none;html=1;entryX=0.5;entryY=0;entryDx=0;entryDy=0;fillColor=#60a917;fontSize=20;fontColor=#FF0000;exitX=0.5;exitY=1;exitDx=0;exitDy=0;startArrow=none;strokeColor=#000000;" parent="1" source="re8SCE5bhB2q5R2LFKZo-109" target="re8SCE5bhB2q5R2LFKZo-108" edge="1"><mxGeometry x="0.5182" y="3" width="50" height="50" relative="1" as="geometry"><mxPoint x="-734.25" y="1366.0600000000002" as="sourcePoint"/><mxPoint x="-539.25" y="1413.3100000000002" as="targetPoint"/><mxPoint as="offset"/></mxGeometry></mxCell><mxCell id="re8SCE5bhB2q5R2LFKZo-108" value="Day X ON" style="ellipse;whiteSpace=wrap;html=1;fontSize=20;strokeColor=#FF0000;" parent="1" vertex="1"><mxGeometry x="-840.5" y="1522.9400000000003" width="132.5" height="68.75" as="geometry"/></mxCell><mxCell id="re8SCE5bhB2q5R2LFKZo-109" value="" style="ellipse;whiteSpace=wrap;html=1;aspect=fixed;fontSize=21;strokeColor=#000000;" parent="1" vertex="1"><mxGeometry x="-784.25" y="1426.0600000000002" width="20" height="20" as="geometry"/></mxCell><mxCell id="re8SCE5bhB2q5R2LFKZo-110" value="; {2}:DEL" style="endArrow=none;html=1;entryX=0.5;entryY=0;entryDx=0;entryDy=0;fillColor=#60a917;fontSize=20;fontColor=#000000;exitX=0.5;exitY=1;exitDx=0;exitDy=0;strokeColor=#000000;" parent="1" source="re8SCE5bhB2q5R2LFKZo-106" target="re8SCE5bhB2q5R2LFKZo-109" edge="1"><mxGeometry x="0.1429" y="45" width="50" height="50" relative="1" as="geometry"><mxPoint x="-774.25" y="1356.0600000000002" as="sourcePoint"/><mxPoint x="-774.25" y="1516.0600000000002" as="targetPoint"/><mxPoint as="offset"/></mxGeometry></mxCell><mxCell id="re8SCE5bhB2q5R2LFKZo-116" value="Emp_Cons_ON, Emp_Cons_OFF" style="ellipse;whiteSpace=wrap;html=1;fontSize=20;strokeColor=#000000;" parent="1" vertex="1"><mxGeometry x="-641.75" y="1261.67" width="230" height="103.05" as="geometry"/></mxCell><mxCell id="re8SCE5bhB2q5R2LFKZo-117" value="" style="endArrow=none;html=1;entryX=0.5;entryY=0;entryDx=0;entryDy=0;fillColor=#60a917;fontSize=20;fontColor=#FF0000;exitX=0.5;exitY=1;exitDx=0;exitDy=0;startArrow=none;strokeColor=#000000;" parent="1" source="re8SCE5bhB2q5R2LFKZo-119" target="re8SCE5bhB2q5R2LFKZo-118" edge="1"><mxGeometry x="0.5182" y="3" width="50" height="50" relative="1" as="geometry"><mxPoint x="-486.75" y="1363.96" as="sourcePoint"/><mxPoint x="-291.75" y="1411.21" as="targetPoint"/><mxPoint as="offset"/></mxGeometry></mxCell><mxCell id="re8SCE5bhB2q5R2LFKZo-118" value="END, NOT_END" style="ellipse;whiteSpace=wrap;html=1;fontSize=20;strokeColor=#FF0000;" parent="1" vertex="1"><mxGeometry x="-593" y="1520.8400000000001" width="132.5" height="68.75" as="geometry"/></mxCell><mxCell id="re8SCE5bhB2q5R2LFKZo-119" value="" style="ellipse;whiteSpace=wrap;html=1;aspect=fixed;fontSize=21;strokeColor=#000000;" parent="1" vertex="1"><mxGeometry x="-536.75" y="1423.96" width="20" height="20" as="geometry"/></mxCell><mxCell id="re8SCE5bhB2q5R2LFKZo-120" value="1:DEL ; 1:DEL" style="endArrow=none;html=1;entryX=0.5;entryY=0;entryDx=0;entryDy=0;fillColor=#60a917;fontSize=20;fontColor=#000000;exitX=0.5;exitY=1;exitDx=0;exitDy=0;strokeColor=#000000;" parent="1" source="re8SCE5bhB2q5R2LFKZo-116" target="re8SCE5bhB2q5R2LFKZo-119" edge="1"><mxGeometry x="0.0803" y="75" width="50" height="50" relative="1" as="geometry"><mxPoint x="-526.75" y="1353.96" as="sourcePoint"/><mxPoint x="-526.75" y="1513.96" as="targetPoint"/><mxPoint as="offset"/></mxGeometry></mxCell><mxCell id="re8SCE5bhB2q5R2LFKZo-138" value="" style="endArrow=none;html=1;fontSize=20;fontColor=#66CC00;exitX=1;exitY=1;exitDx=0;exitDy=0;entryX=0;entryY=0;entryDx=0;entryDy=0;startArrow=none;strokeColor=#FF0000;" parent="1" source="re8SCE5bhB2q5R2LFKZo-149" target="re8SCE5bhB2q5R2LFKZo-143" edge="1"><mxGeometry x="-0.4319" y="-14" width="50" height="50" relative="1" as="geometry"><mxPoint x="-1496.5735931287836" y="3004.3442712474775" as="sourcePoint"/><mxPoint x="-1259" y="3196.06" as="targetPoint"/><mxPoint as="offset"/></mxGeometry></mxCell><mxCell id="re8SCE5bhB2q5R2LFKZo-139" value="[0, -1] day X ON, [0, -1] day X OFF" style="ellipse;whiteSpace=wrap;html=1;fontSize=20;strokeColor=#FF0000;" parent="1" vertex="1"><mxGeometry x="-1624" y="2932.19" width="170" height="91.5" as="geometry"/></mxCell><mxCell id="re8SCE5bhB2q5R2LFKZo-140" value="" style="endArrow=none;html=1;exitX=0.5;exitY=1;exitDx=0;exitDy=0;fillColor=#0050ef;fontSize=20;fontColor=#66CC00;startArrow=none;entryX=0.5;entryY=0;entryDx=0;entryDy=0;" parent="1" source="re8SCE5bhB2q5R2LFKZo-145" target="64" edge="1"><mxGeometry x="0.1636" y="20" width="50" height="50" relative="1" as="geometry"><mxPoint x="-1339" y="3185.61" as="sourcePoint"/><mxPoint x="-1576" y="3160" as="targetPoint"/><mxPoint as="offset"/></mxGeometry></mxCell><mxCell id="re8SCE5bhB2q5R2LFKZo-142" value="" style="endArrow=none;html=1;fillColor=#0050ef;fontSize=20;exitX=1;exitY=0.5;exitDx=0;exitDy=0;entryX=0;entryY=0.5;entryDx=0;entryDy=0;startArrow=none;strokeColor=#000000;" parent="1" source="re8SCE5bhB2q5R2LFKZo-147" target="re8SCE5bhB2q5R2LFKZo-143" edge="1"><mxGeometry x="0.8" y="18" width="50" height="50" relative="1" as="geometry"><mxPoint x="-1449" y="3236.06" as="sourcePoint"/><mxPoint x="-1219" y="3256.06" as="targetPoint"/><mxPoint as="offset"/></mxGeometry></mxCell><mxCell id="re8SCE5bhB2q5R2LFKZo-143" value="END" style="ellipse;whiteSpace=wrap;html=1;fontSize=20;strokeColor=#FF0000;" parent="1" vertex="1"><mxGeometry x="-1187" y="3201.06" width="138" height="70" as="geometry"/></mxCell><mxCell id="re8SCE5bhB2q5R2LFKZo-144" value="" style="ellipse;whiteSpace=wrap;html=1;aspect=fixed;fontColor=#000000;fontSize=28;" parent="1" vertex="1"><mxGeometry x="-1452" y="3124.06" width="43" height="43" as="geometry"/></mxCell><mxCell id="re8SCE5bhB2q5R2LFKZo-145" value="" style="ellipse;whiteSpace=wrap;html=1;aspect=fixed;fontSize=21;strokeColor=#000000;" parent="1" vertex="1"><mxGeometry x="-1549" y="3097.56" width="20" height="20" as="geometry"/></mxCell><mxCell id="re8SCE5bhB2q5R2LFKZo-146" value="" style="endArrow=none;html=1;entryX=0.5;entryY=0;entryDx=0;entryDy=0;exitX=0.5;exitY=1;exitDx=0;exitDy=0;fillColor=#0050ef;fontSize=20;fontColor=#66CC00;" parent="1" source="re8SCE5bhB2q5R2LFKZo-139" target="re8SCE5bhB2q5R2LFKZo-145" edge="1"><mxGeometry x="0.1636" y="20" width="50" height="50" relative="1" as="geometry"><mxPoint x="-1539" y="3016.06" as="sourcePoint"/><mxPoint x="-1539" y="3196.06" as="targetPoint"/><mxPoint as="offset"/></mxGeometry></mxCell><mxCell id="re8SCE5bhB2q5R2LFKZo-147" value="" style="ellipse;whiteSpace=wrap;html=1;aspect=fixed;fontSize=21;strokeColor=#000000;" parent="1" vertex="1"><mxGeometry x="-1343" y="3227.56" width="20" height="20" as="geometry"/></mxCell><mxCell id="re8SCE5bhB2q5R2LFKZo-148" value="" style="endArrow=none;html=1;fillColor=#0050ef;fontSize=20;exitX=1;exitY=0.5;exitDx=0;exitDy=0;entryX=0;entryY=0.5;entryDx=0;entryDy=0;strokeColor=#000000;" parent="1" source="64" target="re8SCE5bhB2q5R2LFKZo-147" edge="1"><mxGeometry x="0.8" y="18" width="50" height="50" relative="1" as="geometry"><mxPoint x="-1451.5" y="3238.1300000000006" as="sourcePoint"/><mxPoint x="-1189" y="3236.06" as="targetPoint"/><mxPoint as="offset"/></mxGeometry></mxCell><mxCell id="re8SCE5bhB2q5R2LFKZo-149" value="" style="ellipse;whiteSpace=wrap;html=1;aspect=fixed;fontSize=21;strokeColor=#000000;" parent="1" vertex="1"><mxGeometry x="-1343" y="3093.56" width="20" height="20" as="geometry"/></mxCell><mxCell id="re8SCE5bhB2q5R2LFKZo-150" value="" style="endArrow=none;html=1;fontSize=20;fontColor=#66CC00;entryX=0;entryY=0;entryDx=0;entryDy=0;exitX=1;exitY=1;exitDx=0;exitDy=0;strokeColor=#FF0000;" parent="1" source="re8SCE5bhB2q5R2LFKZo-139" target="re8SCE5bhB2q5R2LFKZo-149" edge="1"><mxGeometry x="-0.4319" y="-14" width="50" height="50" relative="1" as="geometry"><mxPoint x="-1480.5" y="3014.56" as="sourcePoint"/><mxPoint x="-1169.4264068711927" y="3207.775728752538" as="targetPoint"/><mxPoint as="offset"/></mxGeometry></mxCell><mxCell id="re8SCE5bhB2q5R2LFKZo-151" value="" style="endArrow=none;html=1;strokeColor=#FF0000;entryX=1;entryY=0.5;entryDx=0;entryDy=0;exitX=0;exitY=0.5;exitDx=0;exitDy=0;" parent="1" source="re8SCE5bhB2q5R2LFKZo-144" target="re8SCE5bhB2q5R2LFKZo-145" edge="1"><mxGeometry width="50" height="50" relative="1" as="geometry"><mxPoint x="-1609" y="3196.06" as="sourcePoint"/><mxPoint x="-1559" y="3146.06" as="targetPoint"/></mxGeometry></mxCell><mxCell id="re8SCE5bhB2q5R2LFKZo-153" value="" style="endArrow=none;html=1;entryX=1;entryY=1;entryDx=0;entryDy=0;exitX=0;exitY=0;exitDx=0;exitDy=0;" parent="1" source="re8SCE5bhB2q5R2LFKZo-147" target="re8SCE5bhB2q5R2LFKZo-144" edge="1"><mxGeometry width="50" height="50" relative="1" as="geometry"><mxPoint x="-1609" y="3196.06" as="sourcePoint"/><mxPoint x="-1559" y="3146.06" as="targetPoint"/></mxGeometry></mxCell><mxCell id="re8SCE5bhB2q5R2LFKZo-155" value="1:DEL ;" style="endArrow=none;html=1;strokeColor=#000000;exitX=1;exitY=0.5;exitDx=0;exitDy=0;fontSize=20;entryX=0;entryY=1;entryDx=0;entryDy=0;" parent="1" source="re8SCE5bhB2q5R2LFKZo-144" target="re8SCE5bhB2q5R2LFKZo-149" edge="1"><mxGeometry x="0.4607" y="-88" width="50" height="50" relative="1" as="geometry"><mxPoint x="-1418.2972042044535" y="3125.5572042044546" as="sourcePoint"/><mxPoint x="-1359" y="3098.31" as="targetPoint"/><mxPoint as="offset"/></mxGeometry></mxCell><mxCell id="re8SCE5bhB2q5R2LFKZo-157" value="" style="endArrow=none;html=1;fontSize=20;fontColor=#66CC00;exitX=1;exitY=1;exitDx=0;exitDy=0;entryX=0;entryY=0;entryDx=0;entryDy=0;startArrow=none;strokeColor=#FF0000;" parent="1" source="re8SCE5bhB2q5R2LFKZo-168" target="re8SCE5bhB2q5R2LFKZo-162" edge="1"><mxGeometry x="-0.4319" y="-14" width="50" height="50" relative="1" as="geometry"><mxPoint x="-831.5735931287836" y="2995.4642712474774" as="sourcePoint"/><mxPoint x="-594" y="3187.1800000000003" as="targetPoint"/><mxPoint as="offset"/></mxGeometry></mxCell><mxCell id="re8SCE5bhB2q5R2LFKZo-158" value="Day X ON" style="ellipse;whiteSpace=wrap;html=1;fontSize=20;strokeColor=#FF0000;" parent="1" vertex="1"><mxGeometry x="-937.3800000000001" y="2936.2599999999998" width="126.75" height="78.98" as="geometry"/></mxCell><mxCell id="re8SCE5bhB2q5R2LFKZo-159" value="" style="endArrow=none;html=1;entryX=0.5;entryY=0;entryDx=0;entryDy=0;exitX=0.5;exitY=1;exitDx=0;exitDy=0;fillColor=#0050ef;fontSize=20;fontColor=#66CC00;startArrow=none;" parent="1" source="re8SCE5bhB2q5R2LFKZo-164" target="re8SCE5bhB2q5R2LFKZo-160" edge="1"><mxGeometry x="0.1636" y="20" width="50" height="50" relative="1" as="geometry"><mxPoint x="-674" y="3176.7299999999996" as="sourcePoint"/><mxPoint x="-632" y="3179.4300000000003" as="targetPoint"/><mxPoint as="offset"/></mxGeometry></mxCell><mxCell id="re8SCE5bhB2q5R2LFKZo-160" value="Emp_Cons_ON" style="ellipse;whiteSpace=wrap;html=1;fontSize=20;strokeColor=#000000;" parent="1" vertex="1"><mxGeometry x="-961.5" y="3189.25" width="175" height="80" as="geometry"/></mxCell><mxCell id="re8SCE5bhB2q5R2LFKZo-161" value="" style="endArrow=none;html=1;fillColor=#0050ef;fontSize=20;exitX=1;exitY=0.5;exitDx=0;exitDy=0;entryX=0;entryY=0.5;entryDx=0;entryDy=0;startArrow=none;strokeColor=#000000;" parent="1" source="re8SCE5bhB2q5R2LFKZo-166" target="re8SCE5bhB2q5R2LFKZo-162" edge="1"><mxGeometry x="0.8" y="18" width="50" height="50" relative="1" as="geometry"><mxPoint x="-784" y="3227.1800000000003" as="sourcePoint"/><mxPoint x="-554" y="3247.1800000000003" as="targetPoint"/><mxPoint as="offset"/></mxGeometry></mxCell><mxCell id="re8SCE5bhB2q5R2LFKZo-162" value="NOT_END" style="ellipse;whiteSpace=wrap;html=1;fontSize=20;strokeColor=#FF0000;" parent="1" vertex="1"><mxGeometry x="-510.5" y="3193.6800000000003" width="129.5" height="70" as="geometry"/></mxCell><mxCell id="re8SCE5bhB2q5R2LFKZo-163" value="" style="ellipse;whiteSpace=wrap;html=1;aspect=fixed;fontColor=#000000;fontSize=28;" parent="1" vertex="1"><mxGeometry x="-787" y="3115.1800000000003" width="43" height="43" as="geometry"/></mxCell><mxCell id="re8SCE5bhB2q5R2LFKZo-164" value="" style="ellipse;whiteSpace=wrap;html=1;aspect=fixed;fontSize=21;strokeColor=#000000;" parent="1" vertex="1"><mxGeometry x="-884" y="3088.6800000000003" width="20" height="20" as="geometry"/></mxCell><mxCell id="re8SCE5bhB2q5R2LFKZo-165" value="" style="endArrow=none;html=1;entryX=0.5;entryY=0;entryDx=0;entryDy=0;exitX=0.5;exitY=1;exitDx=0;exitDy=0;fillColor=#0050ef;fontSize=20;fontColor=#66CC00;" parent="1" source="re8SCE5bhB2q5R2LFKZo-158" target="re8SCE5bhB2q5R2LFKZo-164" edge="1"><mxGeometry x="0.1636" y="20" width="50" height="50" relative="1" as="geometry"><mxPoint x="-874" y="3007.1800000000003" as="sourcePoint"/><mxPoint x="-874" y="3187.1800000000003" as="targetPoint"/><mxPoint as="offset"/></mxGeometry></mxCell><mxCell id="re8SCE5bhB2q5R2LFKZo-166" value="" style="ellipse;whiteSpace=wrap;html=1;aspect=fixed;fontSize=21;strokeColor=#000000;" parent="1" vertex="1"><mxGeometry x="-678" y="3218.6800000000003" width="20" height="20" as="geometry"/></mxCell><mxCell id="re8SCE5bhB2q5R2LFKZo-167" value="" style="endArrow=none;html=1;fillColor=#0050ef;fontSize=20;exitX=1;exitY=0.5;exitDx=0;exitDy=0;entryX=0;entryY=0.5;entryDx=0;entryDy=0;strokeColor=#000000;" parent="1" source="re8SCE5bhB2q5R2LFKZo-160" target="re8SCE5bhB2q5R2LFKZo-166" edge="1"><mxGeometry x="0.8" y="18" width="50" height="50" relative="1" as="geometry"><mxPoint x="-814" y="3227.1800000000003" as="sourcePoint"/><mxPoint x="-524" y="3227.1800000000003" as="targetPoint"/><mxPoint as="offset"/></mxGeometry></mxCell><mxCell id="re8SCE5bhB2q5R2LFKZo-168" value="" style="ellipse;whiteSpace=wrap;html=1;aspect=fixed;fontSize=21;strokeColor=#000000;" parent="1" vertex="1"><mxGeometry x="-678" y="3084.6800000000003" width="20" height="20" as="geometry"/></mxCell><mxCell id="re8SCE5bhB2q5R2LFKZo-169" value="" style="endArrow=none;html=1;fontSize=20;fontColor=#66CC00;entryX=0;entryY=0;entryDx=0;entryDy=0;exitX=1;exitY=1;exitDx=0;exitDy=0;strokeColor=#FF0000;" parent="1" source="re8SCE5bhB2q5R2LFKZo-158" target="re8SCE5bhB2q5R2LFKZo-168" edge="1"><mxGeometry x="-0.4319" y="-14" width="50" height="50" relative="1" as="geometry"><mxPoint x="-815.5" y="3005.6800000000003" as="sourcePoint"/><mxPoint x="-504.42640687119274" y="3198.8957287525373" as="targetPoint"/><mxPoint as="offset"/></mxGeometry></mxCell><mxCell id="re8SCE5bhB2q5R2LFKZo-170" value="" style="endArrow=none;html=1;strokeColor=#000000;entryX=1;entryY=0.5;entryDx=0;entryDy=0;exitX=0;exitY=0.5;exitDx=0;exitDy=0;fontColor=#000000;" parent="1" source="re8SCE5bhB2q5R2LFKZo-163" target="re8SCE5bhB2q5R2LFKZo-164" edge="1"><mxGeometry width="50" height="50" relative="1" as="geometry"><mxPoint x="-944" y="3187.1800000000003" as="sourcePoint"/><mxPoint x="-894" y="3137.1800000000003" as="targetPoint"/></mxGeometry></mxCell><mxCell id="re8SCE5bhB2q5R2LFKZo-171" value="" style="endArrow=none;html=1;entryX=1;entryY=1;entryDx=0;entryDy=0;exitX=0;exitY=0;exitDx=0;exitDy=0;" parent="1" source="re8SCE5bhB2q5R2LFKZo-166" target="re8SCE5bhB2q5R2LFKZo-163" edge="1"><mxGeometry width="50" height="50" relative="1" as="geometry"><mxPoint x="-944" y="3187.1800000000003" as="sourcePoint"/><mxPoint x="-894" y="3137.1800000000003" as="targetPoint"/></mxGeometry></mxCell><mxCell id="re8SCE5bhB2q5R2LFKZo-172" value="{11}:DEL ;" style="endArrow=none;html=1;strokeColor=#000000;exitX=1;exitY=0.5;exitDx=0;exitDy=0;fontSize=20;entryX=0;entryY=1;entryDx=0;entryDy=0;" parent="1" source="re8SCE5bhB2q5R2LFKZo-163" target="re8SCE5bhB2q5R2LFKZo-168" edge="1"><mxGeometry x="0.7649" y="-90" width="50" height="50" relative="1" as="geometry"><mxPoint x="-753.2972042044535" y="3116.677204204454" as="sourcePoint"/><mxPoint x="-694" y="3089.4300000000003" as="targetPoint"/><mxPoint as="offset"/></mxGeometry></mxCell><mxCell id="re8SCE5bhB2q5R2LFKZo-173" value="" style="endArrow=none;html=1;fontSize=20;fontColor=#66CC00;exitX=1;exitY=1;exitDx=0;exitDy=0;entryX=0;entryY=0;entryDx=0;entryDy=0;startArrow=none;strokeColor=#FF0000;" parent="1" source="re8SCE5bhB2q5R2LFKZo-184" target="re8SCE5bhB2q5R2LFKZo-178" edge="1"><mxGeometry x="-0.4319" y="-14" width="50" height="50" relative="1" as="geometry"><mxPoint x="-165.5735931287836" y="2991.3942712474773" as="sourcePoint"/><mxPoint x="72" y="3183.1099999999997" as="targetPoint"/><mxPoint as="offset"/></mxGeometry></mxCell><mxCell id="re8SCE5bhB2q5R2LFKZo-174" value="Day X OFF" style="ellipse;whiteSpace=wrap;html=1;fontSize=20;strokeColor=#FF0000;" parent="1" vertex="1"><mxGeometry x="-271.3800000000001" y="2932.1899999999996" width="126.75" height="78.98" as="geometry"/></mxCell><mxCell id="re8SCE5bhB2q5R2LFKZo-175" value="" style="endArrow=none;html=1;entryX=0.5;entryY=0;entryDx=0;entryDy=0;exitX=0.5;exitY=1;exitDx=0;exitDy=0;fillColor=#0050ef;fontSize=20;fontColor=#66CC00;startArrow=none;" parent="1" source="re8SCE5bhB2q5R2LFKZo-180" target="re8SCE5bhB2q5R2LFKZo-176" edge="1"><mxGeometry x="0.1636" y="20" width="50" height="50" relative="1" as="geometry"><mxPoint x="-8" y="3172.66" as="sourcePoint"/><mxPoint x="34" y="3175.3599999999997" as="targetPoint"/><mxPoint as="offset"/></mxGeometry></mxCell><mxCell id="re8SCE5bhB2q5R2LFKZo-176" value="Emp_Cons_OFF" style="ellipse;whiteSpace=wrap;html=1;fontSize=20;strokeColor=#000000;" parent="1" vertex="1"><mxGeometry x="-295.5" y="3185.1800000000003" width="175" height="80" as="geometry"/></mxCell><mxCell id="re8SCE5bhB2q5R2LFKZo-177" value="" style="endArrow=none;html=1;fillColor=#0050ef;fontSize=20;exitX=1;exitY=0.5;exitDx=0;exitDy=0;entryX=0;entryY=0.5;entryDx=0;entryDy=0;startArrow=none;strokeColor=#000000;" parent="1" source="re8SCE5bhB2q5R2LFKZo-182" target="re8SCE5bhB2q5R2LFKZo-178" edge="1"><mxGeometry x="0.8" y="18" width="50" height="50" relative="1" as="geometry"><mxPoint x="-118" y="3223.1099999999997" as="sourcePoint"/><mxPoint x="112" y="3243.1099999999997" as="targetPoint"/><mxPoint as="offset"/></mxGeometry></mxCell><mxCell id="re8SCE5bhB2q5R2LFKZo-178" value="NOT_END" style="ellipse;whiteSpace=wrap;html=1;fontSize=20;strokeColor=#FF0000;" parent="1" vertex="1"><mxGeometry x="155.5" y="3189.6099999999997" width="129.5" height="70" as="geometry"/></mxCell><mxCell id="re8SCE5bhB2q5R2LFKZo-179" value="" style="ellipse;whiteSpace=wrap;html=1;aspect=fixed;fontColor=#000000;fontSize=28;" parent="1" vertex="1"><mxGeometry x="-121" y="3111.1099999999997" width="43" height="43" as="geometry"/></mxCell><mxCell id="re8SCE5bhB2q5R2LFKZo-180" value="" style="ellipse;whiteSpace=wrap;html=1;aspect=fixed;fontSize=21;strokeColor=#000000;" parent="1" vertex="1"><mxGeometry x="-218" y="3084.6099999999997" width="20" height="20" as="geometry"/></mxCell><mxCell id="re8SCE5bhB2q5R2LFKZo-181" value="" style="endArrow=none;html=1;entryX=0.5;entryY=0;entryDx=0;entryDy=0;exitX=0.5;exitY=1;exitDx=0;exitDy=0;fillColor=#0050ef;fontSize=20;fontColor=#66CC00;" parent="1" source="re8SCE5bhB2q5R2LFKZo-174" target="re8SCE5bhB2q5R2LFKZo-180" edge="1"><mxGeometry x="0.1636" y="20" width="50" height="50" relative="1" as="geometry"><mxPoint x="-208" y="3003.1099999999997" as="sourcePoint"/><mxPoint x="-208" y="3183.1099999999997" as="targetPoint"/><mxPoint as="offset"/></mxGeometry></mxCell><mxCell id="re8SCE5bhB2q5R2LFKZo-182" value="" style="ellipse;whiteSpace=wrap;html=1;aspect=fixed;fontSize=21;strokeColor=#000000;" parent="1" vertex="1"><mxGeometry x="-12" y="3214.6099999999997" width="20" height="20" as="geometry"/></mxCell><mxCell id="re8SCE5bhB2q5R2LFKZo-183" value="" style="endArrow=none;html=1;fillColor=#0050ef;fontSize=20;exitX=1;exitY=0.5;exitDx=0;exitDy=0;entryX=0;entryY=0.5;entryDx=0;entryDy=0;strokeColor=#000000;" parent="1" source="re8SCE5bhB2q5R2LFKZo-176" target="re8SCE5bhB2q5R2LFKZo-182" edge="1"><mxGeometry x="0.8" y="18" width="50" height="50" relative="1" as="geometry"><mxPoint x="-148" y="3223.1099999999997" as="sourcePoint"/><mxPoint x="142" y="3223.1099999999997" as="targetPoint"/><mxPoint as="offset"/></mxGeometry></mxCell><mxCell id="re8SCE5bhB2q5R2LFKZo-184" value="" style="ellipse;whiteSpace=wrap;html=1;aspect=fixed;fontSize=21;strokeColor=#000000;" parent="1" vertex="1"><mxGeometry x="-12" y="3080.6099999999997" width="20" height="20" as="geometry"/></mxCell><mxCell id="re8SCE5bhB2q5R2LFKZo-185" value="" style="endArrow=none;html=1;fontSize=20;fontColor=#66CC00;entryX=0;entryY=0;entryDx=0;entryDy=0;exitX=1;exitY=1;exitDx=0;exitDy=0;strokeColor=#FF0000;" parent="1" source="re8SCE5bhB2q5R2LFKZo-174" target="re8SCE5bhB2q5R2LFKZo-184" edge="1"><mxGeometry x="-0.4319" y="-14" width="50" height="50" relative="1" as="geometry"><mxPoint x="-149.5" y="3001.6099999999997" as="sourcePoint"/><mxPoint x="161.57359312880726" y="3194.8257287525375" as="targetPoint"/><mxPoint as="offset"/></mxGeometry></mxCell><mxCell id="re8SCE5bhB2q5R2LFKZo-186" value="" style="endArrow=none;html=1;strokeColor=default;entryX=1;entryY=0.5;entryDx=0;entryDy=0;exitX=0;exitY=0.5;exitDx=0;exitDy=0;fontColor=#000000;" parent="1" source="re8SCE5bhB2q5R2LFKZo-179" target="re8SCE5bhB2q5R2LFKZo-180" edge="1"><mxGeometry width="50" height="50" relative="1" as="geometry"><mxPoint x="-278" y="3183.1099999999997" as="sourcePoint"/><mxPoint x="-228" y="3133.1099999999997" as="targetPoint"/></mxGeometry></mxCell><mxCell id="re8SCE5bhB2q5R2LFKZo-187" value="" style="endArrow=none;html=1;entryX=1;entryY=1;entryDx=0;entryDy=0;exitX=0;exitY=0;exitDx=0;exitDy=0;" parent="1" source="re8SCE5bhB2q5R2LFKZo-182" target="re8SCE5bhB2q5R2LFKZo-179" edge="1"><mxGeometry width="50" height="50" relative="1" as="geometry"><mxPoint x="-278" y="3183.1099999999997" as="sourcePoint"/><mxPoint x="-228" y="3133.1099999999997" as="targetPoint"/></mxGeometry></mxCell><mxCell id="re8SCE5bhB2q5R2LFKZo-188" value="{12}:DEL ;" style="endArrow=none;html=1;strokeColor=#000000;exitX=1;exitY=0.5;exitDx=0;exitDy=0;fontSize=20;entryX=0;entryY=1;entryDx=0;entryDy=0;" parent="1" source="re8SCE5bhB2q5R2LFKZo-179" target="re8SCE5bhB2q5R2LFKZo-184" edge="1"><mxGeometry x="0.7649" y="-90" width="50" height="50" relative="1" as="geometry"><mxPoint x="-87.29720420445346" y="3112.6072042044543" as="sourcePoint"/><mxPoint x="-28" y="3085.3599999999997" as="targetPoint"/><mxPoint as="offset"/></mxGeometry></mxCell><mxCell id="re8SCE5bhB2q5R2LFKZo-197" style="edgeStyle=none;rounded=0;orthogonalLoop=1;jettySize=auto;html=1;exitX=0;exitY=1;exitDx=0;exitDy=0;entryX=1;entryY=0;entryDx=0;entryDy=0;strokeColor=#FF0000;fontSize=20;fontColor=#000000;endArrow=none;endFill=0;" parent="1" source="re8SCE5bhB2q5R2LFKZo-195" target="dinq52yC8a6YhpRBenlH-76" edge="1"><mxGeometry relative="1" as="geometry"/></mxCell><mxCell id="re8SCE5bhB2q5R2LFKZo-195" value="Day X Interval" style="ellipse;whiteSpace=wrap;html=1;fontSize=20;strokeColor=#FF0000;" parent="1" vertex="1"><mxGeometry x="-534.25" y="270" width="185" height="80" as="geometry"/></mxCell><mxCell id="re8SCE5bhB2q5R2LFKZo-199" style="edgeStyle=none;rounded=0;orthogonalLoop=1;jettySize=auto;html=1;exitX=0;exitY=1;exitDx=0;exitDy=0;entryX=0.68;entryY=0.039;entryDx=0;entryDy=0;strokeColor=#FF0000;fontSize=20;fontColor=#000000;endArrow=none;endFill=0;entryPerimeter=0;" parent="1" source="re8SCE5bhB2q5R2LFKZo-198" target="dinq52yC8a6YhpRBenlH-78" edge="1"><mxGeometry relative="1" as="geometry"/></mxCell><mxCell id="re8SCE5bhB2q5R2LFKZo-200" style="edgeStyle=none;rounded=0;orthogonalLoop=1;jettySize=auto;html=1;exitX=0;exitY=0;exitDx=0;exitDy=0;entryX=0.992;entryY=0.715;entryDx=0;entryDy=0;entryPerimeter=0;strokeColor=#000000;fontSize=20;fontColor=#000000;endArrow=none;endFill=0;" parent="1" source="re8SCE5bhB2q5R2LFKZo-198" target="dinq52yC8a6YhpRBenlH-75" edge="1"><mxGeometry relative="1" as="geometry"/></mxCell><mxCell id="re8SCE5bhB2q5R2LFKZo-198" value="Weekend" style="ellipse;whiteSpace=wrap;html=1;fontSize=20;strokeColor=#FF0000;" parent="1" vertex="1"><mxGeometry x="-521.75" y="430" width="150" height="80" as="geometry"/></mxCell><mxCell id="re8SCE5bhB2q5R2LFKZo-205" style="edgeStyle=none;rounded=0;orthogonalLoop=1;jettySize=auto;html=1;exitX=0.5;exitY=1;exitDx=0;exitDy=0;entryX=0.5;entryY=0;entryDx=0;entryDy=0;strokeColor=#000000;fontSize=20;fontColor=#000000;endArrow=none;endFill=0;" parent="1" source="33" target="tU_cHO0D26eTxfwIEn8V-6" edge="1"><mxGeometry relative="1" as="geometry"/></mxCell><mxCell id="re8SCE5bhB2q5R2LFKZo-206" style="edgeStyle=none;rounded=0;orthogonalLoop=1;jettySize=auto;html=1;exitX=1;exitY=1;exitDx=0;exitDy=0;entryX=0.325;entryY=0.038;entryDx=0;entryDy=0;strokeColor=#000000;fontSize=20;fontColor=#000000;endArrow=none;endFill=0;entryPerimeter=0;" parent="1" source="re8SCE5bhB2q5R2LFKZo-202" target="dinq52yC8a6YhpRBenlH-78" edge="1"><mxGeometry relative="1" as="geometry"/></mxCell><mxCell id="re8SCE5bhB2q5R2LFKZo-212" style="edgeStyle=none;rounded=0;orthogonalLoop=1;jettySize=auto;html=1;exitX=0.305;exitY=0.971;exitDx=0;exitDy=0;strokeColor=#000000;fontSize=20;fontColor=#000000;endArrow=none;endFill=0;exitPerimeter=0;entryX=1;entryY=0;entryDx=0;entryDy=0;" parent="1" source="re8SCE5bhB2q5R2LFKZo-202" target="tU_cHO0D26eTxfwIEn8V-1" edge="1"><mxGeometry relative="1" as="geometry"><mxPoint x="-1027.25" y="470" as="targetPoint"/></mxGeometry></mxCell><mxCell id="re8SCE5bhB2q5R2LFKZo-213" style="edgeStyle=none;rounded=0;orthogonalLoop=1;jettySize=auto;html=1;exitX=0.03;exitY=0.675;exitDx=0;exitDy=0;entryX=1;entryY=0;entryDx=0;entryDy=0;strokeColor=#000000;fontSize=20;fontColor=#000000;endArrow=none;endFill=0;exitPerimeter=0;" parent="1" source="re8SCE5bhB2q5R2LFKZo-202" target="re8SCE5bhB2q5R2LFKZo-211" edge="1"><mxGeometry relative="1" as="geometry"/></mxCell><mxCell id="re8SCE5bhB2q5R2LFKZo-202" value="Day X Empoyee X ON [Emp_Cons_ON]" style="ellipse;whiteSpace=wrap;html=1;fontSize=20;strokeColor=#000000;" parent="1" vertex="1"><mxGeometry x="-966.25" y="10" width="240" height="90" as="geometry"/></mxCell><mxCell id="re8SCE5bhB2q5R2LFKZo-204" value="" style="endArrow=none;html=1;fillColor=#0050ef;fontSize=20;exitX=0.5;exitY=0;exitDx=0;exitDy=0;entryX=0.5;entryY=1;entryDx=0;entryDy=0;" parent="1" source="dinq52yC8a6YhpRBenlH-75" target="re8SCE5bhB2q5R2LFKZo-202" edge="1"><mxGeometry x="0.8" y="18" width="50" height="50" relative="1" as="geometry"><mxPoint x="-965.25" y="85.75" as="sourcePoint"/><mxPoint x="-846.25" y="220" as="targetPoint"/><mxPoint as="offset"/></mxGeometry></mxCell><mxCell id="re8SCE5bhB2q5R2LFKZo-216" style="edgeStyle=none;rounded=0;orthogonalLoop=1;jettySize=auto;html=1;exitX=0;exitY=0.5;exitDx=0;exitDy=0;entryX=0.968;entryY=0.289;entryDx=0;entryDy=0;entryPerimeter=0;strokeColor=#FF0000;fontSize=20;fontColor=#000000;endArrow=none;endFill=0;" parent="1" source="re8SCE5bhB2q5R2LFKZo-207" target="tU_cHO0D26eTxfwIEn8V-6" edge="1"><mxGeometry relative="1" as="geometry"/></mxCell><mxCell id="re8SCE5bhB2q5R2LFKZo-217" style="edgeStyle=none;rounded=0;orthogonalLoop=1;jettySize=auto;html=1;exitX=0.5;exitY=1;exitDx=0;exitDy=0;entryX=0.5;entryY=0;entryDx=0;entryDy=0;strokeColor=#FF0000;fontSize=20;fontColor=#000000;endArrow=none;endFill=0;" parent="1" source="re8SCE5bhB2q5R2LFKZo-207" target="dinq52yC8a6YhpRBenlH-78" edge="1"><mxGeometry relative="1" as="geometry"/></mxCell><mxCell id="re8SCE5bhB2q5R2LFKZo-207" value="EDGE" style="ellipse;whiteSpace=wrap;html=1;fontSize=20;strokeColor=#FF0000;" parent="1" vertex="1"><mxGeometry x="-645.75" y="140" width="120" height="80" as="geometry"/></mxCell><mxCell id="re8SCE5bhB2q5R2LFKZo-210" value="" style="endArrow=none;html=1;fillColor=#0050ef;fontSize=20;exitX=0.5;exitY=0;exitDx=0;exitDy=0;entryX=1;entryY=0.5;entryDx=0;entryDy=0;" parent="1" source="re8SCE5bhB2q5R2LFKZo-207" target="re8SCE5bhB2q5R2LFKZo-202" edge="1"><mxGeometry x="0.8" y="18" width="50" height="50" relative="1" as="geometry"><mxPoint x="-684.5" y="220" as="sourcePoint"/><mxPoint x="-671.6789321881342" y="117.07106781186576" as="targetPoint"/><mxPoint as="offset"/></mxGeometry></mxCell><mxCell id="re8SCE5bhB2q5R2LFKZo-214" style="edgeStyle=none;rounded=0;orthogonalLoop=1;jettySize=auto;html=1;exitX=1;exitY=0.5;exitDx=0;exitDy=0;entryX=0;entryY=0.5;entryDx=0;entryDy=0;strokeColor=#FF0000;fontSize=20;fontColor=#000000;endArrow=none;endFill=0;" parent="1" source="re8SCE5bhB2q5R2LFKZo-211" target="tU_cHO0D26eTxfwIEn8V-6" edge="1"><mxGeometry relative="1" as="geometry"/></mxCell><mxCell id="re8SCE5bhB2q5R2LFKZo-215" style="edgeStyle=none;rounded=0;orthogonalLoop=1;jettySize=auto;html=1;exitX=1;exitY=1;exitDx=0;exitDy=0;entryX=0.049;entryY=0.307;entryDx=0;entryDy=0;entryPerimeter=0;strokeColor=#FF0000;fontSize=20;fontColor=#000000;endArrow=none;endFill=0;" parent="1" source="re8SCE5bhB2q5R2LFKZo-211" target="dinq52yC8a6YhpRBenlH-78" edge="1"><mxGeometry relative="1" as="geometry"/></mxCell><mxCell id="34" style="rounded=0;orthogonalLoop=1;jettySize=auto;html=1;exitX=0.5;exitY=0;exitDx=0;exitDy=0;endArrow=none;endFill=0;entryX=0;entryY=1;entryDx=0;entryDy=0;" parent="1" source="re8SCE5bhB2q5R2LFKZo-211" target="33" edge="1"><mxGeometry relative="1" as="geometry"/></mxCell><mxCell id="re8SCE5bhB2q5R2LFKZo-211" value="NOT_END" style="ellipse;whiteSpace=wrap;html=1;fontSize=20;strokeColor=#FF0000;" parent="1" vertex="1"><mxGeometry x="-1357.75" y="270" width="120" height="80" as="geometry"/></mxCell><mxCell id="2" value="&amp;nbsp;; 1:DEL" style="text;html=1;strokeColor=none;fillColor=none;align=center;verticalAlign=middle;whiteSpace=wrap;rounded=0;fontSize=20;" parent="1" vertex="1"><mxGeometry x="-1072.5" y="970" width="83" height="20" as="geometry"/></mxCell><mxCell id="3" style="edgeStyle=orthogonalEdgeStyle;rounded=0;orthogonalLoop=1;jettySize=auto;html=1;exitX=0;exitY=0;exitDx=0;exitDy=0;entryX=1;entryY=0;entryDx=0;entryDy=0;strokeColor=#FF0000;endArrow=none;endFill=0;" parent="1" source="tU_cHO0D26eTxfwIEn8V-6" target="tU_cHO0D26eTxfwIEn8V-6" edge="1"><mxGeometry relative="1" as="geometry"><Array as="points"><mxPoint x="-1115.25" y="240"/><mxPoint x="-1031.25" y="240"/></Array></mxGeometry></mxCell><mxCell id="4" value="_ day X OFF" style="ellipse;whiteSpace=wrap;html=1;fontSize=20;strokeColor=#FF0000;" parent="1" vertex="1"><mxGeometry x="-500" y="-842.9799999999997" width="140" height="80" as="geometry"/></mxCell><mxCell id="5" value="" style="endArrow=none;html=1;entryX=0.5;entryY=0;entryDx=0;entryDy=0;fillColor=#60a917;fontSize=20;fontColor=#FF0000;exitX=0.5;exitY=1;exitDx=0;exitDy=0;startArrow=none;strokeColor=#FF0000;" parent="1" source="7" target="6" edge="1"><mxGeometry x="0.5182" y="3" width="50" height="50" relative="1" as="geometry"><mxPoint x="-390" y="-752.9799999999998" as="sourcePoint"/><mxPoint x="-195" y="-705.7299999999997" as="targetPoint"/><mxPoint as="offset"/></mxGeometry></mxCell><mxCell id="6" value="[_-1, _+1] day X OFF" style="ellipse;whiteSpace=wrap;html=1;fontSize=20;strokeColor=#FF0000;" parent="1" vertex="1"><mxGeometry x="-538.12" y="-606.49" width="216.25" height="82.5" as="geometry"/></mxCell><mxCell id="7" value="" style="ellipse;whiteSpace=wrap;html=1;aspect=fixed;fontSize=21;strokeColor=#000000;" parent="1" vertex="1"><mxGeometry x="-440" y="-692.9799999999997" width="20" height="20" as="geometry"/></mxCell><mxCell id="8" value="" style="endArrow=none;html=1;entryX=0.5;entryY=0;entryDx=0;entryDy=0;fillColor=#60a917;fontSize=20;fontColor=#FF0000;exitX=0.5;exitY=1;exitDx=0;exitDy=0;strokeColor=#FF0000;" parent="1" source="4" target="7" edge="1"><mxGeometry x="0.5182" y="3" width="50" height="50" relative="1" as="geometry"><mxPoint x="-430" y="-762.9799999999998" as="sourcePoint"/><mxPoint x="-430" y="-602.9799999999998" as="targetPoint"/><mxPoint as="offset"/></mxGeometry></mxCell><mxCell id="9" value="" style="endArrow=none;html=1;fontSize=20;fontColor=#66CC00;exitX=1;exitY=1;exitDx=0;exitDy=0;entryX=0;entryY=0;entryDx=0;entryDy=0;startArrow=none;strokeColor=#FF0000;" parent="1" source="20" target="14" edge="1"><mxGeometry x="-0.4319" y="-14" width="50" height="50" relative="1" as="geometry"><mxPoint x="-208.5735931287836" y="2579.204271247477" as="sourcePoint"/><mxPoint x="29" y="2770.92" as="targetPoint"/><mxPoint as="offset"/></mxGeometry></mxCell><mxCell id="10" value="Day X ON, Day X OFF" style="ellipse;whiteSpace=wrap;html=1;fontSize=20;strokeColor=#FF0000;" parent="1" vertex="1"><mxGeometry x="-314.3800000000001" y="2519.9999999999995" width="126.75" height="78.98" as="geometry"/></mxCell><mxCell id="11" value="" style="endArrow=none;html=1;entryX=0.5;entryY=0;entryDx=0;entryDy=0;exitX=0.5;exitY=1;exitDx=0;exitDy=0;fillColor=#0050ef;fontSize=20;fontColor=#66CC00;startArrow=none;" parent="1" source="16" target="65" edge="1"><mxGeometry x="0.1636" y="20" width="50" height="50" relative="1" as="geometry"><mxPoint x="-51" y="2760.4699999999993" as="sourcePoint"/><mxPoint x="-251" y="2772.9899999999993" as="targetPoint"/><mxPoint as="offset"/></mxGeometry></mxCell><mxCell id="13" value="" style="endArrow=none;html=1;fillColor=#0050ef;fontSize=20;exitX=1;exitY=0.5;exitDx=0;exitDy=0;entryX=0;entryY=0.5;entryDx=0;entryDy=0;startArrow=none;strokeColor=#000000;" parent="1" source="18" target="14" edge="1"><mxGeometry x="0.8" y="18" width="50" height="50" relative="1" as="geometry"><mxPoint x="-161" y="2810.92" as="sourcePoint"/><mxPoint x="69" y="2830.92" as="targetPoint"/><mxPoint as="offset"/></mxGeometry></mxCell><mxCell id="14" value="END, NOT_END" style="ellipse;whiteSpace=wrap;html=1;fontSize=20;strokeColor=#FF0000;" parent="1" vertex="1"><mxGeometry x="112.5" y="2777.42" width="129.5" height="70" as="geometry"/></mxCell><mxCell id="25" style="rounded=0;orthogonalLoop=1;jettySize=auto;html=1;exitX=1;exitY=0;exitDx=0;exitDy=0;strokeColor=default;entryX=0;entryY=0.5;entryDx=0;entryDy=0;endArrow=none;endFill=0;" parent="1" source="15" target="20" edge="1"><mxGeometry relative="1" as="geometry"><mxPoint x="-67.75" y="2690" as="targetPoint"/></mxGeometry></mxCell><mxCell id="15" value="" style="ellipse;whiteSpace=wrap;html=1;aspect=fixed;fontColor=#000000;fontSize=28;" parent="1" vertex="1"><mxGeometry x="-164" y="2698.92" width="43" height="43" as="geometry"/></mxCell><mxCell id="16" value="" style="ellipse;whiteSpace=wrap;html=1;aspect=fixed;fontSize=21;strokeColor=#000000;" parent="1" vertex="1"><mxGeometry x="-261" y="2672.42" width="20" height="20" as="geometry"/></mxCell><mxCell id="17" value="" style="endArrow=none;html=1;entryX=0.5;entryY=0;entryDx=0;entryDy=0;exitX=0.5;exitY=1;exitDx=0;exitDy=0;fillColor=#0050ef;fontSize=20;fontColor=#66CC00;" parent="1" source="10" target="16" edge="1"><mxGeometry x="0.1636" y="20" width="50" height="50" relative="1" as="geometry"><mxPoint x="-251" y="2590.92" as="sourcePoint"/><mxPoint x="-251" y="2770.92" as="targetPoint"/><mxPoint as="offset"/></mxGeometry></mxCell><mxCell id="18" value="" style="ellipse;whiteSpace=wrap;html=1;aspect=fixed;fontSize=21;strokeColor=#000000;" parent="1" vertex="1"><mxGeometry x="-55" y="2802.42" width="20" height="20" as="geometry"/></mxCell><mxCell id="19" value="" style="endArrow=none;html=1;fillColor=#0050ef;fontSize=20;exitX=1;exitY=0.5;exitDx=0;exitDy=0;entryX=0;entryY=0.5;entryDx=0;entryDy=0;strokeColor=#000000;" parent="1" source="65" target="18" edge="1"><mxGeometry x="0.8" y="18" width="50" height="50" relative="1" as="geometry"><mxPoint x="-163.5" y="2812.9899999999993" as="sourcePoint"/><mxPoint x="99" y="2810.92" as="targetPoint"/><mxPoint as="offset"/></mxGeometry></mxCell><mxCell id="20" value="" style="ellipse;whiteSpace=wrap;html=1;aspect=fixed;fontSize=21;strokeColor=#000000;" parent="1" vertex="1"><mxGeometry x="-55" y="2668.42" width="20" height="20" as="geometry"/></mxCell><mxCell id="21" value="" style="endArrow=none;html=1;fontSize=20;fontColor=#66CC00;entryX=0;entryY=0;entryDx=0;entryDy=0;exitX=1;exitY=1;exitDx=0;exitDy=0;strokeColor=#FF0000;" parent="1" source="10" target="20" edge="1"><mxGeometry x="-0.4319" y="-14" width="50" height="50" relative="1" as="geometry"><mxPoint x="-192.5" y="2589.42" as="sourcePoint"/><mxPoint x="118.57359312880726" y="2782.635728752537" as="targetPoint"/><mxPoint as="offset"/></mxGeometry></mxCell><mxCell id="22" value="" style="endArrow=none;html=1;strokeColor=#000000;entryX=1;entryY=0.5;entryDx=0;entryDy=0;exitX=0;exitY=0.5;exitDx=0;exitDy=0;fontColor=#000000;fontSize=20;" parent="1" source="15" target="16" edge="1"><mxGeometry x="0.0158" y="-35" width="50" height="50" relative="1" as="geometry"><mxPoint x="-321" y="2770.92" as="sourcePoint"/><mxPoint x="-271" y="2720.92" as="targetPoint"/><mxPoint as="offset"/></mxGeometry></mxCell><mxCell id="23" value="" style="endArrow=none;html=1;entryX=1;entryY=1;entryDx=0;entryDy=0;exitX=0;exitY=0;exitDx=0;exitDy=0;" parent="1" source="18" target="15" edge="1"><mxGeometry width="50" height="50" relative="1" as="geometry"><mxPoint x="-321" y="2770.92" as="sourcePoint"/><mxPoint x="-271" y="2720.92" as="targetPoint"/></mxGeometry></mxCell><mxCell id="27" value="" style="endArrow=none;html=1;entryX=0.5;entryY=0;entryDx=0;entryDy=0;fillColor=#60a917;fontSize=20;fontColor=#FF0000;exitX=0.5;exitY=1;exitDx=0;exitDy=0;startArrow=none;strokeColor=#000000;" parent="1" source="29" target="28" edge="1"><mxGeometry x="0.5182" y="3" width="50" height="50" relative="1" as="geometry"><mxPoint x="-1021.75" y="1363.0300000000004" as="sourcePoint"/><mxPoint x="-826.75" y="1410.2800000000004" as="targetPoint"/><mxPoint as="offset"/></mxGeometry></mxCell><mxCell id="28" value="[_] day X OFF" style="ellipse;whiteSpace=wrap;html=1;fontSize=20;strokeColor=#FF0000;" parent="1" vertex="1"><mxGeometry x="-1128.75" y="1507.6300000000003" width="134" height="94.85" as="geometry"/></mxCell><mxCell id="29" value="" style="ellipse;whiteSpace=wrap;html=1;aspect=fixed;fontSize=21;strokeColor=#000000;" parent="1" vertex="1"><mxGeometry x="-1071.75" y="1423.0300000000004" width="20" height="20" as="geometry"/></mxCell><mxCell id="30" value="" style="endArrow=none;html=1;entryX=0.5;entryY=0;entryDx=0;entryDy=0;fillColor=#60a917;fontSize=20;fontColor=#000000;exitX=0.49;exitY=0.983;exitDx=0;exitDy=0;strokeColor=#FF0000;exitPerimeter=0;" parent="1" source="59" target="29" edge="1"><mxGeometry x="-0.1429" y="45" width="50" height="50" relative="1" as="geometry"><mxPoint x="-1061.75" y="1353.0300000000007" as="sourcePoint"/><mxPoint x="-1061.75" y="1513.0300000000004" as="targetPoint"/><mxPoint y="1" as="offset"/></mxGeometry></mxCell><mxCell id="31" value="" style="curved=1;endArrow=classic;html=1;fontSize=18;strokeColor=#000000;entryX=1;entryY=0.5;entryDx=0;entryDy=0;" parent="1" target="32" edge="1"><mxGeometry width="50" height="50" relative="1" as="geometry"><mxPoint x="-203" y="2696.75" as="sourcePoint"/><mxPoint x="-297" y="2656.75" as="targetPoint"/><Array as="points"><mxPoint x="-143" y="2656.75"/><mxPoint x="-223" y="2616.75"/></Array></mxGeometry></mxCell><mxCell id="32" value="1:DEL ; 1:DEL" style="text;html=1;strokeColor=none;fillColor=none;align=center;verticalAlign=middle;whiteSpace=wrap;rounded=0;fontSize=20;" parent="1" vertex="1"><mxGeometry x="-457" y="2618.75" width="140" height="47.5" as="geometry"/></mxCell><mxCell id="33" value="Day X Employee X OFF [Emp_Cons_OFF]" style="ellipse;whiteSpace=wrap;html=1;fontSize=20;strokeColor=#000000;" parent="1" vertex="1"><mxGeometry x="-1334.25" y="10" width="240" height="90" as="geometry"/></mxCell><mxCell id="37" value="" style="endArrow=none;html=1;fillColor=#0050ef;fontSize=20;exitX=0;exitY=0;exitDx=0;exitDy=0;entryX=1;entryY=1;entryDx=0;entryDy=0;" parent="1" source="dinq52yC8a6YhpRBenlH-75" target="33" edge="1"><mxGeometry x="0.8" y="18" width="50" height="50" relative="1" as="geometry"><mxPoint x="-1033.25" y="220" as="sourcePoint"/><mxPoint x="-1012.1789321881924" y="187.071067811808" as="targetPoint"/><mxPoint as="offset"/></mxGeometry></mxCell><mxCell id="40" value="" style="endArrow=none;html=1;fillColor=#0050ef;fontSize=20;exitX=0.003;exitY=0.349;exitDx=0;exitDy=0;exitPerimeter=0;entryX=1;entryY=0.5;entryDx=0;entryDy=0;" parent="1" source="re8SCE5bhB2q5R2LFKZo-207" target="33" edge="1"><mxGeometry x="0.8" y="18" width="50" height="50" relative="1" as="geometry"><mxPoint x="-849.3064068711932" y="244.99572875253807" as="sourcePoint"/><mxPoint x="-1035.6789321881342" y="77.07106781186576" as="targetPoint"/><mxPoint as="offset"/></mxGeometry></mxCell><mxCell id="43" value="" style="endArrow=none;html=1;entryX=0.5;entryY=0;entryDx=0;entryDy=0;fillColor=#60a917;fontSize=20;fontColor=#FF0000;exitX=0.5;exitY=1;exitDx=0;exitDy=0;startArrow=none;strokeColor=#000000;" parent="1" source="45" target="44" edge="1"><mxGeometry x="0.5182" y="3" width="50" height="50" relative="1" as="geometry"><mxPoint x="-397" y="-396.4099999999998" as="sourcePoint"/><mxPoint x="-202" y="-349.15999999999974" as="targetPoint"/><mxPoint as="offset"/></mxGeometry></mxCell><mxCell id="44" value="[_:] day X OFF" style="ellipse;whiteSpace=wrap;html=1;fontSize=20;strokeColor=#FF0000;" parent="1" vertex="1"><mxGeometry x="-538.12" y="-255.13999999999976" width="202.25" height="100" as="geometry"/></mxCell><mxCell id="45" value="" style="ellipse;whiteSpace=wrap;html=1;aspect=fixed;fontSize=21;strokeColor=#000000;" parent="1" vertex="1"><mxGeometry x="-447.0000000000001" y="-336.40999999999974" width="20" height="20" as="geometry"/></mxCell><mxCell id="46" value="" style="endArrow=none;html=1;entryX=0.5;entryY=0;entryDx=0;entryDy=0;fillColor=#60a917;fontSize=20;fontColor=#000000;strokeColor=#000000;exitX=0.5;exitY=1;exitDx=0;exitDy=0;" parent="1" source="48" target="45" edge="1"><mxGeometry x="-0.1429" y="45" width="50" height="50" relative="1" as="geometry"><mxPoint x="-466.5000000000001" y="-391.5599999999999" as="sourcePoint"/><mxPoint x="-437.0000000000001" y="-246.40999999999974" as="targetPoint"/><mxPoint y="1" as="offset"/></mxGeometry></mxCell><mxCell id="47" value="_ day X Employee X ON" style="ellipse;whiteSpace=wrap;html=1;fontSize=20;strokeColor=#000000;" parent="1" vertex="1"><mxGeometry x="-842.25" y="-489.9999999999999" width="240" height="90" as="geometry"/></mxCell><mxCell id="48" value="_ day X Employee X OFF" style="ellipse;whiteSpace=wrap;html=1;fontSize=20;strokeColor=#000000;" parent="1" vertex="1"><mxGeometry x="-557" y="-489.99999999999994" width="240" height="90" as="geometry"/></mxCell><mxCell id="55" value="" style="endArrow=none;html=1;entryX=0.5;entryY=0;entryDx=0;entryDy=0;fillColor=#60a917;fontSize=20;fontColor=#FF0000;exitX=0.5;exitY=1;exitDx=0;exitDy=0;startArrow=none;strokeColor=#000000;" parent="1" source="57" target="56" edge="1"><mxGeometry x="0.5182" y="3" width="50" height="50" relative="1" as="geometry"><mxPoint x="-1296.75" y="1361.5400000000004" as="sourcePoint"/><mxPoint x="-1101.75" y="1408.7900000000004" as="targetPoint"/><mxPoint as="offset"/></mxGeometry></mxCell><mxCell id="56" value="[_] day X ON" style="ellipse;whiteSpace=wrap;html=1;fontSize=20;strokeColor=#FF0000;" parent="1" vertex="1"><mxGeometry x="-1403.75" y="1506.1400000000003" width="134" height="94.85" as="geometry"/></mxCell><mxCell id="57" value="" style="ellipse;whiteSpace=wrap;html=1;aspect=fixed;fontSize=21;strokeColor=#000000;" parent="1" vertex="1"><mxGeometry x="-1346.75" y="1421.5400000000004" width="20" height="20" as="geometry"/></mxCell><mxCell id="58" value="" style="endArrow=none;html=1;entryX=0.5;entryY=0;entryDx=0;entryDy=0;fillColor=#60a917;fontSize=20;fontColor=#000000;strokeColor=#FF0000;exitX=0.5;exitY=1;exitDx=0;exitDy=0;" parent="1" source="60" target="57" edge="1"><mxGeometry x="-0.1429" y="45" width="50" height="50" relative="1" as="geometry"><mxPoint x="-1387.25" y="1388.64" as="sourcePoint"/><mxPoint x="-1336.75" y="1511.5400000000004" as="targetPoint"/><mxPoint y="1" as="offset"/></mxGeometry></mxCell><mxCell id="59" value="_ day X Employee X OFF" style="ellipse;whiteSpace=wrap;html=1;fontSize=20;strokeColor=#000000;" parent="1" vertex="1"><mxGeometry x="-1179.25" y="1271.69" width="240" height="90" as="geometry"/></mxCell><mxCell id="60" value="_ day X Employee X ON" style="ellipse;whiteSpace=wrap;html=1;fontSize=20;strokeColor=#000000;" parent="1" vertex="1"><mxGeometry x="-1456.75" y="1271.69" width="240" height="90" as="geometry"/></mxCell><mxCell id="61" value="Emp_Cons_ON, Emp_Cons_OFF" style="ellipse;whiteSpace=wrap;html=1;fontSize=20;strokeColor=#000000;" parent="1" vertex="1"><mxGeometry x="-1280.5" y="2355.1000000000004" width="230" height="103.05" as="geometry"/></mxCell><mxCell id="62" value="_ day X Employee X ON, _ day X Employee X OFF" style="ellipse;whiteSpace=wrap;html=1;fontSize=20;strokeColor=#000000;" parent="1" vertex="1"><mxGeometry x="-580" y="2353.9" width="230.75" height="104.25" as="geometry"/></mxCell><mxCell id="63" value="Emp_Cons_ON, Emp_Cons_OFF" style="ellipse;whiteSpace=wrap;html=1;fontSize=20;strokeColor=#000000;" parent="1" vertex="1"><mxGeometry x="132.5" y="2349.9700000000003" width="230" height="103.05" as="geometry"/></mxCell><mxCell id="64" value="Emp_Cons_ON, Emp_Cons_OFF" style="ellipse;whiteSpace=wrap;html=1;fontSize=20;strokeColor=#000000;" parent="1" vertex="1"><mxGeometry x="-1654" y="3186.03" width="230" height="103.05" as="geometry"/></mxCell><mxCell id="65" value="Emp_Cons_ON, Emp_Cons_OFF" style="ellipse;whiteSpace=wrap;html=1;fontSize=20;strokeColor=#000000;" parent="1" vertex="1"><mxGeometry x="-366" y="2760.9" width="230" height="103.05" as="geometry"/></mxCell><mxCell id="66" value="Employee" style="ellipse;whiteSpace=wrap;html=1;fontSize=20;strokeColor=#FF0000;" parent="1" vertex="1"><mxGeometry x="-279.5" y="1261.67" width="120" height="80" as="geometry"/></mxCell><mxCell id="67" value="" style="endArrow=none;html=1;entryX=0.5;entryY=0;entryDx=0;entryDy=0;fillColor=#60a917;fontSize=20;fontColor=#FF0000;exitX=0.5;exitY=1;exitDx=0;exitDy=0;startArrow=none;" parent="1" source="69" target="68" edge="1"><mxGeometry x="0.5182" y="3" width="50" height="50" relative="1" as="geometry"><mxPoint x="-179.5" y="1351.67" as="sourcePoint"/><mxPoint x="15.5" y="1398.92" as="targetPoint"/><mxPoint as="offset"/></mxGeometry></mxCell><mxCell id="68" value="&amp;nbsp; _ day X ON,&amp;nbsp; &amp;nbsp;[_+1] day X Employee X ON&amp;nbsp; &amp;nbsp; &amp;nbsp;&amp;nbsp;" style="ellipse;whiteSpace=wrap;html=1;fontSize=20;strokeColor=#FF0000;" parent="1" vertex="1"><mxGeometry x="-304.5" y="1488" width="170" height="110.78" as="geometry"/></mxCell><mxCell id="69" value="" style="ellipse;whiteSpace=wrap;html=1;aspect=fixed;fontSize=21;strokeColor=#000000;" parent="1" vertex="1"><mxGeometry x="-229.5" y="1411.67" width="20" height="20" as="geometry"/></mxCell><mxCell id="70" value="" style="endArrow=none;html=1;entryX=0.5;entryY=0;entryDx=0;entryDy=0;fillColor=#60a917;fontSize=20;fontColor=#FF0000;exitX=0.5;exitY=1;exitDx=0;exitDy=0;" parent="1" source="66" target="69" edge="1"><mxGeometry x="0.5182" y="3" width="50" height="50" relative="1" as="geometry"><mxPoint x="-219.5" y="1341.67" as="sourcePoint"/><mxPoint x="-219.5" y="1501.67" as="targetPoint"/><mxPoint as="offset"/></mxGeometry></mxCell><mxCell id="71" value="&amp;nbsp;; 1:DEL" style="text;html=1;strokeColor=none;fillColor=none;align=center;verticalAlign=middle;whiteSpace=wrap;rounded=0;fontSize=20;" parent="1" vertex="1"><mxGeometry x="-209.5" y="1371.67" width="80.5" height="20" as="geometry"/></mxCell><mxCell id="72" value="Employee" style="ellipse;whiteSpace=wrap;html=1;fontSize=20;strokeColor=#FF0000;" parent="1" vertex="1"><mxGeometry x="-65" y="1261.67" width="120" height="80" as="geometry"/></mxCell><mxCell id="73" value="" style="endArrow=none;html=1;entryX=0.5;entryY=0;entryDx=0;entryDy=0;fillColor=#60a917;fontSize=20;fontColor=#FF0000;exitX=0.5;exitY=1;exitDx=0;exitDy=0;startArrow=none;" parent="1" source="75" target="74" edge="1"><mxGeometry x="0.5182" y="3" width="50" height="50" relative="1" as="geometry"><mxPoint x="35" y="1351.67" as="sourcePoint"/><mxPoint x="230" y="1398.92" as="targetPoint"/><mxPoint as="offset"/></mxGeometry></mxCell><mxCell id="74" value="&amp;nbsp; _ day X OFF,&amp;nbsp; &amp;nbsp;[_+1] day X Employee X OFF&amp;nbsp; &amp;nbsp; &amp;nbsp;&amp;nbsp;" style="ellipse;whiteSpace=wrap;html=1;fontSize=20;strokeColor=#FF0000;" parent="1" vertex="1"><mxGeometry x="-95.5" y="1488" width="181" height="110.78" as="geometry"/></mxCell><mxCell id="75" value="" style="ellipse;whiteSpace=wrap;html=1;aspect=fixed;fontSize=21;strokeColor=#000000;" parent="1" vertex="1"><mxGeometry x="-15" y="1411.67" width="20" height="20" as="geometry"/></mxCell><mxCell id="76" value="" style="endArrow=none;html=1;entryX=0.5;entryY=0;entryDx=0;entryDy=0;fillColor=#60a917;fontSize=20;fontColor=#FF0000;exitX=0.5;exitY=1;exitDx=0;exitDy=0;" parent="1" source="72" target="75" edge="1"><mxGeometry x="0.5182" y="3" width="50" height="50" relative="1" as="geometry"><mxPoint x="-5" y="1341.67" as="sourcePoint"/><mxPoint x="-5" y="1501.67" as="targetPoint"/><mxPoint as="offset"/></mxGeometry></mxCell><mxCell id="77" value="&amp;nbsp;; 1:DEL" style="text;html=1;strokeColor=none;fillColor=none;align=center;verticalAlign=middle;whiteSpace=wrap;rounded=0;fontSize=20;" parent="1" vertex="1"><mxGeometry x="5" y="1371.67" width="80.5" height="20" as="geometry"/></mxCell><mxCell id="78" value="" style="endArrow=none;html=1;entryX=0.5;entryY=0;entryDx=0;entryDy=0;fillColor=#60a917;fontSize=20;fontColor=#FF0000;exitX=0.5;exitY=1;exitDx=0;exitDy=0;startArrow=none;strokeColor=#000000;" parent="1" source="80" target="79" edge="1"><mxGeometry x="0.5182" y="3" width="50" height="50" relative="1" as="geometry"><mxPoint x="-1240.1300000000003" y="-398.44999999999976" as="sourcePoint"/><mxPoint x="-1045.1300000000003" y="-351.1999999999998" as="targetPoint"/><mxPoint as="offset"/></mxGeometry></mxCell><mxCell id="79" value="[_] employee" style="ellipse;whiteSpace=wrap;html=1;fontSize=20;strokeColor=#FF0000;" parent="1" vertex="1"><mxGeometry x="-1381.2500000000002" y="-259.9999999999998" width="202.25" height="100" as="geometry"/></mxCell><mxCell id="80" value="" style="ellipse;whiteSpace=wrap;html=1;aspect=fixed;fontSize=21;strokeColor=#000000;" parent="1" vertex="1"><mxGeometry x="-1290.1300000000003" y="-338.4499999999998" width="20" height="20" as="geometry"/></mxCell><mxCell id="81" value="" style="endArrow=none;html=1;entryX=0.5;entryY=0;entryDx=0;entryDy=0;fillColor=#60a917;fontSize=20;fontColor=#000000;strokeColor=#000000;" parent="1" source="82" target="80" edge="1"><mxGeometry x="-0.1429" y="45" width="50" height="50" relative="1" as="geometry"><mxPoint x="-1280.1300000000003" y="-408.44999999999976" as="sourcePoint"/><mxPoint x="-1280.1300000000003" y="-248.44999999999982" as="targetPoint"/><mxPoint y="1" as="offset"/></mxGeometry></mxCell><mxCell id="82" value="Day X _ employee X ON" style="ellipse;whiteSpace=wrap;html=1;fontSize=20;strokeColor=#000000;" parent="1" vertex="1"><mxGeometry x="-1400.1300000000003" y="-489.99999999999994" width="240" height="90" as="geometry"/></mxCell><mxCell id="83" value="" style="endArrow=none;html=1;entryX=0.5;entryY=0;entryDx=0;entryDy=0;fillColor=#60a917;fontSize=20;fontColor=#FF0000;exitX=0.5;exitY=1;exitDx=0;exitDy=0;startArrow=none;strokeColor=#000000;" parent="1" source="85" target="84" edge="1"><mxGeometry x="0.5182" y="3" width="50" height="50" relative="1" as="geometry"><mxPoint x="-965.7499999999999" y="-398.44999999999976" as="sourcePoint"/><mxPoint x="-770.7500000000001" y="-351.1999999999998" as="targetPoint"/><mxPoint as="offset"/></mxGeometry></mxCell><mxCell id="84" value="[_] employee" style="ellipse;whiteSpace=wrap;html=1;fontSize=20;strokeColor=#FF0000;" parent="1" vertex="1"><mxGeometry x="-1106.8700000000001" y="-259.9999999999998" width="202.25" height="100" as="geometry"/></mxCell><mxCell id="85" value="" style="ellipse;whiteSpace=wrap;html=1;aspect=fixed;fontSize=21;strokeColor=#000000;" parent="1" vertex="1"><mxGeometry x="-1015.7499999999999" y="-338.4499999999998" width="20" height="20" as="geometry"/></mxCell><mxCell id="86" value="" style="endArrow=none;html=1;entryX=0.5;entryY=0;entryDx=0;entryDy=0;fillColor=#60a917;fontSize=20;fontColor=#000000;strokeColor=#000000;" parent="1" source="87" target="85" edge="1"><mxGeometry x="-0.1429" y="45" width="50" height="50" relative="1" as="geometry"><mxPoint x="-1005.7499999999999" y="-408.44999999999976" as="sourcePoint"/><mxPoint x="-1005.7499999999999" y="-248.44999999999982" as="targetPoint"/><mxPoint y="1" as="offset"/></mxGeometry></mxCell><mxCell id="87" value="Day X _ employee X OFF" style="ellipse;whiteSpace=wrap;html=1;fontSize=20;strokeColor=#000000;" parent="1" vertex="1"><mxGeometry x="-1125.7500000000002" y="-489.99999999999994" width="240" height="90" as="geometry"/></mxCell><mxCell id="88" value="Employee" style="ellipse;whiteSpace=wrap;html=1;fontSize=20;strokeColor=#FF0000;" parent="1" vertex="1"><mxGeometry x="-625.31" y="859.9999999999999" width="140" height="80" as="geometry"/></mxCell><mxCell id="89" value="" style="endArrow=none;html=1;entryX=0.5;entryY=0;entryDx=0;entryDy=0;fillColor=#60a917;fontSize=20;fontColor=#FF0000;exitX=0.5;exitY=1;exitDx=0;exitDy=0;startArrow=none;strokeColor=#000000;" parent="1" source="91" target="90" edge="1"><mxGeometry x="0.5182" y="3" width="50" height="50" relative="1" as="geometry"><mxPoint x="-515.31" y="949.9999999999999" as="sourcePoint"/><mxPoint x="-320.31" y="997.2499999999999" as="targetPoint"/><mxPoint as="offset"/></mxGeometry></mxCell><mxCell id="90" value="{6.0} day X {6.1.0} shift" style="ellipse;whiteSpace=wrap;html=1;fontSize=20;strokeColor=#FF0000;" parent="1" vertex="1"><mxGeometry x="-666" y="1100" width="221.38" height="80" as="geometry"/></mxCell><mxCell id="91" value="" style="ellipse;whiteSpace=wrap;html=1;aspect=fixed;fontSize=21;strokeColor=#000000;" parent="1" vertex="1"><mxGeometry x="-565.31" y="1009.9999999999999" width="20" height="20" as="geometry"/></mxCell><mxCell id="92" value="&amp;nbsp;1:{6.1.1}p ;&amp;nbsp;" style="endArrow=none;html=1;entryX=0.5;entryY=0;entryDx=0;entryDy=0;fillColor=#60a917;fontSize=20;fontColor=#000000;exitX=0.5;exitY=1;exitDx=0;exitDy=0;strokeColor=#000000;" parent="1" source="88" target="91" edge="1"><mxGeometry x="-0.1429" y="68" width="50" height="50" relative="1" as="geometry"><mxPoint x="-555.31" y="939.9999999999999" as="sourcePoint"/><mxPoint x="-555.31" y="1100" as="targetPoint"/><mxPoint y="1" as="offset"/></mxGeometry></mxCell><mxCell id="93" value="" style="endArrow=none;html=1;entryX=0.5;entryY=0;entryDx=0;entryDy=0;fillColor=#60a917;fontSize=20;fontColor=#FF0000;exitX=0.5;exitY=1;exitDx=0;exitDy=0;startArrow=none;strokeColor=#000000;" parent="1" source="95" target="94" edge="1"><mxGeometry x="0.5182" y="3" width="50" height="50" relative="1" as="geometry"><mxPoint x="292.4999999999998" y="1358.0900000000001" as="sourcePoint"/><mxPoint x="487.4999999999998" y="1405.3400000000001" as="targetPoint"/><mxPoint as="offset"/></mxGeometry></mxCell><mxCell id="94" value="[_] employee" style="ellipse;whiteSpace=wrap;html=1;fontSize=20;strokeColor=#FF0000;" parent="1" vertex="1"><mxGeometry x="151.37999999999988" y="1496.5400000000002" width="202.25" height="100" as="geometry"/></mxCell><mxCell id="95" value="" style="ellipse;whiteSpace=wrap;html=1;aspect=fixed;fontSize=21;strokeColor=#000000;" parent="1" vertex="1"><mxGeometry x="242.49999999999977" y="1418.0900000000001" width="20" height="20" as="geometry"/></mxCell><mxCell id="96" value="" style="endArrow=none;html=1;entryX=0.5;entryY=0;entryDx=0;entryDy=0;fillColor=#60a917;fontSize=20;fontColor=#000000;strokeColor=#FF0000;" parent="1" source="97" target="95" edge="1"><mxGeometry x="-0.1429" y="45" width="50" height="50" relative="1" as="geometry"><mxPoint x="252.49999999999977" y="1348.0900000000001" as="sourcePoint"/><mxPoint x="252.49999999999977" y="1508.0900000000001" as="targetPoint"/><mxPoint y="1" as="offset"/></mxGeometry></mxCell><mxCell id="97" value="Day X _ employee X ON" style="ellipse;whiteSpace=wrap;html=1;fontSize=20;strokeColor=#000000;" parent="1" vertex="1"><mxGeometry x="132.49999999999977" y="1266.54" width="240" height="90" as="geometry"/></mxCell><mxCell id="98" value="" style="endArrow=none;html=1;entryX=0.5;entryY=0;entryDx=0;entryDy=0;fillColor=#60a917;fontSize=20;fontColor=#FF0000;exitX=0.5;exitY=1;exitDx=0;exitDy=0;startArrow=none;strokeColor=#000000;" parent="1" source="100" target="99" edge="1"><mxGeometry x="0.5182" y="3" width="50" height="50" relative="1" as="geometry"><mxPoint x="566.8800000000002" y="1358.0900000000001" as="sourcePoint"/><mxPoint x="761.88" y="1405.3400000000001" as="targetPoint"/><mxPoint as="offset"/></mxGeometry></mxCell><mxCell id="99" value="[_] employee" style="ellipse;whiteSpace=wrap;html=1;fontSize=20;strokeColor=#FF0000;" parent="1" vertex="1"><mxGeometry x="425.76" y="1496.5400000000002" width="202.25" height="100" as="geometry"/></mxCell><mxCell id="100" value="" style="ellipse;whiteSpace=wrap;html=1;aspect=fixed;fontSize=21;strokeColor=#000000;" parent="1" vertex="1"><mxGeometry x="516.8800000000002" y="1418.0900000000001" width="20" height="20" as="geometry"/></mxCell><mxCell id="101" value="" style="endArrow=none;html=1;entryX=0.5;entryY=0;entryDx=0;entryDy=0;fillColor=#60a917;fontSize=20;fontColor=#000000;strokeColor=#FF0000;" parent="1" source="102" target="100" edge="1"><mxGeometry x="-0.1429" y="45" width="50" height="50" relative="1" as="geometry"><mxPoint x="526.8800000000002" y="1348.0900000000001" as="sourcePoint"/><mxPoint x="526.8800000000002" y="1508.0900000000001" as="targetPoint"/><mxPoint y="1" as="offset"/></mxGeometry></mxCell><mxCell id="102" value="Day X _ employee X OFF" style="ellipse;whiteSpace=wrap;html=1;fontSize=20;strokeColor=#000000;" parent="1" vertex="1"><mxGeometry x="406.8799999999999" y="1266.54" width="240" height="90" as="geometry"/></mxCell><mxCell id="103" value="Emp_Cons_ON" style="ellipse;whiteSpace=wrap;html=1;fontSize=20;strokeColor=#000000;" parent="1" vertex="1"><mxGeometry x="710" y="1266.5400000000002" width="190" height="80" as="geometry"/></mxCell><mxCell id="104" value="" style="endArrow=none;html=1;entryX=0.5;entryY=0;entryDx=0;entryDy=0;fillColor=#60a917;fontSize=20;fontColor=#FF0000;exitX=0.5;exitY=1;exitDx=0;exitDy=0;startArrow=none;strokeColor=#000000;" parent="1" source="106" target="105" edge="1"><mxGeometry x="0.5182" y="3" width="50" height="50" relative="1" as="geometry"><mxPoint x="845" y="1356.5400000000002" as="sourcePoint"/><mxPoint x="1040" y="1403.7900000000002" as="targetPoint"/><mxPoint as="offset"/></mxGeometry></mxCell><mxCell id="105" value="EDGE" style="ellipse;whiteSpace=wrap;html=1;fontSize=20;strokeColor=#FF0000;" parent="1" vertex="1"><mxGeometry x="738.75" y="1513.4200000000003" width="132.5" height="68.75" as="geometry"/></mxCell><mxCell id="106" value="" style="ellipse;whiteSpace=wrap;html=1;aspect=fixed;fontSize=21;strokeColor=#000000;" parent="1" vertex="1"><mxGeometry x="795" y="1416.5400000000002" width="20" height="20" as="geometry"/></mxCell><mxCell id="107" value="" style="endArrow=none;html=1;entryX=0.5;entryY=0;entryDx=0;entryDy=0;fillColor=#60a917;fontSize=20;fontColor=#000000;exitX=0.5;exitY=1;exitDx=0;exitDy=0;strokeColor=#FF0000;" parent="1" source="103" target="106" edge="1"><mxGeometry x="0.1429" y="45" width="50" height="50" relative="1" as="geometry"><mxPoint x="805" y="1346.5400000000002" as="sourcePoint"/><mxPoint x="805" y="1506.5400000000002" as="targetPoint"/><mxPoint as="offset"/></mxGeometry></mxCell><mxCell id="108" value="Emp_Cons_OFF" style="ellipse;whiteSpace=wrap;html=1;fontSize=20;strokeColor=#000000;" parent="1" vertex="1"><mxGeometry x="950" y="1266.5400000000002" width="190" height="80" as="geometry"/></mxCell><mxCell id="109" value="" style="endArrow=none;html=1;entryX=0.5;entryY=0;entryDx=0;entryDy=0;fillColor=#60a917;fontSize=20;fontColor=#FF0000;exitX=0.5;exitY=1;exitDx=0;exitDy=0;startArrow=none;strokeColor=#000000;" parent="1" source="111" target="110" edge="1"><mxGeometry x="0.5182" y="3" width="50" height="50" relative="1" as="geometry"><mxPoint x="1085" y="1356.5400000000002" as="sourcePoint"/><mxPoint x="1280" y="1403.7900000000002" as="targetPoint"/><mxPoint as="offset"/></mxGeometry></mxCell><mxCell id="110" value="EDGE" style="ellipse;whiteSpace=wrap;html=1;fontSize=20;strokeColor=#FF0000;" parent="1" vertex="1"><mxGeometry x="978.75" y="1513.4200000000003" width="132.5" height="68.75" as="geometry"/></mxCell><mxCell id="111" value="" style="ellipse;whiteSpace=wrap;html=1;aspect=fixed;fontSize=21;strokeColor=#000000;" parent="1" vertex="1"><mxGeometry x="1035" y="1416.5400000000002" width="20" height="20" as="geometry"/></mxCell><mxCell id="112" value="" style="endArrow=none;html=1;entryX=0.5;entryY=0;entryDx=0;entryDy=0;fillColor=#60a917;fontSize=20;fontColor=#000000;exitX=0.5;exitY=1;exitDx=0;exitDy=0;strokeColor=#FF0000;" parent="1" source="108" target="111" edge="1"><mxGeometry x="0.1429" y="45" width="50" height="50" relative="1" as="geometry"><mxPoint x="1045" y="1346.5400000000002" as="sourcePoint"/><mxPoint x="1045" y="1506.5400000000002" as="targetPoint"/><mxPoint as="offset"/></mxGeometry></mxCell><mxCell id="113" value="" style="endArrow=none;html=1;fontSize=20;fontColor=#66CC00;exitX=1;exitY=1;exitDx=0;exitDy=0;entryX=0;entryY=0;entryDx=0;entryDy=0;startArrow=none;" parent="1" source="124" target="118" edge="1"><mxGeometry x="-0.4319" y="-14" width="50" height="50" relative="1" as="geometry"><mxPoint x="352.4264068712164" y="1764.0342712474776" as="sourcePoint"/><mxPoint x="590" y="1955.75" as="targetPoint"/><mxPoint as="offset"/></mxGeometry></mxCell><mxCell id="114" value="Employee" style="ellipse;whiteSpace=wrap;html=1;fontSize=20;strokeColor=#FF0000;" parent="1" vertex="1"><mxGeometry x="250" y="1697.25" width="120" height="81.5" as="geometry"/></mxCell><mxCell id="115" value="" style="endArrow=none;html=1;entryX=0.5;entryY=0;entryDx=0;entryDy=0;exitX=0.5;exitY=1;exitDx=0;exitDy=0;fillColor=#0050ef;fontSize=20;fontColor=#66CC00;strokeColor=#000000;startArrow=none;" parent="1" source="120" target="116" edge="1"><mxGeometry x="0.1636" y="20" width="50" height="50" relative="1" as="geometry"><mxPoint x="510" y="1945.3000000000002" as="sourcePoint"/><mxPoint x="552" y="1948" as="targetPoint"/><mxPoint as="offset"/></mxGeometry></mxCell><mxCell id="116" value="_ day X Shift" style="ellipse;whiteSpace=wrap;html=1;fontSize=20;strokeColor=#FF0000;" parent="1" vertex="1"><mxGeometry x="240" y="1955.75" width="140" height="80" as="geometry"/></mxCell><mxCell id="117" value="" style="endArrow=none;html=1;fillColor=#0050ef;fontSize=20;exitX=1;exitY=0.5;exitDx=0;exitDy=0;entryX=0;entryY=0.5;entryDx=0;entryDy=0;startArrow=none;strokeColor=#FF0000;" parent="1" source="122" target="118" edge="1"><mxGeometry x="0.8" y="18" width="50" height="50" relative="1" as="geometry"><mxPoint x="400" y="1995.75" as="sourcePoint"/><mxPoint x="630" y="2015.75" as="targetPoint"/><mxPoint as="offset"/></mxGeometry></mxCell><mxCell id="118" value="[_] day X ON" style="ellipse;whiteSpace=wrap;html=1;fontSize=20;strokeColor=#FF0000;" parent="1" vertex="1"><mxGeometry x="662" y="1955.75" width="148" height="80" as="geometry"/></mxCell><mxCell id="119" value="" style="ellipse;whiteSpace=wrap;html=1;aspect=fixed;fontColor=#000000;fontSize=28;" parent="1" vertex="1"><mxGeometry x="397" y="1883.75" width="43" height="43" as="geometry"/></mxCell><mxCell id="120" value="" style="ellipse;whiteSpace=wrap;html=1;aspect=fixed;fontSize=21;strokeColor=#000000;" parent="1" vertex="1"><mxGeometry x="300" y="1857.25" width="20" height="20" as="geometry"/></mxCell><mxCell id="121" value="" style="endArrow=none;html=1;entryX=0.5;entryY=0;entryDx=0;entryDy=0;exitX=0.5;exitY=1;exitDx=0;exitDy=0;fillColor=#0050ef;fontSize=20;fontColor=#66CC00;strokeColor=#000000;" parent="1" source="114" target="120" edge="1"><mxGeometry x="0.1636" y="20" width="50" height="50" relative="1" as="geometry"><mxPoint x="310" y="1775.75" as="sourcePoint"/><mxPoint x="310" y="1955.75" as="targetPoint"/><mxPoint as="offset"/></mxGeometry></mxCell><mxCell id="122" value="" style="ellipse;whiteSpace=wrap;html=1;aspect=fixed;fontSize=21;strokeColor=#000000;" parent="1" vertex="1"><mxGeometry x="506" y="1985.75" width="20" height="20" as="geometry"/></mxCell><mxCell id="123" value="" style="endArrow=none;html=1;fillColor=#0050ef;fontSize=20;exitX=1;exitY=0.5;exitDx=0;exitDy=0;entryX=0;entryY=0.5;entryDx=0;entryDy=0;strokeColor=#FF0000;" parent="1" source="116" target="122" edge="1"><mxGeometry x="0.8" y="18" width="50" height="50" relative="1" as="geometry"><mxPoint x="370" y="1995.75" as="sourcePoint"/><mxPoint x="660" y="1995.75" as="targetPoint"/><mxPoint as="offset"/></mxGeometry></mxCell><mxCell id="124" value="" style="ellipse;whiteSpace=wrap;html=1;aspect=fixed;fontSize=21;strokeColor=#000000;" parent="1" vertex="1"><mxGeometry x="506" y="1853.25" width="20" height="20" as="geometry"/></mxCell><mxCell id="125" value="" style="endArrow=none;html=1;fontSize=20;fontColor=#66CC00;entryX=0;entryY=0;entryDx=0;entryDy=0;exitX=1;exitY=1;exitDx=0;exitDy=0;" parent="1" source="114" target="124" edge="1"><mxGeometry x="-0.4319" y="-14" width="50" height="50" relative="1" as="geometry"><mxPoint x="368.5" y="1774.25" as="sourcePoint"/><mxPoint x="679.5735931288073" y="1967.4657287525379" as="targetPoint"/><mxPoint as="offset"/></mxGeometry></mxCell><mxCell id="126" value="" style="endArrow=none;html=1;strokeColor=#FF0000;entryX=1;entryY=0.5;entryDx=0;entryDy=0;exitX=0;exitY=0.5;exitDx=0;exitDy=0;" parent="1" source="119" target="120" edge="1"><mxGeometry width="50" height="50" relative="1" as="geometry"><mxPoint x="240" y="1955.75" as="sourcePoint"/><mxPoint x="290" y="1905.75" as="targetPoint"/></mxGeometry></mxCell><mxCell id="127" value="" style="endArrow=none;html=1;strokeColor=#000000;entryX=0;entryY=1;entryDx=0;entryDy=0;exitX=1;exitY=0;exitDx=0;exitDy=0;fontSize=20;" parent="1" source="119" target="124" edge="1"><mxGeometry x="1" y="114" width="50" height="50" relative="1" as="geometry"><mxPoint x="240" y="1955.75" as="sourcePoint"/><mxPoint x="290" y="1905.75" as="targetPoint"/><mxPoint x="123" y="46" as="offset"/></mxGeometry></mxCell><mxCell id="128" value="" style="endArrow=none;html=1;entryX=1;entryY=1;entryDx=0;entryDy=0;exitX=0;exitY=0;exitDx=0;exitDy=0;strokeColor=#000000;" parent="1" source="122" target="119" edge="1"><mxGeometry width="50" height="50" relative="1" as="geometry"><mxPoint x="240" y="1955.75" as="sourcePoint"/><mxPoint x="290" y="1905.75" as="targetPoint"/></mxGeometry></mxCell><mxCell id="130" value="" style="endArrow=none;html=1;fontSize=20;fontColor=#66CC00;exitX=1;exitY=1;exitDx=0;exitDy=0;startArrow=none;entryX=0;entryY=0;entryDx=0;entryDy=0;" parent="1" source="141" target="182" edge="1"><mxGeometry x="-0.4319" y="-14" width="50" height="50" relative="1" as="geometry"><mxPoint x="528.1864068712164" y="2166.5342712474776" as="sourcePoint"/><mxPoint x="840" y="2260" as="targetPoint"/><mxPoint as="offset"/></mxGeometry></mxCell><mxCell id="131" value="Employee" style="ellipse;whiteSpace=wrap;html=1;fontSize=20;strokeColor=#FF0000;" parent="1" vertex="1"><mxGeometry x="425.76" y="2099.75" width="120" height="81.5" as="geometry"/></mxCell><mxCell id="132" value="" style="endArrow=none;html=1;exitX=0.5;exitY=1;exitDx=0;exitDy=0;fillColor=#0050ef;fontSize=20;fontColor=#66CC00;strokeColor=#000000;startArrow=none;entryX=0.5;entryY=0;entryDx=0;entryDy=0;" parent="1" source="137" target="181" edge="1"><mxGeometry x="0.1636" y="20" width="50" height="50" relative="1" as="geometry"><mxPoint x="685.76" y="2347.8" as="sourcePoint"/><mxPoint x="450" y="2350" as="targetPoint"/><mxPoint as="offset"/></mxGeometry></mxCell><mxCell id="134" value="" style="endArrow=none;html=1;fillColor=#0050ef;fontSize=20;exitX=1;exitY=0.5;exitDx=0;exitDy=0;startArrow=none;strokeColor=#FF0000;entryX=0;entryY=0.5;entryDx=0;entryDy=0;" parent="1" source="139" target="182" edge="1"><mxGeometry x="0.8" y="18" width="50" height="50" relative="1" as="geometry"><mxPoint x="575.76" y="2398.25" as="sourcePoint"/><mxPoint x="780" y="2470" as="targetPoint"/><mxPoint as="offset"/></mxGeometry></mxCell><mxCell id="136" value="" style="ellipse;whiteSpace=wrap;html=1;aspect=fixed;fontColor=#000000;fontSize=28;" parent="1" vertex="1"><mxGeometry x="572.76" y="2286.25" width="43" height="43" as="geometry"/></mxCell><mxCell id="137" value="" style="ellipse;whiteSpace=wrap;html=1;aspect=fixed;fontSize=21;strokeColor=#000000;" parent="1" vertex="1"><mxGeometry x="475.76" y="2259.75" width="20" height="20" as="geometry"/></mxCell><mxCell id="138" value="" style="endArrow=none;html=1;entryX=0.5;entryY=0;entryDx=0;entryDy=0;exitX=0.5;exitY=1;exitDx=0;exitDy=0;fillColor=#0050ef;fontSize=20;fontColor=#66CC00;strokeColor=#000000;" parent="1" source="131" target="137" edge="1"><mxGeometry x="0.1636" y="20" width="50" height="50" relative="1" as="geometry"><mxPoint x="485.76" y="2178.25" as="sourcePoint"/><mxPoint x="485.76" y="2358.25" as="targetPoint"/><mxPoint as="offset"/></mxGeometry></mxCell><mxCell id="139" value="" style="ellipse;whiteSpace=wrap;html=1;aspect=fixed;fontSize=21;strokeColor=#000000;" parent="1" vertex="1"><mxGeometry x="681.76" y="2388.25" width="20" height="20" as="geometry"/></mxCell><mxCell id="140" value="" style="endArrow=none;html=1;fillColor=#0050ef;fontSize=20;exitX=1;exitY=0.5;exitDx=0;exitDy=0;entryX=0;entryY=0.5;entryDx=0;entryDy=0;strokeColor=#FF0000;" parent="1" source="181" target="139" edge="1"><mxGeometry x="0.8" y="18" width="50" height="50" relative="1" as="geometry"><mxPoint x="545.7600000000002" y="2398.249999999999" as="sourcePoint"/><mxPoint x="835.76" y="2398.25" as="targetPoint"/><mxPoint as="offset"/></mxGeometry></mxCell><mxCell id="141" value="" style="ellipse;whiteSpace=wrap;html=1;aspect=fixed;fontSize=21;strokeColor=#000000;" parent="1" vertex="1"><mxGeometry x="681.76" y="2255.75" width="20" height="20" as="geometry"/></mxCell><mxCell id="142" value="" style="endArrow=none;html=1;fontSize=20;fontColor=#66CC00;entryX=0;entryY=0;entryDx=0;entryDy=0;exitX=1;exitY=1;exitDx=0;exitDy=0;" parent="1" source="131" target="141" edge="1"><mxGeometry x="-0.4319" y="-14" width="50" height="50" relative="1" as="geometry"><mxPoint x="544.26" y="2176.75" as="sourcePoint"/><mxPoint x="855.3335931288073" y="2369.965728752538" as="targetPoint"/><mxPoint as="offset"/></mxGeometry></mxCell><mxCell id="143" value="" style="endArrow=none;html=1;strokeColor=#FF0000;entryX=1;entryY=0.5;entryDx=0;entryDy=0;exitX=0;exitY=0.5;exitDx=0;exitDy=0;" parent="1" source="136" target="137" edge="1"><mxGeometry width="50" height="50" relative="1" as="geometry"><mxPoint x="415.76" y="2358.25" as="sourcePoint"/><mxPoint x="465.76" y="2308.25" as="targetPoint"/></mxGeometry></mxCell><mxCell id="144" value="" style="endArrow=none;html=1;strokeColor=#000000;entryX=0;entryY=1;entryDx=0;entryDy=0;exitX=1;exitY=0;exitDx=0;exitDy=0;fontSize=20;" parent="1" source="136" target="141" edge="1"><mxGeometry x="1" y="114" width="50" height="50" relative="1" as="geometry"><mxPoint x="415.76" y="2358.25" as="sourcePoint"/><mxPoint x="465.76" y="2308.25" as="targetPoint"/><mxPoint x="123" y="46" as="offset"/></mxGeometry></mxCell><mxCell id="145" value="" style="endArrow=none;html=1;entryX=1;entryY=1;entryDx=0;entryDy=0;exitX=0;exitY=0;exitDx=0;exitDy=0;strokeColor=#000000;" parent="1" source="139" target="136" edge="1"><mxGeometry width="50" height="50" relative="1" as="geometry"><mxPoint x="415.76" y="2358.25" as="sourcePoint"/><mxPoint x="465.76" y="2308.25" as="targetPoint"/></mxGeometry></mxCell><mxCell id="147" value="" style="endArrow=none;html=1;fontSize=20;fontColor=#66CC00;exitX=1;exitY=1;exitDx=0;exitDy=0;startArrow=none;entryX=0;entryY=0;entryDx=0;entryDy=0;" parent="1" source="158" target="183" edge="1"><mxGeometry x="-0.4319" y="-14" width="50" height="50" relative="1" as="geometry"><mxPoint x="492.4264068712164" y="2584.2842712474776" as="sourcePoint"/><mxPoint x="850" y="2740" as="targetPoint"/><mxPoint as="offset"/></mxGeometry></mxCell><mxCell id="148" value="Employee" style="ellipse;whiteSpace=wrap;html=1;fontSize=20;strokeColor=#FF0000;" parent="1" vertex="1"><mxGeometry x="390" y="2517.5" width="120" height="81.5" as="geometry"/></mxCell><mxCell id="149" value="" style="endArrow=none;html=1;entryX=0.5;entryY=0;entryDx=0;entryDy=0;exitX=0.5;exitY=1;exitDx=0;exitDy=0;fillColor=#0050ef;fontSize=20;fontColor=#66CC00;strokeColor=#000000;startArrow=none;" parent="1" source="154" target="150" edge="1"><mxGeometry x="0.1636" y="20" width="50" height="50" relative="1" as="geometry"><mxPoint x="650" y="2765.55" as="sourcePoint"/><mxPoint x="692" y="2768.25" as="targetPoint"/><mxPoint as="offset"/></mxGeometry></mxCell><mxCell id="150" value="_ day X ON" style="ellipse;whiteSpace=wrap;html=1;fontSize=20;strokeColor=#FF0000;" parent="1" vertex="1"><mxGeometry x="390" y="2776" width="120" height="80" as="geometry"/></mxCell><mxCell id="151" value="" style="endArrow=none;html=1;fillColor=#0050ef;fontSize=20;exitX=1;exitY=0.5;exitDx=0;exitDy=0;startArrow=none;strokeColor=#FF0000;entryX=0;entryY=0.5;entryDx=0;entryDy=0;" parent="1" source="156" target="183" edge="1"><mxGeometry x="0.8" y="18" width="50" height="50" relative="1" as="geometry"><mxPoint x="540" y="2816" as="sourcePoint"/><mxPoint x="730" y="2780" as="targetPoint"/><mxPoint as="offset"/></mxGeometry></mxCell><mxCell id="153" value="" style="ellipse;whiteSpace=wrap;html=1;aspect=fixed;fontColor=#000000;fontSize=28;" parent="1" vertex="1"><mxGeometry x="537" y="2704" width="43" height="43" as="geometry"/></mxCell><mxCell id="154" value="" style="ellipse;whiteSpace=wrap;html=1;aspect=fixed;fontSize=21;strokeColor=#000000;" parent="1" vertex="1"><mxGeometry x="440" y="2677.5" width="20" height="20" as="geometry"/></mxCell><mxCell id="155" value="" style="endArrow=none;html=1;entryX=0.5;entryY=0;entryDx=0;entryDy=0;exitX=0.5;exitY=1;exitDx=0;exitDy=0;fillColor=#0050ef;fontSize=20;fontColor=#66CC00;strokeColor=#000000;" parent="1" source="148" target="154" edge="1"><mxGeometry x="0.1636" y="20" width="50" height="50" relative="1" as="geometry"><mxPoint x="450" y="2596" as="sourcePoint"/><mxPoint x="450" y="2776" as="targetPoint"/><mxPoint as="offset"/></mxGeometry></mxCell><mxCell id="156" value="" style="ellipse;whiteSpace=wrap;html=1;aspect=fixed;fontSize=21;strokeColor=#000000;" parent="1" vertex="1"><mxGeometry x="646" y="2806" width="20" height="20" as="geometry"/></mxCell><mxCell id="157" value="" style="endArrow=none;html=1;fillColor=#0050ef;fontSize=20;exitX=1;exitY=0.5;exitDx=0;exitDy=0;entryX=0;entryY=0.5;entryDx=0;entryDy=0;strokeColor=#FF0000;" parent="1" source="150" target="156" edge="1"><mxGeometry x="0.8" y="18" width="50" height="50" relative="1" as="geometry"><mxPoint x="510" y="2816" as="sourcePoint"/><mxPoint x="800" y="2816" as="targetPoint"/><mxPoint as="offset"/></mxGeometry></mxCell><mxCell id="158" value="" style="ellipse;whiteSpace=wrap;html=1;aspect=fixed;fontSize=21;strokeColor=#000000;" parent="1" vertex="1"><mxGeometry x="646" y="2673.5" width="20" height="20" as="geometry"/></mxCell><mxCell id="159" value="" style="endArrow=none;html=1;fontSize=20;fontColor=#66CC00;entryX=0;entryY=0;entryDx=0;entryDy=0;exitX=1;exitY=1;exitDx=0;exitDy=0;" parent="1" source="148" target="158" edge="1"><mxGeometry x="-0.4319" y="-14" width="50" height="50" relative="1" as="geometry"><mxPoint x="508.5" y="2594.5" as="sourcePoint"/><mxPoint x="819.5735931288073" y="2787.715728752538" as="targetPoint"/><mxPoint as="offset"/></mxGeometry></mxCell><mxCell id="160" value="" style="endArrow=none;html=1;strokeColor=#FF0000;entryX=1;entryY=0.5;entryDx=0;entryDy=0;exitX=0;exitY=0.5;exitDx=0;exitDy=0;" parent="1" source="153" target="154" edge="1"><mxGeometry width="50" height="50" relative="1" as="geometry"><mxPoint x="380" y="2776" as="sourcePoint"/><mxPoint x="430" y="2726" as="targetPoint"/></mxGeometry></mxCell><mxCell id="161" value="" style="endArrow=none;html=1;strokeColor=#000000;entryX=0;entryY=1;entryDx=0;entryDy=0;exitX=1;exitY=0;exitDx=0;exitDy=0;fontSize=20;" parent="1" source="153" target="158" edge="1"><mxGeometry x="1" y="91" width="50" height="50" relative="1" as="geometry"><mxPoint x="380" y="2776" as="sourcePoint"/><mxPoint x="430" y="2726" as="targetPoint"/><mxPoint x="89" y="25" as="offset"/></mxGeometry></mxCell><mxCell id="162" value="" style="endArrow=none;html=1;entryX=1;entryY=1;entryDx=0;entryDy=0;exitX=0;exitY=0;exitDx=0;exitDy=0;strokeColor=#000000;" parent="1" source="156" target="153" edge="1"><mxGeometry width="50" height="50" relative="1" as="geometry"><mxPoint x="380" y="2776" as="sourcePoint"/><mxPoint x="430" y="2726" as="targetPoint"/></mxGeometry></mxCell><mxCell id="164" value="" style="endArrow=none;html=1;fontSize=20;fontColor=#66CC00;exitX=1;exitY=1;exitDx=0;exitDy=0;startArrow=none;strokeColor=#000000;entryX=0;entryY=0;entryDx=0;entryDy=0;" parent="1" source="174" target="180" edge="1"><mxGeometry x="-0.4319" y="-14" width="50" height="50" relative="1" as="geometry"><mxPoint x="501.4264068712164" y="2976.3742712474773" as="sourcePoint"/><mxPoint x="830" y="3136.5899999999997" as="targetPoint"/><mxPoint as="offset"/></mxGeometry></mxCell><mxCell id="165" value="Day X ON, Day X OFF" style="ellipse;whiteSpace=wrap;html=1;fontSize=20;strokeColor=#FF0000;" parent="1" vertex="1"><mxGeometry x="390" y="2908.8399999999997" width="138" height="81.5" as="geometry"/></mxCell><mxCell id="166" value="" style="endArrow=none;html=1;entryX=0.5;entryY=0;entryDx=0;entryDy=0;exitX=0.5;exitY=1;exitDx=0;exitDy=0;fillColor=#0050ef;fontSize=20;fontColor=#66CC00;startArrow=none;" parent="1" source="170" target="167" edge="1"><mxGeometry x="0.1636" y="20" width="50" height="50" relative="1" as="geometry"><mxPoint x="659" y="3157.64" as="sourcePoint"/><mxPoint x="701" y="3160.3399999999997" as="targetPoint"/><mxPoint as="offset"/></mxGeometry></mxCell><mxCell id="167" value="[_] employee" style="ellipse;whiteSpace=wrap;html=1;fontSize=20;strokeColor=#FF0000;" parent="1" vertex="1"><mxGeometry x="394.5" y="3168.09" width="129" height="80" as="geometry"/></mxCell><mxCell id="168" value="" style="endArrow=none;html=1;fillColor=#0050ef;fontSize=20;exitX=1;exitY=0.5;exitDx=0;exitDy=0;startArrow=none;strokeColor=#FF0000;entryX=0;entryY=0.5;entryDx=0;entryDy=0;" parent="1" source="172" target="180" edge="1"><mxGeometry x="0.8" y="18" width="50" height="50" relative="1" as="geometry"><mxPoint x="549" y="3208.0899999999997" as="sourcePoint"/><mxPoint x="771" y="3226.5899999999997" as="targetPoint"/><mxPoint as="offset"/></mxGeometry></mxCell><mxCell id="169" value="" style="ellipse;whiteSpace=wrap;html=1;aspect=fixed;fontColor=#000000;fontSize=28;" parent="1" vertex="1"><mxGeometry x="546" y="3096.0899999999997" width="43" height="43" as="geometry"/></mxCell><mxCell id="170" value="" style="ellipse;whiteSpace=wrap;html=1;aspect=fixed;fontSize=21;strokeColor=#000000;" parent="1" vertex="1"><mxGeometry x="449" y="3069.5899999999997" width="20" height="20" as="geometry"/></mxCell><mxCell id="171" value="" style="endArrow=none;html=1;entryX=0.5;entryY=0;entryDx=0;entryDy=0;exitX=0.5;exitY=1;exitDx=0;exitDy=0;fillColor=#0050ef;fontSize=20;fontColor=#66CC00;" parent="1" source="165" target="170" edge="1"><mxGeometry x="0.1636" y="20" width="50" height="50" relative="1" as="geometry"><mxPoint x="459" y="2988.0899999999997" as="sourcePoint"/><mxPoint x="459" y="3168.0899999999997" as="targetPoint"/><mxPoint as="offset"/></mxGeometry></mxCell><mxCell id="172" value="" style="ellipse;whiteSpace=wrap;html=1;aspect=fixed;fontSize=21;strokeColor=#000000;" parent="1" vertex="1"><mxGeometry x="655" y="3198.0899999999997" width="20" height="20" as="geometry"/></mxCell><mxCell id="173" value="" style="endArrow=none;html=1;fillColor=#0050ef;fontSize=20;exitX=1;exitY=0.5;exitDx=0;exitDy=0;entryX=0;entryY=0.5;entryDx=0;entryDy=0;" parent="1" source="167" target="172" edge="1"><mxGeometry x="0.8" y="18" width="50" height="50" relative="1" as="geometry"><mxPoint x="519" y="3208.0899999999997" as="sourcePoint"/><mxPoint x="809" y="3208.0899999999997" as="targetPoint"/><mxPoint as="offset"/></mxGeometry></mxCell><mxCell id="174" value="" style="ellipse;whiteSpace=wrap;html=1;aspect=fixed;fontSize=21;strokeColor=#000000;" parent="1" vertex="1"><mxGeometry x="655" y="3065.5899999999997" width="20" height="20" as="geometry"/></mxCell><mxCell id="175" value="" style="endArrow=none;html=1;fontSize=20;fontColor=#66CC00;entryX=0;entryY=0;entryDx=0;entryDy=0;exitX=1;exitY=1;exitDx=0;exitDy=0;strokeColor=#000000;" parent="1" source="165" target="174" edge="1"><mxGeometry x="-0.4319" y="-14" width="50" height="50" relative="1" as="geometry"><mxPoint x="517.5" y="2986.5899999999997" as="sourcePoint"/><mxPoint x="828.5735931288073" y="3179.8057287525376" as="targetPoint"/><mxPoint as="offset"/></mxGeometry></mxCell><mxCell id="176" value="" style="endArrow=none;html=1;strokeColor=#000000;entryX=1;entryY=0.5;entryDx=0;entryDy=0;exitX=0;exitY=0.5;exitDx=0;exitDy=0;" parent="1" source="169" target="170" edge="1"><mxGeometry width="50" height="50" relative="1" as="geometry"><mxPoint x="389" y="3168.0899999999997" as="sourcePoint"/><mxPoint x="439" y="3118.0899999999997" as="targetPoint"/></mxGeometry></mxCell><mxCell id="177" value="" style="endArrow=none;html=1;strokeColor=#FF0000;entryX=0;entryY=1;entryDx=0;entryDy=0;exitX=1;exitY=0;exitDx=0;exitDy=0;fontColor=#FF0000;" parent="1" source="169" target="174" edge="1"><mxGeometry width="50" height="50" relative="1" as="geometry"><mxPoint x="389" y="3168.0899999999997" as="sourcePoint"/><mxPoint x="439" y="3118.0899999999997" as="targetPoint"/></mxGeometry></mxCell><mxCell id="178" value="" style="endArrow=none;html=1;entryX=1;entryY=1;entryDx=0;entryDy=0;exitX=0;exitY=0;exitDx=0;exitDy=0;fontSize=20;" parent="1" source="172" target="169" edge="1"><mxGeometry x="-0.5159" y="-35" width="50" height="50" relative="1" as="geometry"><mxPoint x="389" y="3168.0899999999997" as="sourcePoint"/><mxPoint x="439" y="3118.0899999999997" as="targetPoint"/><mxPoint as="offset"/></mxGeometry></mxCell><mxCell id="180" value="Day X _ employee X ON, Day X _ employee X OFF" style="ellipse;whiteSpace=wrap;html=1;fontSize=20;strokeColor=#000000;" parent="1" vertex="1"><mxGeometry x="803.5" y="3156.56" width="256.5" height="103.05" as="geometry"/></mxCell><mxCell id="181" value="_ day X Shift" style="ellipse;whiteSpace=wrap;html=1;fontSize=20;strokeColor=#FF0000;" parent="1" vertex="1"><mxGeometry x="415.75999999999976" y="2358.25" width="140" height="80" as="geometry"/></mxCell><mxCell id="182" value="[_] day X {0} interval" style="ellipse;whiteSpace=wrap;html=1;fontSize=20;strokeColor=#FF0000;" parent="1" vertex="1"><mxGeometry x="814.9999999999998" y="2358.25" width="213.75" height="80" as="geometry"/></mxCell><mxCell id="183" value="{1} weekend" style="ellipse;whiteSpace=wrap;html=1;fontSize=20;strokeColor=#FF0000;" parent="1" vertex="1"><mxGeometry x="795.0000000000001" y="2776" width="170" height="80" as="geometry"/></mxCell></root></mxGraphModel></diagram></mxfile>